<svg xmlns="http://www.w3.org/2000/svg" xmlns:xlink="http://www.w3.org/1999/xlink" viewBox="0 0 1918.2 356.94"><defs><style>.cls-1,.cls-10,.cls-11,.cls-12,.cls-4,.cls-5,.cls-6,.cls-7,.cls-8,.cls-9{fill:none;}.cls-2{clip-path:url(#clip-path);}.cls-3{fill:#2841f9;}.cls-10,.cls-11,.cls-12,.cls-4,.cls-5,.cls-6,.cls-7,.cls-8,.cls-9{stroke:#1ed6b3;stroke-miterlimit:10;stroke-width:0.25px;}.cls-5{stroke-dasharray:4.16 4.16;}.cls-6{stroke-dasharray:4.16 4.16;}.cls-7{stroke-dasharray:2.4 2.4;}.cls-8{stroke-dasharray:2.5 2.5;}.cls-9{stroke-dasharray:4.18 4.18;}.cls-10{stroke-dasharray:4.03 4.03;}.cls-11{stroke-dasharray:2.38 2.38;}.cls-12{stroke-dasharray:4.22 4.22;}.cls-13{fill:#00b1d0;}.cls-14{fill:#1ed6b3;}.cls-15{fill:#4fdb6d;}.cls-16{fill:#a2e538;}.cls-17{fill:#fff;}</style><clipPath id="clip-path"><rect class="cls-1" y="271.35" width="1918.2" height="83.11"/></clipPath></defs><title>footer_blue_pattern_logo</title><g id="Layer_2" data-name="Layer 2"><g id="Layer_1-2" data-name="Layer 1"><g class="cls-2"><rect class="cls-3" y="271.35" width="1918.2" height="83.11"/><path class="cls-4" d="M1162.85,335.78l2.69-1.16"/><path class="cls-4" d="M1174.83,355.53l2.69-1.17"/><path class="cls-4" d="M1380.19,311.89c.57-.79,1.15-1.58,1.74-2.36"/><path class="cls-5" d="M1385.53,294.9a155.07,155.07,0,0,1,260.94,31.86"/><path class="cls-4" d="M1647.69,329.44c.4.89.79,1.79,1.17,2.69"/><polyline class="cls-6" points="1680.31 247.12 1140.02 247.12 1140.02 284.42 1299.52 284.42"/><path class="cls-4" d="M1382.86,315.18a3.59,3.59,0,1,1-3.59-3.59A3.59,3.59,0,0,1,1382.86,315.18Z"/><circle class="cls-7" cx="1096.81" cy="328.67" r="10.77" transform="translate(373.43 1216.21) rotate(-67.5)"/><path class="cls-4" d="M1100.4,328.67a3.59,3.59,0,1,1-3.59-3.59A3.59,3.59,0,0,1,1100.4,328.67Z"/><path class="cls-4" d="M1195.2,164.35a5.39,5.39,0,1,1-5.38-5.39A5.38,5.38,0,0,1,1195.2,164.35Z"/><line class="cls-4" x1="1185.78" y1="160.31" x2="1193.86" y2="168.38"/><path class="cls-4" d="M1246.18,213.5a5.39,5.39,0,1,1-5.39-5.39A5.38,5.38,0,0,1,1246.18,213.5Z"/><line class="cls-4" x1="1236.75" y1="209.46" x2="1244.83" y2="217.54"/><circle class="cls-4" cx="1105.12" cy="209.89" r="9.42" transform="translate(488.29 1150.57) rotate(-67.5)"/><line class="cls-4" x1="1098.05" y1="202.82" x2="1112.19" y2="216.96"/><path class="cls-4" d="M1146.78,243.81a9.43,9.43,0,1,1-9.42-9.43A9.42,9.42,0,0,1,1146.78,243.81Z"/><line class="cls-4" x1="1130.29" y1="236.74" x2="1144.42" y2="250.87"/><rect class="cls-4" x="1557.18" y="326.39" width="1.96" height="7.46"/><rect class="cls-4" x="1547.23" y="326.39" width="1.96" height="7.46"/><rect class="cls-4" x="1525.08" y="327.67" width="18.56" height="4.88"/><rect class="cls-4" x="1553.48" y="314.05" width="1.96" height="7.46"/><rect class="cls-4" x="1699.58" y="224.56" width="7.46" height="1.96"/><rect class="cls-4" x="1687.24" y="228.26" width="7.46" height="1.96"/><path class="cls-4" d="M1430.35,321.55a3.59,3.59,0,1,1-3.59-3.59A3.59,3.59,0,0,1,1430.35,321.55Z"/><path class="cls-4" d="M1524.31,306.67a2,2,0,1,1-2-1.95A2,2,0,0,1,1524.31,306.67Z"/><path class="cls-4" d="M1516.74,321a2,2,0,1,1-2-2A2,2,0,0,1,1516.74,321Z"/><rect class="cls-4" x="1538.89" y="307.12" width="3.59" height="3.59" transform="translate(232.82 1179.91) rotate(-45)"/><rect class="cls-4" x="1462.48" y="311.61" width="3.59" height="3.59" transform="translate(207.26 1127.19) rotate(-45)"/><rect class="cls-4" x="1457.4" y="330.76" width="3.59" height="3.59" transform="translate(192.24 1129.21) rotate(-45)"/><path class="cls-4" d="M1259,352a2,2,0,1,1-2-2A2,2,0,0,1,1259,352Z"/><path class="cls-4" d="M1251.46,316.31a2,2,0,1,1-2-2A2,2,0,0,1,1251.46,316.31Z"/><rect class="cls-4" x="1273.61" y="352.43" width="3.59" height="3.59" transform="translate(123.08 1005.6) rotate(-45)"/><rect class="cls-4" x="1197.2" y="306.89" width="3.59" height="3.59" transform="translate(132.91 938.23) rotate(-45)"/><rect class="cls-4" x="1192.13" y="316.03" width="3.59" height="3.59" transform="translate(124.95 937.31) rotate(-45)"/><line class="cls-4" x1="1482.64" y1="283.91" x2="1258.72" y2="283.91"/><path class="cls-6" d="M1267,291.85a26.19,26.19,0,1,1,37.2,13.94"/><path class="cls-8" d="M1244.7,272.24a16.08,16.08,0,1,1,16.07,16.08A16.06,16.06,0,0,1,1244.7,272.24Z"/><path class="cls-8" d="M1237.52,288.32a16.08,16.08,0,1,1,16.07,16.08A16.07,16.07,0,0,1,1237.52,288.32Z"/><path class="cls-8" d="M1338.87,309.58a10.32,10.32,0,1,1,10.32,10.32A10.32,10.32,0,0,1,1338.87,309.58Z"/><path class="cls-8" d="M1281,310.64a10.57,10.57,0,1,1,10.56,10.56A10.56,10.56,0,0,1,1281,310.64Z"/><circle class="cls-8" cx="1327.88" cy="333.95" r="5.28" transform="translate(152.79 1036.76) rotate(-45)"/><path class="cls-4" d="M1345.6,309.58a3.59,3.59,0,1,1,3.59,3.59A3.59,3.59,0,0,1,1345.6,309.58Z"/><path class="cls-4" d="M1331.2,296.86a2,2,0,1,1,2,2A2,2,0,0,1,1331.2,296.86Z"/><path class="cls-4" d="M1325.92,288.32a2,2,0,1,1,2,2A2,2,0,0,1,1325.92,288.32Z"/><circle class="cls-7" cx="1264.36" cy="277.63" r="10.77" transform="translate(174.01 975.36) rotate(-45)"/><path class="cls-4" d="M1260.77,277.63a3.59,3.59,0,1,1,3.59,3.59A3.59,3.59,0,0,1,1260.77,277.63Z"/><rect class="cls-4" x="1291.6" y="338.17" width="18.56" height="4.88"/><rect class="cls-4" x="1454.09" y="310.42" width="18.56" height="4.88"/><rect class="cls-4" x="1279.19" y="346.81" width="3.59" height="3.59"/><rect class="cls-4" x="1219.7" y="300.81" width="3.59" height="3.59"/><rect class="cls-4" x="1217.91" y="297.22" width="3.59" height="3.59"/><line class="cls-6" x1="1258.27" y1="325.6" x2="1374.04" y2="325.6"/><line class="cls-6" x1="1186.81" y1="277.63" x2="1407.25" y2="277.63"/><rect class="cls-4" x="1330.57" y="316.1" width="3.59" height="3.59"/><rect class="cls-4" x="1352.5" y="304.06" width="3.59" height="3.59"/><rect class="cls-4" x="1349.96" y="332.15" width="3.59" height="3.59"/><rect class="cls-4" x="1342.18" y="309.45" width="3.59" height="3.59"/><rect class="cls-4" x="1357.79" y="262.37" width="3.59" height="3.59" transform="translate(211.42 1038.75) rotate(-45)"/><rect class="cls-8" x="1248.61" y="261.73" width="12.16" height="19.48"/><path class="cls-4" d="M1644.59,240.7a49.81,49.81,0,1,0-12.91,74.46"/><path class="cls-8" d="M1604.19,254.22a26,26,0,1,0-9,35.69A26,26,0,0,0,1604.19,254.22Z"/><line class="cls-4" x1="1634.47" y1="271.69" x2="1610.1" y2="230.84"/><path class="cls-4" d="M1606.88,245.7a2,2,0,1,0-.68,2.69A2,2,0,0,0,1606.88,245.7Z"/><path class="cls-4" d="M1609.94,226.75a2,2,0,1,0-.68,2.69A2,2,0,0,0,1609.94,226.75Z"/><path class="cls-4" d="M1579,245.24a10.77,10.77,0,1,0-3.73,14.76A10.76,10.76,0,0,0,1579,245.24Z"/><path class="cls-4" d="M1572.81,248.92a3.59,3.59,0,1,0-1.25,4.92A3.6,3.6,0,0,0,1572.81,248.92Z"/><path class="cls-4" d="M1594.88,253.51a3,3,0,1,0-1.05,4.15A3,3,0,0,0,1594.88,253.51Z"/><line class="cls-4" x1="1591.5" y1="258.18" x2="1593.07" y2="251.95"/><rect class="cls-4" x="1608.34" y="249.68" width="7.46" height="1.96" transform="translate(99.26 861.41) rotate(-30.82)"/><rect class="cls-4" x="1612.99" y="236.9" width="3.59" height="3.59" transform="translate(105.89 861.38) rotate(-30.83)"/><path class="cls-8" d="M1566,269.92a16.08,16.08,0,1,0,16.08-16.07A16.08,16.08,0,0,0,1566,269.92Z"/><rect class="cls-4" x="1548.18" y="193.81" width="3.59" height="3.59"/><rect class="cls-4" x="1546.38" y="197.4" width="3.59" height="3.59"/><line class="cls-6" x1="1037.23" y1="333.33" x2="1257.67" y2="333.33"/><line class="cls-6" x1="1401.63" y1="333.95" x2="1622.07" y2="333.95"/><rect class="cls-4" x="1208.22" y="318.08" width="3.59" height="3.59" transform="translate(128.22 949.3) rotate(-45)"/><rect class="cls-4" x="1569.76" y="293.35" width="3.59" height="3.59" transform="translate(251.59 1197.69) rotate(-45)"/><rect class="cls-4" x="1550.61" y="288.27" width="3.59" height="3.59" transform="translate(249.57 1182.67) rotate(-45)"/><rect class="cls-4" x="1524.07" y="316.11" width="3.59" height="3.59"/><path class="cls-8" d="M1504.94,285.44a10.33,10.33,0,1,1-10.32,10.32A10.32,10.32,0,0,1,1504.94,285.44Z"/><line class="cls-6" x1="1536.9" y1="133.38" x2="1536.9" y2="353.82"/><rect class="cls-4" x="1506.87" y="299.08" width="3.59" height="3.59"/><rect class="cls-4" x="1548.56" y="304.37" width="3.59" height="3.59" transform="translate(237.61 1185.95) rotate(-45)"/><path class="cls-4" d="M1005.52,311.8a2,2,0,1,1-2-2A2,2,0,0,1,1005.52,311.8Z"/><path class="cls-4" d="M998,316.15a2,2,0,1,1-2-2A2,2,0,0,1,998,316.15Z"/><rect class="cls-4" x="943.69" y="306.73" width="3.59" height="3.59" transform="translate(58.76 758.92) rotate(-45)"/><rect class="cls-4" x="938.61" y="325.87" width="3.59" height="3.59" transform="translate(43.74 760.93) rotate(-45)"/><rect class="cls-4" x="954.71" y="327.92" width="3.59" height="3.59" transform="translate(47.01 772.92) rotate(-45)"/><path class="cls-8" d="M1665,242.71a10.32,10.32,0,1,0,12.54-7.48A10.34,10.34,0,0,0,1665,242.71Z"/><path class="cls-8" d="M1676.81,336a10.32,10.32,0,1,0,12.53-7.48A10.32,10.32,0,0,0,1676.81,336Z"/><path class="cls-4" d="M1604.83,276.69a2,2,0,1,1,0,2.77A1.95,1.95,0,0,1,1604.83,276.69Z"/><path class="cls-4" d="M1620.34,271.88a2,2,0,1,1,0,2.78A2,2,0,0,1,1620.34,271.88Z"/><rect class="cls-4" x="1650.24" y="312.58" width="3.59" height="3.59"/><rect class="cls-4" x="1667.37" y="302.63" width="3.59" height="3.59"/><rect class="cls-4" x="1657.44" y="289.8" width="3.59" height="3.59"/><path class="cls-4" d="M1482.13,202.28a2,2,0,1,1-2-2A2,2,0,0,1,1482.13,202.28Z"/><path class="cls-4" d="M1474.56,216.64a2,2,0,1,1-2-2A2,2,0,0,1,1474.56,216.64Z"/><rect class="cls-4" x="1420.3" y="207.22" width="3.59" height="3.59" transform="translate(268.73 1066.79) rotate(-45)"/><rect class="cls-4" x="1415.22" y="226.37" width="3.59" height="3.59" transform="translate(253.7 1068.81) rotate(-45)"/><circle class="cls-9" cx="988.91" cy="280.89" r="71.23"/><path class="cls-4" d="M1017.62,284.47c-.92.33-1.84.64-2.78.94"/><path class="cls-10" d="M1009.38,347a75.19,75.19,0,0,1-77.94-28.74"/><path class="cls-4" d="M929.81,315.9c-.55-.81-1.08-1.63-1.59-2.47"/><line class="cls-6" x1="1060.44" y1="247.65" x2="1010.95" y2="297.13"/><line class="cls-4" x1="994.71" y1="286.68" x2="918.14" y2="289.2"/><line class="cls-6" x1="995.21" y1="352.67" x2="963.98" y2="321.44"/><line class="cls-6" x1="938.29" y1="325.97" x2="970.78" y2="293.48"/><path class="cls-4" d="M1019.07,320.81a19.77,19.77,0,1,1,29.91,2.27"/><path class="cls-4" d="M1015.31,333.55a10.39,10.39,0,1,1-5.22-14.88"/><circle class="cls-8" cx="1035.51" cy="299.28" r="10.33"/><path class="cls-4" d="M1020.4,287.59a3.92,3.92,0,1,1,5.54,0A3.92,3.92,0,0,1,1020.4,287.59Z"/><circle class="cls-8" cx="1009.06" cy="288.6" r="4.1"/><circle class="cls-8" cx="996.85" cy="312.37" r="4.1"/><circle class="cls-8" cx="988.16" cy="268.05" r="2.14"/><path class="cls-8" d="M972.29,237.57a2.14,2.14,0,1,1,3,0A2.14,2.14,0,0,1,972.29,237.57Z"/><path class="cls-11" d="M992.31,236.19a4.28,4.28,0,1,1,6.05,0A4.28,4.28,0,0,1,992.31,236.19Z"/><path class="cls-8" d="M991.18,289.2a4.27,4.27,0,1,1,6.05,0A4.27,4.27,0,0,1,991.18,289.2Z"/><line class="cls-4" x1="1031.98" y1="319.93" x2="1018.63" y2="306.58"/><line class="cls-4" x1="975.82" y1="309.6" x2="963.98" y2="321.44"/><line class="cls-4" x1="991.94" y1="293.48" x2="1003.52" y2="281.9"/><line class="cls-4" x1="997.48" y1="266.79" x2="999.24" y2="282.15"/><path class="cls-4" d="M993.2,289.2a4.27,4.27,0,1,1,6,0A4.27,4.27,0,0,1,993.2,289.2Z"/><circle class="cls-4" cx="996.85" cy="312.37" r="1.42"/><circle class="cls-4" cx="1015.61" cy="272.23" r="1.42"/><path class="cls-4" d="M1019,323.08a1.42,1.42,0,1,1,2,0A1.42,1.42,0,0,1,1019,323.08Z"/><path class="cls-4" d="M1024.66,306.78a.78.78,0,0,1,1.1-1.1.78.78,0,1,1-1.1,1.1Z"/><path class="cls-4" d="M995.2,287.2a.78.78,0,0,1,0-1.1.77.77,0,0,1,1.1,0,.78.78,0,0,1-1.1,1.1Z"/><path class="cls-4" d="M1011.11,253.15a.78.78,0,1,1,1.1,0A.77.77,0,0,1,1011.11,253.15Z"/><path class="cls-4" d="M981,284.17a.78.78,0,1,1,1.1-1.1.78.78,0,0,1-1.1,1.1Z"/><path class="cls-4" d="M989.37,296.05a.78.78,0,0,1,0-1.1.78.78,0,1,1,1.1,1.1A.78.78,0,0,1,989.37,296.05Z"/><path class="cls-4" d="M977.41,308a.77.77,0,0,1,0-1.1.78.78,0,1,1,0,1.1Z"/><path class="cls-4" d="M1017.08,306.12a.77.77,0,0,1,0-1.1.78.78,0,0,1,1.1,1.1A.77.77,0,0,1,1017.08,306.12Z"/><path class="cls-4" d="M994.33,234.17a1.42,1.42,0,1,1,2,0A1.41,1.41,0,0,1,994.33,234.17Z"/><circle class="cls-4" cx="972.29" cy="240.59" r="1.42"/><circle class="cls-4" cx="916.38" cy="288.95" r="1.42"/><path class="cls-4" d="M1027.2,296a4.27,4.27,0,1,1,6,0A4.27,4.27,0,0,1,1027.2,296Z"/><circle class="cls-4" cx="1030.22" cy="292.98" r="1.42"/><circle class="cls-4" cx="1012.84" cy="316.91" r="1.42"/><path class="cls-4" d="M973.55,291.62a1.42,1.42,0,1,1,2-2,1.42,1.42,0,0,1-2,2Z"/><circle class="cls-4" cx="990.17" cy="148.07" r="2.14"/><path class="cls-4" d="M997,266a3.74,3.74,0,1,1,5.29,0A3.74,3.74,0,0,1,997,266Z"/><line class="cls-4" x1="1003.58" y1="263.39" x2="995.65" y2="263.39"/><path class="cls-4" d="M1028.83,302.93a1.2,1.2,0,1,1,1.7,0A1.2,1.2,0,0,1,1028.83,302.93Z"/><line class="cls-4" x1="1030.96" y1="302.08" x2="1028.41" y2="302.08"/><path class="cls-4" d="M916.78,280.28a2.14,2.14,0,1,1,3,0A2.14,2.14,0,0,1,916.78,280.28Z"/><line class="cls-4" x1="920.56" y1="278.77" x2="916.03" y2="278.77"/><rect class="cls-4" x="964.49" y="319.11" width="5.92" height="1.56" transform="translate(57.24 777.94) rotate(-45.01)"/><rect class="cls-4" x="973.63" y="290.24" width="2.96" height="0.78" transform="translate(80.09 774.62) rotate(-45)"/><rect class="cls-4" x="1024.59" y="308.88" width="2.96" height="0.78" transform="translate(81.84 816.11) rotate(-45)"/><rect class="cls-4" x="971" y="287.62" width="2.96" height="0.78" transform="translate(81.34 772.29) rotate(-45.02)"/><rect class="cls-4" x="1009.05" y="274.95" width="1.42" height="1.42" transform="translate(100.82 794.73) rotate(-45)"/><rect class="cls-4" x="1007.18" y="321.83" width="1.42" height="1.42" transform="translate(67.13 807.14) rotate(-45)"/><rect class="cls-4" x="991.77" y="266.94" width="1.42" height="1.42" transform="translate(101.42 780.17) rotate(-45)"/><rect class="cls-4" x="1033.1" y="321.04" width="1.42" height="1.42" transform="translate(75.27 825.23) rotate(-45)"/><rect class="cls-4" x="1020.49" y="308.43" width="1.42" height="1.42" transform="translate(80.49 812.62) rotate(-45)"/><rect class="cls-4" x="978.51" y="254.62" width="1.42" height="1.42" transform="translate(106.25 767.18) rotate(-45)"/><rect class="cls-4" x="947.76" y="237.72" width="1.42" height="1.42" transform="translate(109.19 740.49) rotate(-45)"/><rect class="cls-4" x="936.32" y="249.17" width="1.42" height="1.42" transform="translate(97.75 735.75) rotate(-45)"/><rect class="cls-4" x="934.81" y="248.67" width="1.42" height="1.42" transform="translate(97.66 734.54) rotate(-45)"/><rect class="cls-4" x="956.21" y="302.3" width="1.42" height="1.42" transform="translate(66 765.38) rotate(-45)"/><rect class="cls-4" x="958.99" y="292.77" width="1.42" height="1.42" transform="translate(73.56 764.55) rotate(-45)"/><rect class="cls-4" x="966.16" y="301.37" width="1.42" height="1.42" transform="translate(69.58 772.14) rotate(-45)"/><rect class="cls-4" x="957.6" y="297.18" width="1.42" height="1.42" transform="translate(70.03 764.86) rotate(-45)"/><rect class="cls-4" x="947.96" y="277.1" width="1.42" height="1.42" transform="translate(81.4 752.16) rotate(-45)"/><rect class="cls-4" x="1005.17" y="256.41" width="1.42" height="1.42"/><rect class="cls-4" x="1025.36" y="233.71" width="1.42" height="1.42"/><path class="cls-4" d="M1069.09,293.9a.78.78,0,0,1,0-1.1.78.78,0,0,1,1.1,1.1A.78.78,0,0,1,1069.09,293.9Z"/><path class="cls-4" d="M1067.19,287.74a.77.77,0,0,1,0-1.1.78.78,0,0,1,1.1,1.1A.77.77,0,0,1,1067.19,287.74Z"/><rect class="cls-4" x="1063.16" y="297.15" width="1.42" height="1.42"/><rect class="cls-4" x="1005.71" y="282.57" width="1.42" height="1.42"/><rect class="cls-4" x="995.18" y="295.81" width="1.42" height="1.42"/><rect class="cls-4" x="991.77" y="277.1" width="1.42" height="1.42"/><rect class="cls-4" x="1015.89" y="282.8" width="1.42" height="1.42" transform="translate(97.27 801.86) rotate(-45)"/><path class="cls-4" d="M907.38,308.67a.78.78,0,0,1-1.1,0,.78.78,0,1,1,1.1-1.1A.78.78,0,0,1,907.38,308.67Z"/><path class="cls-4" d="M901.23,310.57a.78.78,0,0,1-1.1-1.1.78.78,0,1,1,1.1,1.1Z"/><rect class="cls-4" x="1431.32" y="228.42" width="3.59" height="3.59" transform="translate(256.96 1080.79) rotate(-45)"/><path class="cls-8" d="M1211.51,310.36a10.32,10.32,0,1,0-3.58,14.16A10.32,10.32,0,0,0,1211.51,310.36Z"/><path class="cls-4" d="M1205.73,313.81a3.59,3.59,0,1,0-1.24,4.93A3.59,3.59,0,0,0,1205.73,313.81Z"/><path class="cls-4" d="M1230,243.81a2,2,0,1,1-2-2A2,2,0,0,1,1230,243.81Z"/><path class="cls-4" d="M1222.45,258.17a2,2,0,1,1-2-2A2,2,0,0,1,1222.45,258.17Z"/><rect class="cls-4" x="1168.19" y="248.74" width="3.59" height="3.59" transform="translate(165.52 900.68) rotate(-45)"/><rect class="cls-4" x="1163.12" y="267.89" width="3.59" height="3.59" transform="translate(150.49 902.7) rotate(-45)"/><rect class="cls-4" x="1179.21" y="269.94" width="3.59" height="3.59" transform="translate(153.76 914.69) rotate(-45)"/><path class="cls-4" d="M1740.93,335.39a2,2,0,1,1-2-2A2,2,0,0,1,1740.93,335.39Z"/><path class="cls-4" d="M1673.32,309.72a2,2,0,1,1-2-2A2,2,0,0,1,1673.32,309.72Z"/><rect class="cls-4" x="1619.06" y="310.3" width="3.59" height="3.59" transform="translate(254.06 1237.54) rotate(-45)"/><rect class="cls-4" x="1613.99" y="319.44" width="3.59" height="3.59" transform="translate(246.11 1236.62) rotate(-45)"/><rect class="cls-4" x="1630.08" y="321.49" width="3.59" height="3.59" transform="translate(249.37 1248.6) rotate(-45)"/><path class="cls-4" d="M1838.16,320.47l-2.37-1.73"/><path class="cls-12" d="M1847.15,345.13a89.25,89.25,0,0,1,18.23-150.76"/><path class="cls-4" d="M1870.49,10.56l2.68-1.16"/><rect class="cls-4" x="1788.67" y="305.92" width="3.59" height="3.59" transform="translate(306.84 1356.19) rotate(-45)"/><rect class="cls-4" x="1788.67" y="309.93" width="3.59" height="3.59" transform="translate(304 1357.36) rotate(-45)"/><path class="cls-4" d="M1718.49,324.9a2,2,0,1,1,2.77,0A1.95,1.95,0,0,1,1718.49,324.9Z"/><path class="cls-4" d="M1713.69,309.4a2,2,0,1,1,2.77,0A2,2,0,0,1,1713.69,309.4Z"/><rect class="cls-4" x="1744.43" y="258.77" width="3.59" height="3.59"/><rect class="cls-4" x="1731.6" y="268.7" width="3.59" height="3.59"/><rect class="cls-4" x="1318.82" y="152.18" width="3.59" height="3.59"/><rect class="cls-4" x="1335.95" y="142.23" width="3.59" height="3.59"/><rect class="cls-4" x="1326.02" y="129.4" width="3.59" height="3.59"/><path class="cls-4" d="M1387.07,164.51a2,2,0,1,1,2.77,0A2,2,0,0,1,1387.07,164.51Z"/><path class="cls-4" d="M1382.27,149a2,2,0,1,1,2.77,0A1.95,1.95,0,0,1,1382.27,149Z"/><path class="cls-4" d="M1426.5,128.58a2,2,0,1,1,2.77,0A1.95,1.95,0,0,1,1426.5,128.58Z"/><path class="cls-4" d="M270.05,326.5c.89-.4,1.78-.78,2.68-1.16"/><path class="cls-4" d="M282,346.25c.89-.4,1.79-.79,2.69-1.17"/><path class="cls-4" d="M487.38,302.61c.57-.79,1.15-1.58,1.74-2.36"/><path class="cls-5" d="M492.72,285.62a155.07,155.07,0,0,1,260.94,31.86"/><path class="cls-4" d="M754.88,320.15c.4.89.79,1.79,1.17,2.69"/><polyline class="cls-6" points="787.5 237.83 247.21 237.83 247.21 275.13 406.71 275.13"/><path class="cls-4" d="M490.06,305.89a3.59,3.59,0,1,1-3.59-3.59A3.59,3.59,0,0,1,490.06,305.89Z"/><circle class="cls-7" cx="204.01" cy="319.38" r="10.77" transform="translate(-169.14 385.64) rotate(-67.5)"/><path class="cls-4" d="M207.6,319.38a3.6,3.6,0,1,1-3.59-3.59A3.59,3.59,0,0,1,207.6,319.38Z"/><path class="cls-4" d="M302.4,155.06a5.39,5.39,0,1,1-5.39-5.38A5.39,5.39,0,0,1,302.4,155.06Z"/><line class="cls-4" x1="292.97" y1="151.02" x2="301.05" y2="159.1"/><path class="cls-4" d="M353.37,204.21a5.39,5.39,0,1,1-5.39-5.38A5.39,5.39,0,0,1,353.37,204.21Z"/><line class="cls-4" x1="343.95" y1="200.18" x2="352.02" y2="208.25"/><circle class="cls-4" cx="212.31" cy="200.61" r="9.42" transform="translate(-54.27 319.99) rotate(-67.5)"/><line class="cls-4" x1="205.24" y1="193.54" x2="219.38" y2="207.67"/><path class="cls-4" d="M254,234.52a9.43,9.43,0,1,1-9.42-9.42A9.43,9.43,0,0,1,254,234.52Z"/><line class="cls-4" x1="237.48" y1="227.45" x2="251.62" y2="241.59"/><rect class="cls-4" x="664.37" y="317.1" width="1.96" height="7.46"/><rect class="cls-4" x="654.42" y="317.1" width="1.96" height="7.46"/><rect class="cls-4" x="632.27" y="318.39" width="18.56" height="4.88"/><rect class="cls-4" x="660.67" y="304.76" width="1.96" height="7.46"/><rect class="cls-4" x="806.77" y="215.27" width="7.46" height="1.96"/><rect class="cls-4" x="794.43" y="218.97" width="7.46" height="1.96"/><path class="cls-4" d="M537.54,312.27a3.59,3.59,0,1,1-3.59-3.59A3.59,3.59,0,0,1,537.54,312.27Z"/><path class="cls-4" d="M631.5,297.39a2,2,0,1,1-2-2A2,2,0,0,1,631.5,297.39Z"/><path class="cls-4" d="M623.93,311.75a2,2,0,1,1-2-2A2,2,0,0,1,623.93,311.75Z"/><rect class="cls-4" x="646.08" y="297.84" width="3.59" height="3.59" transform="translate(-22.11 545.88) rotate(-45)"/><rect class="cls-4" x="569.67" y="302.33" width="3.59" height="3.59" transform="translate(-47.67 493.16) rotate(-45)"/><rect class="cls-4" x="564.6" y="321.47" width="3.59" height="3.59" transform="translate(-62.69 495.18) rotate(-45)"/><path class="cls-4" d="M366.22,342.7a2,2,0,1,1-2-2A2,2,0,0,1,366.22,342.7Z"/><path class="cls-4" d="M358.65,307a2,2,0,1,1-2-2A2,2,0,0,1,358.65,307Z"/><rect class="cls-4" x="380.8" y="343.14" width="3.59" height="3.59" transform="translate(-131.85 371.57) rotate(-45)"/><rect class="cls-4" x="304.4" y="297.6" width="3.59" height="3.59" transform="translate(-122.02 304.2) rotate(-45)"/><rect class="cls-4" x="299.32" y="306.74" width="3.59" height="3.59" transform="translate(-129.97 303.28) rotate(-45)"/><line class="cls-4" x1="589.83" y1="274.63" x2="365.91" y2="274.63"/><path class="cls-6" d="M374.21,282.57a26.18,26.18,0,1,1,37.2,13.93"/><path class="cls-8" d="M351.89,263A16.08,16.08,0,1,1,368,279,16.08,16.08,0,0,1,351.89,263Z"/><path class="cls-8" d="M344.71,279a16.08,16.08,0,1,1,16.08,16.07A16.08,16.08,0,0,1,344.71,279Z"/><path class="cls-8" d="M446.06,300.3a10.33,10.33,0,1,1,10.32,10.32A10.32,10.32,0,0,1,446.06,300.3Z"/><path class="cls-8" d="M388.18,301.35a10.56,10.56,0,1,1,10.56,10.56A10.56,10.56,0,0,1,388.18,301.35Z"/><circle class="cls-8" cx="435.07" cy="324.66" r="5.28" transform="translate(-102.14 402.73) rotate(-45)"/><path class="cls-4" d="M452.79,300.3a3.59,3.59,0,1,1,3.59,3.59A3.59,3.59,0,0,1,452.79,300.3Z"/><path class="cls-4" d="M438.39,287.58a2,2,0,1,1,2,2A2,2,0,0,1,438.39,287.58Z"/><path class="cls-4" d="M433.11,279a2,2,0,1,1,2,2A2,2,0,0,1,433.11,279Z"/><circle class="cls-7" cx="371.56" cy="268.34" r="10.77" transform="translate(-80.92 341.33) rotate(-45)"/><path class="cls-4" d="M368,268.34a3.59,3.59,0,1,1,3.58,3.59A3.58,3.58,0,0,1,368,268.34Z"/><rect class="cls-4" x="398.8" y="328.88" width="18.56" height="4.88"/><rect class="cls-4" x="561.28" y="301.14" width="18.56" height="4.88"/><rect class="cls-4" x="386.38" y="337.52" width="3.59" height="3.59"/><rect class="cls-4" x="326.9" y="291.52" width="3.59" height="3.59"/><rect class="cls-4" x="325.1" y="287.93" width="3.59" height="3.59"/><line class="cls-6" x1="365.46" y1="316.32" x2="481.23" y2="316.32"/><line class="cls-6" x1="294" y1="268.34" x2="514.44" y2="268.34"/><rect class="cls-4" x="437.76" y="306.81" width="3.59" height="3.59"/><rect class="cls-4" x="459.7" y="294.78" width="3.59" height="3.59"/><rect class="cls-4" x="457.16" y="322.87" width="3.59" height="3.59"/><rect class="cls-4" x="449.38" y="300.16" width="3.59" height="3.59"/><rect class="cls-4" x="464.99" y="253.09" width="3.59" height="3.59" transform="translate(-43.51 404.72) rotate(-45)"/><rect class="cls-8" x="355.8" y="252.45" width="12.16" height="19.48"/><path class="cls-4" d="M751.78,231.42a49.81,49.81,0,1,0-12.91,74.46"/><path class="cls-8" d="M711.39,244.94a26,26,0,1,0-9,35.69A26,26,0,0,0,711.39,244.94Z"/><line class="cls-4" x1="741.67" y1="262.4" x2="717.29" y2="221.56"/><path class="cls-4" d="M714.07,236.42a2,2,0,1,0-.68,2.68A2,2,0,0,0,714.07,236.42Z"/><path class="cls-4" d="M717.13,217.47a2,2,0,1,0-.68,2.69A2,2,0,0,0,717.13,217.47Z"/><path class="cls-4" d="M686.16,236a10.77,10.77,0,1,0-3.72,14.77A10.77,10.77,0,0,0,686.16,236Z"/><path class="cls-4" d="M680,239.63a3.59,3.59,0,1,0-1.24,4.92A3.59,3.59,0,0,0,680,239.63Z"/><path class="cls-4" d="M702.07,244.22a3,3,0,1,0-1,4.16A3,3,0,0,0,702.07,244.22Z"/><line class="cls-4" x1="698.69" y1="248.89" x2="700.26" y2="242.66"/><rect class="cls-4" x="715.54" y="240.4" width="7.46" height="1.96" transform="translate(-22.09 402.63) rotate(-30.82)"/><rect class="cls-4" x="720.18" y="227.62" width="3.59" height="3.59" transform="translate(-15.54 402.47) rotate(-30.83)"/><path class="cls-8" d="M673.18,260.64a16.08,16.08,0,1,0,16.08-16.08A16.08,16.08,0,0,0,673.18,260.64Z"/><rect class="cls-4" x="655.37" y="184.52" width="3.59" height="3.59"/><rect class="cls-4" x="653.57" y="188.11" width="3.59" height="3.59"/><line class="cls-6" x1="144.43" y1="324.05" x2="364.87" y2="324.05"/><line class="cls-6" x1="508.82" y1="324.66" x2="729.26" y2="324.66"/><rect class="cls-4" x="315.41" y="308.79" width="3.59" height="3.59" transform="translate(-126.71 315.27) rotate(-45)"/><rect class="cls-4" x="676.95" y="284.07" width="3.59" height="3.59" transform="translate(-3.34 563.67) rotate(-45)"/><rect class="cls-4" x="657.8" y="278.99" width="3.59" height="3.59" transform="translate(-5.35 548.64) rotate(-45)"/><rect class="cls-4" x="631.27" y="306.83" width="3.59" height="3.59"/><path class="cls-8" d="M612.13,276.16a10.32,10.32,0,1,1-10.32,10.32A10.33,10.33,0,0,1,612.13,276.16Z"/><line class="cls-6" x1="644.09" y1="124.1" x2="644.09" y2="344.54"/><rect class="cls-4" x="614.06" y="289.79" width="3.59" height="3.59"/><rect class="cls-4" x="655.75" y="295.08" width="3.59" height="3.59" transform="translate(-17.33 551.92) rotate(-45)"/><path class="cls-4" d="M112.71,302.51a2,2,0,1,1-2-2A2,2,0,0,1,112.71,302.51Z"/><path class="cls-4" d="M105.14,306.87a2,2,0,1,1-2-2A2,2,0,0,1,105.14,306.87Z"/><rect class="cls-4" x="50.88" y="297.44" width="3.59" height="3.59" transform="translate(-196.16 124.89) rotate(-45)"/><rect class="cls-4" x="45.8" y="316.59" width="3.59" height="3.59" transform="translate(-211.19 126.91) rotate(-45)"/><rect class="cls-4" x="61.9" y="318.64" width="3.59" height="3.59" transform="translate(-207.93 138.89) rotate(-45)"/><path class="cls-8" d="M772.18,233.43A10.32,10.32,0,1,0,784.71,226,10.31,10.31,0,0,0,772.18,233.43Z"/><path class="cls-8" d="M784,326.7a10.32,10.32,0,1,0,12.53-7.48A10.31,10.31,0,0,0,784,326.7Z"/><path class="cls-4" d="M712,267.4a2,2,0,1,1,0,2.77A2,2,0,0,1,712,267.4Z"/><path class="cls-4" d="M727.53,262.6a2,2,0,1,1,0,2.77A1.95,1.95,0,0,1,727.53,262.6Z"/><rect class="cls-4" x="757.44" y="303.29" width="3.59" height="3.59"/><rect class="cls-4" x="774.56" y="293.35" width="3.59" height="3.59"/><rect class="cls-4" x="764.63" y="280.52" width="3.59" height="3.59"/><path class="cls-4" d="M589.32,193a2,2,0,1,1-2-2A2,2,0,0,1,589.32,193Z"/><path class="cls-4" d="M581.75,207.36a2,2,0,1,1-2-2A2,2,0,0,1,581.75,207.36Z"/><rect class="cls-4" x="527.49" y="197.94" width="3.59" height="3.59" transform="translate(13.79 432.76) rotate(-45)"/><rect class="cls-4" x="522.42" y="217.08" width="3.59" height="3.59" transform="translate(-1.23 434.78) rotate(-45)"/><circle class="cls-9" cx="96.11" cy="271.61" r="71.23"/><path class="cls-4" d="M124.81,275.18c-.91.34-1.84.65-2.77.94"/><path class="cls-10" d="M116.57,337.68a75.16,75.16,0,0,1-77.94-28.75"/><path class="cls-4" d="M37,306.61q-.82-1.22-1.59-2.46"/><line class="cls-6" x1="167.63" y1="238.36" x2="118.14" y2="287.85"/><line class="cls-4" x1="101.9" y1="277.4" x2="25.34" y2="279.92"/><line class="cls-6" x1="102.4" y1="343.38" x2="71.17" y2="312.15"/><line class="cls-6" x1="45.48" y1="316.69" x2="77.97" y2="284.2"/><path class="cls-4" d="M126.27,311.52a19.76,19.76,0,1,1,29.9,2.27"/><path class="cls-4" d="M122.5,324.27a10.39,10.39,0,1,1-5.21-14.88"/><circle class="cls-8" cx="142.7" cy="289.99" r="10.33"/><path class="cls-4" d="M127.59,278.31a3.92,3.92,0,1,1,5.54,0A3.92,3.92,0,0,1,127.59,278.31Z"/><circle class="cls-8" cx="116.25" cy="279.32" r="4.1"/><circle class="cls-8" cx="104.04" cy="303.09" r="4.1"/><circle class="cls-8" cx="95.35" cy="258.76" r="2.14"/><path class="cls-8" d="M79.48,228.29a2.14,2.14,0,1,1,3,0A2.14,2.14,0,0,1,79.48,228.29Z"/><path class="cls-11" d="M99.51,226.9a4.27,4.27,0,1,1,6,0A4.27,4.27,0,0,1,99.51,226.9Z"/><path class="cls-8" d="M98.37,279.92a4.28,4.28,0,1,1,6,0A4.28,4.28,0,0,1,98.37,279.92Z"/><line class="cls-4" x1="139.17" y1="310.64" x2="125.82" y2="297.3"/><line class="cls-4" x1="83.01" y1="300.32" x2="71.17" y2="312.15"/><line class="cls-4" x1="99.13" y1="284.2" x2="110.71" y2="272.61"/><line class="cls-4" x1="104.67" y1="257.5" x2="106.43" y2="272.87"/><path class="cls-4" d="M100.39,279.92a4.27,4.27,0,1,1,6,0A4.28,4.28,0,0,1,100.39,279.92Z"/><circle class="cls-4" cx="104.04" cy="303.09" r="1.42"/><circle class="cls-4" cx="122.8" cy="262.95" r="1.42"/><path class="cls-4" d="M126.2,313.79a1.42,1.42,0,1,1,2,0A1.43,1.43,0,0,1,126.2,313.79Z"/><path class="cls-4" d="M131.85,297.5a.78.78,0,0,1,0-1.1.78.78,0,0,1,1.1,1.1A.78.78,0,0,1,131.85,297.5Z"/><path class="cls-4" d="M102.39,277.91a.78.78,0,0,1,1.1-1.1.78.78,0,0,1-1.1,1.1Z"/><path class="cls-4" d="M118.3,243.87a.78.78,0,1,1,1.1-1.1.77.77,0,0,1,0,1.1A.78.78,0,0,1,118.3,243.87Z"/><path class="cls-4" d="M88.21,274.88a.78.78,0,1,1,1.1-1.1.78.78,0,0,1-1.1,1.1Z"/><path class="cls-4" d="M96.56,286.76a.78.78,0,0,1,1.1-1.1.78.78,0,1,1-1.1,1.1Z"/><path class="cls-4" d="M84.6,298.73a.78.78,0,0,1,0-1.1.78.78,0,1,1,1.1,1.1A.78.78,0,0,1,84.6,298.73Z"/><path class="cls-4" d="M124.27,296.84a.78.78,0,1,1,1.1-1.1.78.78,0,0,1-1.1,1.1Z"/><path class="cls-4" d="M101.52,224.89a1.42,1.42,0,0,1,0-2,1.43,1.43,0,1,1,0,2Z"/><circle class="cls-4" cx="79.48" cy="231.31" r="1.42"/><circle class="cls-4" cx="23.57" cy="279.67" r="1.42"/><path class="cls-4" d="M134.39,286.72a4.27,4.27,0,1,1,6,0A4.28,4.28,0,0,1,134.39,286.72Z"/><circle class="cls-4" cx="137.41" cy="283.7" r="1.42"/><circle class="cls-4" cx="120.03" cy="307.62" r="1.42"/><path class="cls-4" d="M80.74,282.34a1.43,1.43,0,1,1,2,0A1.42,1.42,0,0,1,80.74,282.34Z"/><circle class="cls-4" cx="97.37" cy="138.78" r="2.14"/><path class="cls-4" d="M104.17,256.75a3.74,3.74,0,1,1,5.28,0A3.74,3.74,0,0,1,104.17,256.75Z"/><line class="cls-4" x1="110.78" y1="254.1" x2="102.84" y2="254.1"/><path class="cls-4" d="M136,293.64a1.21,1.21,0,1,1,1.71,0A1.22,1.22,0,0,1,136,293.64Z"/><line class="cls-4" x1="138.15" y1="292.79" x2="135.6" y2="292.79"/><path class="cls-4" d="M24,271a2.14,2.14,0,1,1,3,0A2.14,2.14,0,0,1,24,271Z"/><line class="cls-4" x1="27.75" y1="269.49" x2="23.22" y2="269.49"/><rect class="cls-4" x="71.69" y="309.82" width="5.92" height="1.56" transform="translate(-197.79 143.8) rotate(-45.01)"/><rect class="cls-4" x="80.82" y="280.96" width="2.96" height="0.78" transform="translate(-174.84 140.6) rotate(-45)"/><rect class="cls-4" x="131.78" y="299.59" width="2.96" height="0.78" transform="translate(-173.09 182.09) rotate(-45)"/><rect class="cls-4" x="78.19" y="278.33" width="2.96" height="0.78" transform="translate(-173.79 138.05) rotate(-45.02)"/><rect class="cls-4" x="116.24" y="265.66" width="1.42" height="1.42" transform="translate(-154.1 160.71) rotate(-45)"/><rect class="cls-4" x="114.38" y="312.54" width="1.42" height="1.42" transform="translate(-187.79 173.12) rotate(-45)"/><rect class="cls-4" x="98.96" y="257.66" width="1.42" height="1.42" transform="translate(-153.5 146.15) rotate(-45)"/><rect class="cls-4" x="140.29" y="311.76" width="1.42" height="1.42" transform="translate(-179.65 191.22) rotate(-45)"/><rect class="cls-4" x="127.68" y="299.15" width="1.42" height="1.42" transform="translate(-174.43 178.61) rotate(-45)"/><rect class="cls-4" x="85.7" y="245.33" width="1.42" height="1.42" transform="translate(-148.67 133.16) rotate(-45)"/><rect class="cls-4" x="54.96" y="228.44" width="1.42" height="1.42" transform="translate(-145.73 106.48) rotate(-45)"/><rect class="cls-4" x="43.51" y="239.88" width="1.42" height="1.42" transform="translate(-157.17 101.74) rotate(-45)"/><rect class="cls-4" x="42" y="239.38" width="1.42" height="1.42" transform="translate(-157.26 100.52) rotate(-45)"/><rect class="cls-4" x="63.4" y="293.02" width="1.42" height="1.42" transform="translate(-188.92 131.36) rotate(-45)"/><rect class="cls-4" x="66.18" y="283.49" width="1.42" height="1.42" transform="translate(-181.36 130.53) rotate(-45)"/><rect class="cls-4" x="73.35" y="292.08" width="1.42" height="1.42" transform="translate(-185.34 138.12) rotate(-45)"/><rect class="cls-4" x="64.79" y="287.89" width="1.42" height="1.42" transform="translate(-184.89 130.85) rotate(-45)"/><rect class="cls-4" x="55.15" y="267.82" width="1.42" height="1.42" transform="translate(-173.52 118.14) rotate(-45)"/><rect class="cls-4" x="112.36" y="247.12" width="1.42" height="1.42"/><rect class="cls-4" x="132.55" y="224.42" width="1.42" height="1.42"/><path class="cls-4" d="M176.29,284.61a.77.77,0,0,1,0-1.1.78.78,0,0,1,1.1,1.1A.77.77,0,0,1,176.29,284.61Z"/><path class="cls-4" d="M174.38,278.46a.78.78,0,0,1,0-1.1.77.77,0,0,1,1.1,0,.78.78,0,0,1-1.1,1.1Z"/><rect class="cls-4" x="170.35" y="287.86" width="1.42" height="1.42"/><rect class="cls-4" x="112.9" y="273.29" width="1.42" height="1.42"/><rect class="cls-4" x="102.37" y="286.52" width="1.42" height="1.42"/><rect class="cls-4" x="98.96" y="267.82" width="1.42" height="1.42"/><rect class="cls-4" x="123.08" y="273.51" width="1.42" height="1.42" transform="translate(-157.64 167.85) rotate(-45)"/><path class="cls-4" d="M14.57,299.38a.77.77,0,0,1-1.1,0,.78.78,0,1,1,1.1-1.1A.77.77,0,0,1,14.57,299.38Z"/><path class="cls-4" d="M8.42,301.29a.78.78,0,0,1-1.1,0,.78.78,0,0,1,1.1-1.1A.78.78,0,0,1,8.42,301.29Z"/><rect class="cls-4" x="538.51" y="219.13" width="3.59" height="3.59" transform="translate(2.03 446.76) rotate(-45)"/><path class="cls-8" d="M318.7,301.08a10.32,10.32,0,1,0-3.57,14.15A10.31,10.31,0,0,0,318.7,301.08Z"/><path class="cls-4" d="M312.92,304.53a3.59,3.59,0,1,0-1.24,4.92A3.59,3.59,0,0,0,312.92,304.53Z"/><path class="cls-4" d="M337.21,234.52a2,2,0,1,1-2-2A2,2,0,0,1,337.21,234.52Z"/><path class="cls-4" d="M329.64,248.88a2,2,0,1,1-2-2A2,2,0,0,1,329.64,248.88Z"/><rect class="cls-4" x="275.39" y="239.46" width="3.59" height="3.59" transform="translate(-89.41 266.66) rotate(-45)"/><rect class="cls-4" x="270.31" y="258.61" width="3.59" height="3.59" transform="translate(-104.43 268.67) rotate(-45)"/><rect class="cls-4" x="286.4" y="260.66" width="3.59" height="3.59" transform="translate(-101.17 280.66) rotate(-45)"/><path class="cls-4" d="M848.12,326.1a2,2,0,1,1-2-2A2,2,0,0,1,848.12,326.1Z"/><path class="cls-4" d="M780.51,300.44a2,2,0,1,1-2-2A2,2,0,0,1,780.51,300.44Z"/><rect class="cls-4" x="726.26" y="301.02" width="3.59" height="3.59" transform="translate(-0.88 603.5) rotate(-45)"/><rect class="cls-4" x="721.18" y="310.16" width="3.59" height="3.59" transform="translate(-8.83 602.59) rotate(-45)"/><rect class="cls-4" x="737.27" y="312.21" width="3.59" height="3.59" transform="translate(-5.57 614.57) rotate(-45)"/><path class="cls-4" d="M945.35,311.19c-.79-.57-1.58-1.15-2.36-1.74"/><path class="cls-12" d="M954.34,335.84a89.24,89.24,0,0,1,18.24-150.76"/><path class="cls-4" d="M977.68,1.28c.89-.4,1.79-.78,2.69-1.16"/><rect class="cls-4" x="895.87" y="296.63" width="3.59" height="3.59" transform="translate(51.9 722.15) rotate(-45)"/><rect class="cls-4" x="895.87" y="300.65" width="3.59" height="3.59" transform="translate(49.06 723.33) rotate(-45)"/><path class="cls-4" d="M825.68,315.62a2,2,0,1,1,2.77,0A2,2,0,0,1,825.68,315.62Z"/><path class="cls-4" d="M820.88,300.11a2,2,0,1,1,2.77,0A1.95,1.95,0,0,1,820.88,300.11Z"/><rect class="cls-4" x="851.63" y="249.49" width="3.59" height="3.59"/><rect class="cls-4" x="838.8" y="259.42" width="3.59" height="3.59"/><rect class="cls-4" x="426.02" y="142.9" width="3.59" height="3.59"/><rect class="cls-4" x="443.15" y="132.95" width="3.59" height="3.59"/><rect class="cls-4" x="433.22" y="120.12" width="3.59" height="3.59"/><path class="cls-4" d="M494.26,155.22a2,2,0,1,1,2.77,0A2,2,0,0,1,494.26,155.22Z"/><path class="cls-4" d="M489.46,139.71a2,2,0,1,1,2.77,0A2,2,0,0,1,489.46,139.71Z"/><path class="cls-4" d="M533.69,119.3a2,2,0,1,1,2.77,0A2,2,0,0,1,533.69,119.3Z"/></g><rect class="cls-13" x="962.32" y="289.66" width="7.38" height="7.39"/><rect class="cls-14" x="971.55" y="289.66" width="7.39" height="7.39"/><rect class="cls-13" x="962.32" y="298.89" width="7.38" height="7.38"/><rect class="cls-14" x="971.55" y="298.89" width="7.39" height="7.38"/><rect class="cls-15" x="980.78" y="298.89" width="7.38" height="7.38"/><rect class="cls-13" x="962.32" y="308.12" width="7.38" height="7.38"/><rect class="cls-14" x="971.55" y="308.12" width="7.39" height="7.38"/><rect class="cls-15" x="980.78" y="308.12" width="7.38" height="7.38"/><rect class="cls-13" x="962.32" y="317.36" width="7.38" height="7.38"/><rect class="cls-14" x="971.55" y="317.36" width="7.39" height="7.38"/><rect class="cls-15" x="980.78" y="317.36" width="7.38" height="7.38"/><rect class="cls-16" x="990.01" y="317.36" width="7.38" height="7.38"/><rect class="cls-13" x="962.32" y="326.59" width="7.38" height="7.38"/><rect class="cls-14" x="971.55" y="326.59" width="7.39" height="7.38"/><rect class="cls-15" x="980.78" y="326.59" width="7.38" height="7.38"/><rect class="cls-16" x="990.01" y="326.59" width="7.38" height="7.38"/><rect class="cls-13" x="962.32" y="335.82" width="7.38" height="7.38"/><rect class="cls-14" x="971.55" y="335.82" width="7.39" height="7.38"/><rect class="cls-15" x="980.78" y="335.82" width="7.38" height="7.38"/><path class="cls-17" d="M941.49,301.83a10.62,10.62,0,0,0-3.16-.53,10.39,10.39,0,0,0-9.94,13.79,15.14,15.14,0,0,0,7.6,28.26h24.54V289.61A21,21,0,0,0,941.49,301.83Zm-3.19,30a6.79,6.79,0,0,0,3.2-.75l.32,2.23a9.45,9.45,0,0,1-4.29,1c-3.31,0-6.22-2-6.22-6.61s3.29-6.78,6.92-6.78a8.17,8.17,0,0,1,3.85.87l-.35,2.29a7.86,7.86,0,0,0-3.5-.72c-2.25,0-3.64,1.69-3.64,4.24C934.59,330,935.81,331.83,938.3,331.83Zm8.87,2.44a7.48,7.48,0,0,1-3.59-.91l.5-2.23a8.22,8.22,0,0,0,3.28.7c1.43,0,2.06-.65,2.06-1.36s-.46-1.24-2.22-2-3.13-1.62-3.13-3.69,1.93-3.91,4.72-3.91a7.57,7.57,0,0,1,3.41.75l-.5,2.15a8.14,8.14,0,0,0-2.61-.46c-.91,0-1.82.46-1.82,1.17s.42,1.25,2,1.85c2.11.82,3.4,1.81,3.4,3.69C952.62,332.7,950.3,334.27,947.17,334.27Z"/></g></g></svg>