<svg xmlns="http://www.w3.org/2000/svg" viewBox="0 0 1866.43 357.23"><defs><style>.cls-1,.cls-2,.cls-3,.cls-4,.cls-5,.cls-6,.cls-7,.cls-8,.cls-9{fill:none;stroke:#1ed6b3;stroke-miterlimit:10;stroke-width:0.5px;}.cls-2{stroke-dasharray:4.16 4.16;}.cls-3{stroke-dasharray:4.16 4.16;}.cls-4{stroke-dasharray:2.4 2.4;}.cls-5{stroke-dasharray:2.5 2.5;}.cls-6{stroke-dasharray:4.18 4.18;}.cls-7{stroke-dasharray:4.03 4.03;}.cls-8{stroke-dasharray:2.38 2.38;}.cls-9{stroke-dasharray:4.22 4.22;}</style></defs><title>footer_pattern</title><g id="Layer_2" data-name="Layer 2"><g id="Layer_1-2" data-name="Layer 1"><path class="cls-1" d="M1156,335.9c.9-.4,1.79-.78,2.69-1.16"/><path class="cls-1" d="M1168,355.65c.89-.4,1.79-.79,2.69-1.17"/><path class="cls-1" d="M1373.35,312c.57-.8,1.15-1.58,1.74-2.36"/><path class="cls-2" d="M1378.69,295a155.07,155.07,0,0,1,260.94,31.86"/><path class="cls-1" d="M1640.85,329.55c.4.89.79,1.79,1.17,2.69"/><polyline class="cls-3" points="1673.47 247.23 1133.18 247.23 1133.18 284.53 1292.68 284.53"/><path class="cls-1" d="M1376,315.29a3.59,3.59,0,1,1-3.59-3.59A3.59,3.59,0,0,1,1376,315.29Z"/><circle class="cls-4" cx="1089.97" cy="328.78" r="10.77" transform="translate(369.1 1209.97) rotate(-67.5)"/><path class="cls-1" d="M1093.56,328.78a3.59,3.59,0,1,1-3.59-3.59A3.59,3.59,0,0,1,1093.56,328.78Z"/><path class="cls-1" d="M1188.36,164.46a5.39,5.39,0,1,1-5.38-5.38A5.38,5.38,0,0,1,1188.36,164.46Z"/><line class="cls-1" x1="1178.94" y1="160.42" x2="1187.02" y2="168.5"/><path class="cls-1" d="M1239.34,213.61a5.39,5.39,0,1,1-5.39-5.38A5.39,5.39,0,0,1,1239.34,213.61Z"/><line class="cls-1" x1="1229.91" y1="209.58" x2="1237.99" y2="217.65"/><circle class="cls-1" cx="1098.28" cy="210.01" r="9.42" transform="translate(483.96 1144.32) rotate(-67.5)"/><line class="cls-1" x1="1091.21" y1="202.94" x2="1105.35" y2="217.07"/><path class="cls-1" d="M1139.94,243.92a9.43,9.43,0,1,1-9.42-9.42A9.43,9.43,0,0,1,1139.94,243.92Z"/><line class="cls-1" x1="1123.45" y1="236.85" x2="1137.58" y2="250.99"/><rect class="cls-1" x="1550.34" y="326.5" width="1.96" height="7.46"/><rect class="cls-1" x="1540.39" y="326.5" width="1.96" height="7.46"/><rect class="cls-1" x="1518.24" y="327.79" width="18.56" height="4.88"/><rect class="cls-1" x="1546.64" y="314.16" width="1.96" height="7.46"/><rect class="cls-1" x="1692.74" y="224.67" width="7.46" height="1.96"/><rect class="cls-1" x="1680.4" y="228.37" width="7.46" height="1.96"/><path class="cls-1" d="M1423.51,321.67a3.59,3.59,0,1,1-3.59-3.59A3.59,3.59,0,0,1,1423.51,321.67Z"/><path class="cls-1" d="M1517.47,306.79a2,2,0,1,1-2-2A2,2,0,0,1,1517.47,306.79Z"/><path class="cls-1" d="M1509.9,321.15a2,2,0,1,1-2-2A2,2,0,0,1,1509.9,321.15Z"/><rect class="cls-1" x="1532.05" y="307.24" width="3.59" height="3.59" transform="translate(230.73 1175.11) rotate(-45)"/><rect class="cls-1" x="1455.64" y="311.73" width="3.59" height="3.59" transform="translate(205.18 1122.39) rotate(-45)"/><rect class="cls-1" x="1450.56" y="330.87" width="3.59" height="3.59" transform="translate(190.15 1124.41) rotate(-45)"/><path class="cls-1" d="M1252.19,352.1a2,2,0,1,1-2-2A2,2,0,0,1,1252.19,352.1Z"/><path class="cls-1" d="M1244.62,316.42a2,2,0,1,1-2-2A2,2,0,0,1,1244.62,316.42Z"/><rect class="cls-1" x="1266.77" y="352.54" width="3.59" height="3.59" transform="translate(121 1000.8) rotate(-45)"/><rect class="cls-1" x="1190.36" y="307" width="3.59" height="3.59" transform="translate(130.82 933.43) rotate(-45)"/><rect class="cls-1" x="1185.29" y="316.14" width="3.59" height="3.59" transform="translate(122.87 932.51) rotate(-45)"/><line class="cls-1" x1="1475.8" y1="284.03" x2="1251.88" y2="284.03"/><path class="cls-3" d="M1260.18,292a26.18,26.18,0,1,1,37.2,13.93"/><path class="cls-5" d="M1237.86,272.36a16.08,16.08,0,1,1,16.07,16.08A16.07,16.07,0,0,1,1237.86,272.36Z"/><path class="cls-5" d="M1230.68,288.44a16.08,16.08,0,1,1,16.07,16.07A16.07,16.07,0,0,1,1230.68,288.44Z"/><path class="cls-5" d="M1332,309.7A10.32,10.32,0,1,1,1342.35,320,10.32,10.32,0,0,1,1332,309.7Z"/><path class="cls-5" d="M1274.14,310.75a10.57,10.57,0,1,1,10.56,10.56A10.56,10.56,0,0,1,1274.14,310.75Z"/><circle class="cls-5" cx="1321.04" cy="334.06" r="5.28" transform="translate(150.71 1031.96) rotate(-45)"/><path class="cls-1" d="M1338.76,309.7a3.59,3.59,0,1,1,3.59,3.59A3.59,3.59,0,0,1,1338.76,309.7Z"/><path class="cls-1" d="M1324.36,297a2,2,0,1,1,2,2A2,2,0,0,1,1324.36,297Z"/><path class="cls-1" d="M1319.08,288.44a2,2,0,1,1,2,2A2,2,0,0,1,1319.08,288.44Z"/><circle class="cls-4" cx="1257.52" cy="277.74" r="10.77" transform="translate(171.93 970.55) rotate(-45)"/><path class="cls-1" d="M1253.93,277.74a3.59,3.59,0,1,1,3.59,3.59A3.59,3.59,0,0,1,1253.93,277.74Z"/><rect class="cls-1" x="1284.77" y="338.28" width="18.56" height="4.88"/><rect class="cls-1" x="1447.25" y="310.54" width="18.56" height="4.88"/><rect class="cls-1" x="1272.35" y="346.92" width="3.59" height="3.59"/><rect class="cls-1" x="1212.86" y="300.92" width="3.59" height="3.59"/><rect class="cls-1" x="1211.07" y="297.33" width="3.59" height="3.59"/><line class="cls-3" x1="1251.43" y1="325.72" x2="1367.2" y2="325.72"/><line class="cls-3" x1="1179.97" y1="277.74" x2="1400.41" y2="277.74"/><rect class="cls-1" x="1323.73" y="316.21" width="3.59" height="3.59"/><rect class="cls-1" x="1345.66" y="304.18" width="3.59" height="3.59"/><rect class="cls-1" x="1343.13" y="332.27" width="3.59" height="3.59"/><rect class="cls-1" x="1335.34" y="309.56" width="3.59" height="3.59"/><rect class="cls-1" x="1350.96" y="262.49" width="3.59" height="3.59" transform="translate(209.34 1033.95) rotate(-45)"/><rect class="cls-5" x="1241.77" y="261.85" width="12.16" height="19.48"/><path class="cls-1" d="M1637.75,240.82a49.81,49.81,0,1,0-12.91,74.46"/><path class="cls-5" d="M1597.35,254.34a26,26,0,1,0-9,35.69A26,26,0,0,0,1597.35,254.34Z"/><line class="cls-1" x1="1627.63" y1="271.8" x2="1603.26" y2="230.96"/><path class="cls-1" d="M1600,245.81a2,2,0,1,0-.68,2.69A2,2,0,0,0,1600,245.81Z"/><path class="cls-1" d="M1603.1,226.87a2,2,0,1,0-.68,2.69A2,2,0,0,0,1603.1,226.87Z"/><path class="cls-1" d="M1572.13,245.35a10.77,10.77,0,1,0-3.73,14.77A10.76,10.76,0,0,0,1572.13,245.35Z"/><path class="cls-1" d="M1566,249a3.59,3.59,0,1,0-1.25,4.92A3.59,3.59,0,0,0,1566,249Z"/><path class="cls-1" d="M1588,253.62a3,3,0,1,0-1,4.16A3,3,0,0,0,1588,253.62Z"/><line class="cls-1" x1="1584.66" y1="258.29" x2="1586.23" y2="252.06"/><rect class="cls-1" x="1601.5" y="249.8" width="7.46" height="1.96" transform="translate(98.23 857.92) rotate(-30.82)"/><rect class="cls-1" x="1606.15" y="237.02" width="3.59" height="3.59" transform="translate(104.86 857.89) rotate(-30.83)"/><path class="cls-5" d="M1559.15,270A16.08,16.08,0,1,0,1575.23,254,16.08,16.08,0,0,0,1559.15,270Z"/><rect class="cls-1" x="1541.34" y="193.92" width="3.59" height="3.59"/><rect class="cls-1" x="1539.54" y="197.51" width="3.59" height="3.59"/><line class="cls-3" x1="1030.39" y1="333.45" x2="1250.83" y2="333.45"/><line class="cls-3" x1="1394.79" y1="334.06" x2="1615.23" y2="334.06"/><rect class="cls-1" x="1201.38" y="318.19" width="3.59" height="3.59" transform="translate(126.14 944.5) rotate(-45)"/><rect class="cls-1" x="1562.92" y="293.46" width="3.59" height="3.59" transform="translate(249.51 1192.89) rotate(-45)"/><rect class="cls-1" x="1543.77" y="288.39" width="3.59" height="3.59" transform="translate(247.49 1177.86) rotate(-45)"/><rect class="cls-1" x="1517.23" y="316.22" width="3.59" height="3.59"/><path class="cls-5" d="M1498.1,285.56a10.32,10.32,0,1,1-10.32,10.32A10.32,10.32,0,0,1,1498.1,285.56Z"/><line class="cls-3" x1="1530.06" y1="133.5" x2="1530.06" y2="353.94"/><rect class="cls-1" x="1500.03" y="299.19" width="3.59" height="3.59"/><rect class="cls-1" x="1541.72" y="304.48" width="3.59" height="3.59" transform="translate(235.52 1181.15) rotate(-45)"/><path class="cls-1" d="M998.68,311.91a2,2,0,1,1-2-2A2,2,0,0,1,998.68,311.91Z"/><path class="cls-1" d="M991.11,316.27a2,2,0,1,1-2-2A2,2,0,0,1,991.11,316.27Z"/><rect class="cls-1" x="936.85" y="306.84" width="3.59" height="3.59" transform="translate(56.68 754.11) rotate(-45)"/><rect class="cls-1" x="931.77" y="325.99" width="3.59" height="3.59" transform="translate(41.65 756.13) rotate(-45)"/><rect class="cls-1" x="947.87" y="328.04" width="3.59" height="3.59" transform="translate(44.92 768.12) rotate(-45)"/><path class="cls-5" d="M1658.14,242.83a10.32,10.32,0,1,0,12.54-7.48A10.33,10.33,0,0,0,1658.14,242.83Z"/><path class="cls-5" d="M1670,336.1a10.32,10.32,0,1,0,12.53-7.48A10.31,10.31,0,0,0,1670,336.1Z"/><path class="cls-1" d="M1598,276.8a2,2,0,1,1,0,2.77A2,2,0,0,1,1598,276.8Z"/><path class="cls-1" d="M1613.5,272a2,2,0,1,1,0,2.77A1.95,1.95,0,0,1,1613.5,272Z"/><rect class="cls-1" x="1643.4" y="312.69" width="3.59" height="3.59"/><rect class="cls-1" x="1660.53" y="302.75" width="3.59" height="3.59"/><rect class="cls-1" x="1650.6" y="289.92" width="3.59" height="3.59"/><path class="cls-1" d="M1475.29,202.4a2,2,0,1,1-2-2A2,2,0,0,1,1475.29,202.4Z"/><path class="cls-1" d="M1467.72,216.76a2,2,0,1,1-2-2A2,2,0,0,1,1467.72,216.76Z"/><rect class="cls-1" x="1413.46" y="207.34" width="3.59" height="3.59" transform="translate(266.64 1061.99) rotate(-45)"/><rect class="cls-1" x="1408.38" y="226.48" width="3.59" height="3.59" transform="translate(251.62 1064.01) rotate(-45)"/><circle class="cls-6" cx="982.07" cy="281.01" r="71.23"/><path class="cls-1" d="M1010.78,284.58c-.92.34-1.84.65-2.77.94"/><path class="cls-7" d="M1002.54,347.08a75.16,75.16,0,0,1-77.94-28.75"/><path class="cls-1" d="M923,316q-.83-1.22-1.59-2.46"/><line class="cls-3" x1="1053.6" y1="247.76" x2="1004.11" y2="297.25"/><line class="cls-1" x1="987.87" y1="286.8" x2="911.31" y2="289.32"/><line class="cls-3" x1="988.37" y1="352.78" x2="957.14" y2="321.55"/><line class="cls-3" x1="931.45" y1="326.09" x2="963.94" y2="293.6"/><path class="cls-1" d="M1012.24,320.92a19.76,19.76,0,1,1,29.9,2.27"/><path class="cls-1" d="M1008.47,333.67a10.39,10.39,0,1,1-5.22-14.88"/><circle class="cls-5" cx="1028.67" cy="299.39" r="10.33"/><path class="cls-1" d="M1013.56,287.71a3.92,3.92,0,1,1,5.54,0A3.92,3.92,0,0,1,1013.56,287.71Z"/><circle class="cls-5" cx="1002.22" cy="288.72" r="4.1"/><circle class="cls-5" cx="990.01" cy="312.49" r="4.1"/><circle class="cls-5" cx="981.32" cy="268.16" r="2.14"/><path class="cls-5" d="M965.45,237.69a2.14,2.14,0,1,1,3,0A2.14,2.14,0,0,1,965.45,237.69Z"/><path class="cls-8" d="M985.47,236.3a4.27,4.27,0,1,1,6,0A4.29,4.29,0,0,1,985.47,236.3Z"/><path class="cls-5" d="M984.34,289.32a4.28,4.28,0,1,1,6,0A4.28,4.28,0,0,1,984.34,289.32Z"/><line class="cls-1" x1="1025.14" y1="320.04" x2="1011.79" y2="306.69"/><line class="cls-1" x1="968.98" y1="309.72" x2="957.14" y2="321.55"/><line class="cls-1" x1="985.1" y1="293.6" x2="996.68" y2="282.01"/><line class="cls-1" x1="990.64" y1="266.9" x2="992.4" y2="282.26"/><path class="cls-1" d="M986.36,289.32a4.27,4.27,0,1,1,6,0A4.28,4.28,0,0,1,986.36,289.32Z"/><circle class="cls-1" cx="990.01" cy="312.49" r="1.42"/><circle class="cls-1" cx="1008.77" cy="272.35" r="1.42"/><path class="cls-1" d="M1012.17,323.19a1.42,1.42,0,0,1,2-2,1.42,1.42,0,1,1-2,2Z"/><path class="cls-1" d="M1017.82,306.9a.78.78,0,0,1,0-1.1.78.78,0,0,1,1.1,1.1A.78.78,0,0,1,1017.82,306.9Z"/><path class="cls-1" d="M988.36,287.31a.78.78,0,1,1,1.1,0A.77.77,0,0,1,988.36,287.31Z"/><path class="cls-1" d="M1004.27,253.27a.78.78,0,0,1,0-1.1.77.77,0,0,1,1.1,0,.78.78,0,0,1-1.1,1.1Z"/><path class="cls-1" d="M974.18,284.28a.77.77,0,0,1,0-1.1.78.78,0,1,1,1.1,1.1A.77.77,0,0,1,974.18,284.28Z"/><path class="cls-1" d="M982.53,296.16a.78.78,0,1,1,1.1-1.1.78.78,0,0,1-1.1,1.1Z"/><path class="cls-1" d="M970.57,308.13a.78.78,0,0,1,1.1-1.1.78.78,0,0,1-1.1,1.1Z"/><path class="cls-1" d="M1010.24,306.24a.78.78,0,1,1,1.1-1.1.78.78,0,0,1-1.1,1.1Z"/><path class="cls-1" d="M987.49,234.29a1.42,1.42,0,1,1,2,0A1.42,1.42,0,0,1,987.49,234.29Z"/><circle class="cls-1" cx="965.45" cy="240.71" r="1.42"/><circle class="cls-1" cx="909.54" cy="289.07" r="1.42"/><path class="cls-1" d="M1020.36,296.12a4.27,4.27,0,1,1,6,0A4.28,4.28,0,0,1,1020.36,296.12Z"/><circle class="cls-1" cx="1023.38" cy="293.09" r="1.42"/><circle class="cls-1" cx="1006" cy="317.02" r="1.42"/><path class="cls-1" d="M966.71,291.74a1.43,1.43,0,1,1,2,0A1.44,1.44,0,0,1,966.71,291.74Z"/><circle class="cls-1" cx="983.33" cy="148.18" r="2.14"/><path class="cls-1" d="M990.13,266.15a3.74,3.74,0,1,1,5.29,0A3.74,3.74,0,0,1,990.13,266.15Z"/><line class="cls-1" x1="996.75" y1="263.5" x2="988.81" y2="263.5"/><path class="cls-1" d="M1022,303a1.2,1.2,0,1,1,1.7,0A1.2,1.2,0,0,1,1022,303Z"/><line class="cls-1" x1="1024.12" y1="302.19" x2="1021.57" y2="302.19"/><path class="cls-1" d="M909.94,280.4a2.14,2.14,0,1,1,3,0A2.14,2.14,0,0,1,909.94,280.4Z"/><line class="cls-1" x1="913.72" y1="278.89" x2="909.19" y2="278.89"/><rect class="cls-1" x="957.65" y="319.22" width="5.92" height="1.56" transform="translate(55.16 773.13) rotate(-45.01)"/><rect class="cls-1" x="966.79" y="290.36" width="2.96" height="0.78" transform="translate(78.01 769.82) rotate(-45)"/><rect class="cls-1" x="1017.75" y="308.99" width="2.96" height="0.78" transform="translate(79.75 811.31) rotate(-45)"/><rect class="cls-1" x="964.16" y="287.73" width="2.96" height="0.78" transform="translate(79.25 767.48) rotate(-45.02)"/><rect class="cls-1" x="1002.21" y="275.06" width="1.42" height="1.42" transform="translate(98.74 789.93) rotate(-45)"/><rect class="cls-1" x="1000.35" y="321.94" width="1.42" height="1.42" transform="translate(65.04 802.34) rotate(-45)"/><rect class="cls-1" x="984.93" y="267.06" width="1.42" height="1.42" transform="translate(99.34 775.36) rotate(-45)"/><rect class="cls-1" x="1026.26" y="321.16" width="1.42" height="1.42" transform="translate(73.18 820.43) rotate(-45)"/><rect class="cls-1" x="1013.65" y="308.55" width="1.42" height="1.42" transform="translate(78.41 807.82) rotate(-45)"/><rect class="cls-1" x="971.67" y="254.73" width="1.42" height="1.42" transform="translate(104.17 762.37) rotate(-45)"/><rect class="cls-1" x="940.92" y="237.84" width="1.42" height="1.42" transform="translate(107.11 735.69) rotate(-45)"/><rect class="cls-1" x="929.48" y="249.28" width="1.42" height="1.42" transform="translate(95.66 730.95) rotate(-45)"/><rect class="cls-1" x="927.97" y="248.78" width="1.42" height="1.42" transform="translate(95.58 729.73) rotate(-45)"/><rect class="cls-1" x="949.37" y="302.42" width="1.42" height="1.42" transform="translate(63.92 760.58) rotate(-45)"/><rect class="cls-1" x="952.15" y="292.89" width="1.42" height="1.42" transform="translate(71.47 759.75) rotate(-45)"/><rect class="cls-1" x="959.32" y="301.48" width="1.42" height="1.42" transform="translate(67.49 767.33) rotate(-45)"/><rect class="cls-1" x="950.76" y="297.29" width="1.42" height="1.42" transform="translate(67.95 760.06) rotate(-45)"/><rect class="cls-1" x="941.12" y="277.22" width="1.42" height="1.42" transform="translate(79.32 747.36) rotate(-45)"/><rect class="cls-1" x="998.33" y="256.52" width="1.42" height="1.42"/><rect class="cls-1" x="1018.52" y="233.82" width="1.42" height="1.42"/><path class="cls-1" d="M1062.25,294a.78.78,0,0,1,1.1-1.1.77.77,0,0,1,0,1.1A.78.78,0,0,1,1062.25,294Z"/><path class="cls-1" d="M1060.35,287.86a.78.78,0,0,1,1.1-1.1.78.78,0,1,1-1.1,1.1Z"/><rect class="cls-1" x="1056.32" y="297.26" width="1.42" height="1.42"/><rect class="cls-1" x="998.87" y="282.69" width="1.42" height="1.42"/><rect class="cls-1" x="988.34" y="295.92" width="1.42" height="1.42"/><rect class="cls-1" x="984.93" y="277.22" width="1.42" height="1.42"/><rect class="cls-1" x="1009.05" y="282.91" width="1.42" height="1.42" transform="translate(95.19 797.06) rotate(-45)"/><path class="cls-1" d="M900.54,308.78a.77.77,0,0,1-1.1,0,.78.78,0,1,1,1.1,0Z"/><path class="cls-1" d="M894.39,310.69a.78.78,0,0,1-1.1,0,.78.78,0,1,1,1.1-1.1A.78.78,0,0,1,894.39,310.69Z"/><rect class="cls-1" x="1424.48" y="228.53" width="3.59" height="3.59" transform="translate(254.88 1075.99) rotate(-45)"/><path class="cls-5" d="M1204.67,310.48a10.32,10.32,0,1,0-3.58,14.15A10.31,10.31,0,0,0,1204.67,310.48Z"/><path class="cls-1" d="M1198.89,313.93a3.59,3.59,0,1,0-1.24,4.92A3.6,3.6,0,0,0,1198.89,313.93Z"/><path class="cls-1" d="M1223.18,243.92a2,2,0,1,1-2-2A2,2,0,0,1,1223.18,243.92Z"/><path class="cls-1" d="M1215.61,258.28a2,2,0,1,1-2-2A2,2,0,0,1,1215.61,258.28Z"/><rect class="cls-1" x="1161.35" y="248.86" width="3.59" height="3.59" transform="translate(163.43 895.88) rotate(-45)"/><rect class="cls-1" x="1156.28" y="268" width="3.59" height="3.59" transform="translate(148.41 897.89) rotate(-45)"/><rect class="cls-1" x="1172.37" y="270.05" width="3.59" height="3.59" transform="translate(151.68 909.88) rotate(-45)"/><path class="cls-1" d="M1734.09,335.5a2,2,0,1,1-2-2A2,2,0,0,1,1734.09,335.5Z"/><path class="cls-1" d="M1666.48,309.83a2,2,0,1,1-2-2A2,2,0,0,1,1666.48,309.83Z"/><rect class="cls-1" x="1612.22" y="310.42" width="3.59" height="3.59" transform="translate(251.97 1232.73) rotate(-45)"/><rect class="cls-1" x="1607.15" y="319.56" width="3.59" height="3.59" transform="translate(244.02 1231.82) rotate(-45)"/><rect class="cls-1" x="1623.24" y="321.61" width="3.59" height="3.59" transform="translate(247.28 1243.8) rotate(-45)"/><path class="cls-1" d="M1831.32,320.59l-2.37-1.74"/><path class="cls-9" d="M1840.31,345.24a89.25,89.25,0,0,1,18.23-150.76"/><path class="cls-1" d="M1863.65,10.68c.89-.4,1.78-.79,2.68-1.17"/><rect class="cls-1" x="1781.83" y="306.03" width="3.59" height="3.59" transform="translate(304.75 1351.39) rotate(-45)"/><rect class="cls-1" x="1781.83" y="310.05" width="3.59" height="3.59" transform="translate(301.91 1352.56) rotate(-45)"/><path class="cls-1" d="M1711.65,325a2,2,0,1,1,2.77,0A1.95,1.95,0,0,1,1711.65,325Z"/><path class="cls-1" d="M1706.85,309.51a2,2,0,1,1,2.77,0A1.95,1.95,0,0,1,1706.85,309.51Z"/><rect class="cls-1" x="1737.59" y="258.89" width="3.59" height="3.59"/><rect class="cls-1" x="1724.76" y="268.82" width="3.59" height="3.59"/><rect class="cls-1" x="1311.98" y="152.3" width="3.59" height="3.59"/><rect class="cls-1" x="1329.11" y="142.35" width="3.59" height="3.59"/><rect class="cls-1" x="1319.18" y="129.52" width="3.59" height="3.59"/><path class="cls-1" d="M1380.23,164.62a2,2,0,1,1,2.77,0A2,2,0,0,1,1380.23,164.62Z"/><path class="cls-1" d="M1375.43,149.11a2,2,0,1,1,2.77,0A1.95,1.95,0,0,1,1375.43,149.11Z"/><path class="cls-1" d="M1419.66,128.7a2,2,0,1,1,2.77,0A2,2,0,0,1,1419.66,128.7Z"/><path class="cls-1" d="M263.21,326.61l2.68-1.16"/><path class="cls-1" d="M275.18,346.36l2.69-1.17"/><path class="cls-1" d="M480.54,302.72c.57-.79,1.15-1.58,1.74-2.36"/><path class="cls-2" d="M485.89,285.73A155.06,155.06,0,0,1,746.82,317.6"/><path class="cls-1" d="M748,320.27c.4.89.79,1.79,1.17,2.69"/><polyline class="cls-3" points="780.66 237.94 240.37 237.94 240.37 275.25 399.87 275.25"/><path class="cls-1" d="M483.22,306a3.59,3.59,0,1,1-3.59-3.59A3.59,3.59,0,0,1,483.22,306Z"/><circle class="cls-4" cx="197.17" cy="319.5" r="10.77" transform="translate(-173.46 379.39) rotate(-67.5)"/><path class="cls-1" d="M200.76,319.5a3.59,3.59,0,1,1-3.59-3.59A3.59,3.59,0,0,1,200.76,319.5Z"/><path class="cls-1" d="M295.56,155.18a5.39,5.39,0,1,1-5.39-5.39A5.38,5.38,0,0,1,295.56,155.18Z"/><line class="cls-1" x1="286.13" y1="151.14" x2="294.21" y2="159.22"/><path class="cls-1" d="M346.53,204.33a5.39,5.39,0,1,1-5.39-5.38A5.39,5.39,0,0,1,346.53,204.33Z"/><line class="cls-1" x1="337.11" y1="200.29" x2="345.18" y2="208.37"/><circle class="cls-1" cx="205.47" cy="200.72" r="9.42" transform="translate(-58.6 313.74) rotate(-67.5)"/><line class="cls-1" x1="198.4" y1="193.65" x2="212.54" y2="207.79"/><path class="cls-1" d="M247.13,234.64a9.42,9.42,0,1,1-9.42-9.43A9.42,9.42,0,0,1,247.13,234.64Z"/><line class="cls-1" x1="230.64" y1="227.57" x2="244.78" y2="241.71"/><rect class="cls-1" x="657.53" y="317.22" width="1.96" height="7.46"/><rect class="cls-1" x="647.58" y="317.22" width="1.96" height="7.46"/><rect class="cls-1" x="625.43" y="318.5" width="18.56" height="4.88"/><rect class="cls-1" x="653.83" y="304.88" width="1.96" height="7.46"/><rect class="cls-1" x="799.93" y="215.39" width="7.46" height="1.96"/><rect class="cls-1" x="787.59" y="219.09" width="7.46" height="1.96"/><path class="cls-1" d="M530.7,312.38a3.59,3.59,0,1,1-3.59-3.59A3.59,3.59,0,0,1,530.7,312.38Z"/><path class="cls-1" d="M624.66,297.51a2,2,0,1,1-2-2A2,2,0,0,1,624.66,297.51Z"/><path class="cls-1" d="M617.09,311.87a2,2,0,1,1-2-2A2,2,0,0,1,617.09,311.87Z"/><rect class="cls-1" x="639.24" y="297.95" width="3.59" height="3.59" transform="translate(-24.2 541.08) rotate(-45)"/><rect class="cls-1" x="562.83" y="302.44" width="3.59" height="3.59" transform="translate(-49.75 488.36) rotate(-45)"/><rect class="cls-1" x="557.76" y="321.59" width="3.59" height="3.59" transform="translate(-64.78 490.38) rotate(-45)"/><path class="cls-1" d="M359.38,342.81a2,2,0,1,1-2-2A2,2,0,0,1,359.38,342.81Z"/><path class="cls-1" d="M351.81,307.14a2,2,0,1,1-2-2A2,2,0,0,1,351.81,307.14Z"/><rect class="cls-1" x="373.97" y="343.26" width="3.59" height="3.59" transform="translate(-133.93 366.77) rotate(-45)"/><rect class="cls-1" x="297.56" y="297.72" width="3.59" height="3.59" transform="translate(-124.11 299.4) rotate(-45)"/><rect class="cls-1" x="292.48" y="306.86" width="3.59" height="3.59" transform="translate(-132.06 298.48) rotate(-45)"/><line class="cls-1" x1="582.99" y1="274.74" x2="359.07" y2="274.74"/><path class="cls-3" d="M367.37,282.68a26.18,26.18,0,1,1,37.2,13.94"/><path class="cls-5" d="M345.05,263.07a16.08,16.08,0,1,1,16.08,16.08A16.08,16.08,0,0,1,345.05,263.07Z"/><path class="cls-5" d="M337.87,279.15A16.08,16.08,0,1,1,354,295.23,16.08,16.08,0,0,1,337.87,279.15Z"/><path class="cls-5" d="M439.22,300.41a10.33,10.33,0,1,1,10.32,10.32A10.32,10.32,0,0,1,439.22,300.41Z"/><path class="cls-5" d="M381.34,301.47A10.56,10.56,0,1,1,391.9,312,10.56,10.56,0,0,1,381.34,301.47Z"/><circle class="cls-5" cx="428.23" cy="324.78" r="5.28" transform="translate(-104.23 397.93) rotate(-45)"/><path class="cls-1" d="M446,300.41a3.6,3.6,0,1,1,3.59,3.59A3.59,3.59,0,0,1,446,300.41Z"/><path class="cls-1" d="M431.55,287.69a2,2,0,1,1,2,2A2,2,0,0,1,431.55,287.69Z"/><path class="cls-1" d="M426.27,279.15a2,2,0,1,1,2,2A2,2,0,0,1,426.27,279.15Z"/><circle class="cls-4" cx="364.72" cy="268.46" r="10.77" transform="translate(-83.01 336.52) rotate(-45)"/><path class="cls-1" d="M361.13,268.46a3.59,3.59,0,1,1,3.59,3.59A3.59,3.59,0,0,1,361.13,268.46Z"/><rect class="cls-1" x="391.96" y="329" width="18.56" height="4.88"/><rect class="cls-1" x="554.44" y="301.25" width="18.56" height="4.88"/><rect class="cls-1" x="379.54" y="337.64" width="3.59" height="3.59"/><rect class="cls-1" x="320.06" y="291.64" width="3.59" height="3.59"/><rect class="cls-1" x="318.26" y="288.05" width="3.59" height="3.59"/><line class="cls-3" x1="358.62" y1="316.43" x2="474.39" y2="316.43"/><line class="cls-3" x1="287.16" y1="268.46" x2="507.6" y2="268.46"/><rect class="cls-1" x="430.92" y="306.93" width="3.59" height="3.59"/><rect class="cls-1" x="452.86" y="294.9" width="3.59" height="3.59"/><rect class="cls-1" x="450.32" y="322.98" width="3.59" height="3.59"/><rect class="cls-1" x="442.54" y="300.28" width="3.59" height="3.59"/><rect class="cls-1" x="458.15" y="253.2" width="3.59" height="3.59" transform="translate(-45.6 399.92) rotate(-45)"/><rect class="cls-5" x="348.97" y="252.57" width="12.16" height="19.48"/><path class="cls-1" d="M744.94,231.53A49.81,49.81,0,1,0,732,306"/><path class="cls-5" d="M704.55,245.05a26,26,0,1,0-9,35.69A26,26,0,0,0,704.55,245.05Z"/><line class="cls-1" x1="734.83" y1="262.52" x2="710.45" y2="221.67"/><path class="cls-1" d="M707.23,236.53a2,2,0,1,0-.68,2.69A2,2,0,0,0,707.23,236.53Z"/><path class="cls-1" d="M710.29,217.59a2,2,0,1,0-.67,2.68A1.95,1.95,0,0,0,710.29,217.59Z"/><path class="cls-1" d="M679.33,236.07a10.77,10.77,0,1,0-3.73,14.76A10.77,10.77,0,0,0,679.33,236.07Z"/><path class="cls-1" d="M673.16,239.75a3.59,3.59,0,1,0-1.24,4.92A3.6,3.6,0,0,0,673.16,239.75Z"/><path class="cls-1" d="M695.24,244.34a3,3,0,1,0-1,4.15A3,3,0,0,0,695.24,244.34Z"/><line class="cls-1" x1="691.85" y1="249.01" x2="693.42" y2="242.78"/><rect class="cls-1" x="708.7" y="240.51" width="7.46" height="1.96" transform="translate(-23.11 399.15) rotate(-30.82)"/><rect class="cls-1" x="713.34" y="227.73" width="3.59" height="3.59" transform="translate(-16.57 398.98) rotate(-30.83)"/><path class="cls-5" d="M666.34,260.75a16.08,16.08,0,1,0,16.08-16.07A16.08,16.08,0,0,0,666.34,260.75Z"/><rect class="cls-1" x="648.53" y="184.64" width="3.59" height="3.59"/><rect class="cls-1" x="646.73" y="188.23" width="3.59" height="3.59"/><line class="cls-3" x1="137.59" y1="324.16" x2="358.03" y2="324.16"/><line class="cls-3" x1="501.98" y1="324.78" x2="722.42" y2="324.78"/><rect class="cls-1" x="308.57" y="308.91" width="3.59" height="3.59" transform="translate(-128.79 310.47) rotate(-45)"/><rect class="cls-1" x="670.11" y="284.18" width="3.59" height="3.59" transform="translate(-5.42 558.86) rotate(-45)"/><rect class="cls-1" x="650.97" y="279.1" width="3.59" height="3.59" transform="translate(-7.44 543.84) rotate(-45)"/><rect class="cls-1" x="624.43" y="306.94" width="3.59" height="3.59"/><path class="cls-5" d="M605.29,276.27A10.33,10.33,0,1,1,595,286.59,10.33,10.33,0,0,1,605.29,276.27Z"/><line class="cls-3" x1="637.25" y1="124.21" x2="637.25" y2="344.65"/><rect class="cls-1" x="607.22" y="289.91" width="3.59" height="3.59"/><rect class="cls-1" x="648.92" y="295.2" width="3.59" height="3.59" transform="translate(-19.41 547.11) rotate(-45)"/><path class="cls-1" d="M105.87,302.63a2,2,0,1,1-2-2A2,2,0,0,1,105.87,302.63Z"/><path class="cls-1" d="M98.3,307a2,2,0,1,1-2-2A2,2,0,0,1,98.3,307Z"/><rect class="cls-1" x="44.04" y="297.56" width="3.59" height="3.59" transform="translate(-198.25 120.09) rotate(-45)"/><rect class="cls-1" x="38.97" y="316.7" width="3.59" height="3.59" transform="translate(-213.27 122.11) rotate(-45)"/><rect class="cls-1" x="55.06" y="318.75" width="3.59" height="3.59" transform="translate(-210.01 134.09) rotate(-45)"/><path class="cls-5" d="M765.34,233.54a10.32,10.32,0,1,0,12.53-7.48A10.32,10.32,0,0,0,765.34,233.54Z"/><path class="cls-5" d="M777.16,326.82a10.32,10.32,0,1,0,12.53-7.48A10.32,10.32,0,0,0,777.16,326.82Z"/><path class="cls-1" d="M705.18,267.52a2,2,0,1,1,0,2.77A2,2,0,0,1,705.18,267.52Z"/><path class="cls-1" d="M720.69,262.71a2,2,0,1,1,0,2.78A2,2,0,0,1,720.69,262.71Z"/><rect class="cls-1" x="750.6" y="303.41" width="3.59" height="3.59"/><rect class="cls-1" x="767.73" y="293.46" width="3.59" height="3.59"/><rect class="cls-1" x="757.79" y="280.63" width="3.59" height="3.59"/><path class="cls-1" d="M582.48,193.11a2,2,0,1,1-2-2A2,2,0,0,1,582.48,193.11Z"/><path class="cls-1" d="M574.91,207.47a2,2,0,1,1-2-2A2,2,0,0,1,574.91,207.47Z"/><rect class="cls-1" x="520.65" y="198.05" width="3.59" height="3.59" transform="translate(11.71 427.96) rotate(-45)"/><rect class="cls-1" x="515.58" y="217.2" width="3.59" height="3.59" transform="translate(-3.32 429.98) rotate(-45)"/><circle class="cls-6" cx="89.27" cy="271.72" r="71.23"/><path class="cls-1" d="M118,275.3c-.92.33-1.85.64-2.78.94"/><path class="cls-7" d="M109.73,337.79a75.14,75.14,0,0,1-77.94-28.74"/><path class="cls-1" d="M30.16,306.73c-.54-.81-1.08-1.63-1.59-2.47"/><line class="cls-3" x1="160.79" y1="238.48" x2="111.3" y2="287.97"/><line class="cls-1" x1="95.06" y1="277.51" x2="18.5" y2="280.03"/><line class="cls-3" x1="95.56" y1="343.5" x2="64.33" y2="312.27"/><line class="cls-3" x1="38.65" y1="316.8" x2="71.13" y2="284.31"/><path class="cls-1" d="M119.43,311.64a19.77,19.77,0,1,1,29.9,2.27"/><path class="cls-1" d="M115.66,324.38a10.39,10.39,0,1,1-5.21-14.87"/><circle class="cls-5" cx="135.86" cy="290.11" r="10.33"/><path class="cls-1" d="M120.75,278.42a3.92,3.92,0,1,1,5.54,0A3.92,3.92,0,0,1,120.75,278.42Z"/><circle class="cls-5" cx="109.42" cy="279.43" r="4.1"/><circle class="cls-5" cx="97.2" cy="303.2" r="4.1"/><circle class="cls-5" cx="88.51" cy="258.88" r="2.14"/><path class="cls-5" d="M72.64,228.4a2.14,2.14,0,1,1,3,0A2.14,2.14,0,0,1,72.64,228.4Z"/><path class="cls-8" d="M92.67,227a4.27,4.27,0,1,1,6,0A4.28,4.28,0,0,1,92.67,227Z"/><path class="cls-5" d="M91.53,280a4.27,4.27,0,1,1,6,0A4.27,4.27,0,0,1,91.53,280Z"/><line class="cls-1" x1="132.33" y1="310.76" x2="118.99" y2="297.41"/><line class="cls-1" x1="76.17" y1="300.43" x2="64.33" y2="312.27"/><line class="cls-1" x1="92.29" y1="284.31" x2="103.87" y2="272.73"/><line class="cls-1" x1="97.83" y1="257.62" x2="99.59" y2="272.98"/><path class="cls-1" d="M93.55,280a4.27,4.27,0,1,1,6,0A4.27,4.27,0,0,1,93.55,280Z"/><circle class="cls-1" cx="97.2" cy="303.2" r="1.42"/><circle class="cls-1" cx="115.96" cy="263.06" r="1.42"/><path class="cls-1" d="M119.36,313.91a1.43,1.43,0,1,1,2,0A1.44,1.44,0,0,1,119.36,313.91Z"/><path class="cls-1" d="M125,297.61a.78.78,0,0,1,0-1.1.8.8,0,0,1,1.11,0,.78.78,0,0,1-1.11,1.1Z"/><path class="cls-1" d="M95.55,278a.78.78,0,0,1,1.1-1.1.77.77,0,0,1,0,1.1A.78.78,0,0,1,95.55,278Z"/><path class="cls-1" d="M111.46,244a.78.78,0,0,1,1.1-1.1.78.78,0,1,1-1.1,1.1Z"/><path class="cls-1" d="M81.37,275a.78.78,0,0,1,1.1-1.1.77.77,0,0,1,0,1.1A.78.78,0,0,1,81.37,275Z"/><path class="cls-1" d="M89.72,286.88a.78.78,0,0,1,0-1.1.78.78,0,0,1,1.1,1.1A.78.78,0,0,1,89.72,286.88Z"/><path class="cls-1" d="M77.76,298.84a.78.78,0,1,1,1.1-1.1.77.77,0,0,1,0,1.1A.78.78,0,0,1,77.76,298.84Z"/><path class="cls-1" d="M117.43,297a.77.77,0,0,1,0-1.1.78.78,0,1,1,1.1,1.1A.77.77,0,0,1,117.43,297Z"/><path class="cls-1" d="M94.68,225a1.42,1.42,0,1,1,2,0A1.43,1.43,0,0,1,94.68,225Z"/><circle class="cls-1" cx="72.64" cy="231.43" r="1.42"/><circle class="cls-1" cx="16.73" cy="279.78" r="1.42"/><path class="cls-1" d="M127.55,286.83a4.27,4.27,0,1,1,6,0A4.27,4.27,0,0,1,127.55,286.83Z"/><circle class="cls-1" cx="130.57" cy="283.81" r="1.42"/><circle class="cls-1" cx="113.19" cy="307.74" r="1.42"/><path class="cls-1" d="M73.9,282.45a1.42,1.42,0,1,1,2,0A1.43,1.43,0,0,1,73.9,282.45Z"/><circle class="cls-1" cx="90.53" cy="138.9" r="2.14"/><path class="cls-1" d="M97.33,256.86a3.74,3.74,0,1,1,5.28,0A3.74,3.74,0,0,1,97.33,256.86Z"/><line class="cls-1" x1="103.94" y1="254.22" x2="96" y2="254.22"/><path class="cls-1" d="M129.19,293.76a1.2,1.2,0,1,1,1.7-1.7,1.22,1.22,0,0,1,0,1.7A1.2,1.2,0,0,1,129.19,293.76Z"/><line class="cls-1" x1="131.31" y1="292.91" x2="128.76" y2="292.91"/><path class="cls-1" d="M17.13,271.11a2.14,2.14,0,1,1,3,0A2.14,2.14,0,0,1,17.13,271.11Z"/><line class="cls-1" x1="20.91" y1="269.6" x2="16.38" y2="269.6"/><rect class="cls-1" x="64.85" y="309.94" width="5.92" height="1.56" transform="translate(-199.88 139) rotate(-45.01)"/><rect class="cls-1" x="73.98" y="281.07" width="2.96" height="0.78" transform="translate(-176.92 135.79) rotate(-45)"/><rect class="cls-1" x="124.94" y="299.71" width="2.96" height="0.78" transform="translate(-175.17 177.29) rotate(-45)"/><rect class="cls-1" x="71.35" y="278.45" width="2.96" height="0.78" transform="translate(-175.88 133.25) rotate(-45.02)"/><rect class="cls-1" x="109.4" y="265.78" width="1.42" height="1.42" transform="translate(-156.18 155.91) rotate(-45)"/><rect class="cls-1" x="107.54" y="312.66" width="1.42" height="1.42" transform="translate(-189.88 168.32) rotate(-45)"/><rect class="cls-1" x="92.12" y="257.77" width="1.42" height="1.42" transform="translate(-155.58 141.35) rotate(-45)"/><rect class="cls-1" x="133.45" y="311.87" width="1.42" height="1.42" transform="translate(-181.73 186.41) rotate(-45)"/><rect class="cls-1" x="120.84" y="299.26" width="1.42" height="1.42" transform="translate(-176.51 173.8) rotate(-45)"/><rect class="cls-1" x="78.86" y="245.45" width="1.42" height="1.42" transform="translate(-150.75 128.36) rotate(-45)"/><rect class="cls-1" x="48.12" y="228.56" width="1.42" height="1.42" transform="translate(-147.81 101.67) rotate(-45)"/><rect class="cls-1" x="36.67" y="240" width="1.42" height="1.42" transform="translate(-159.26 96.93) rotate(-45)"/><rect class="cls-1" x="35.16" y="239.5" width="1.42" height="1.42" transform="translate(-159.34 95.72) rotate(-45)"/><rect class="cls-1" x="56.56" y="293.13" width="1.42" height="1.42" transform="translate(-191 126.56) rotate(-45)"/><rect class="cls-1" x="59.34" y="283.6" width="1.42" height="1.42" transform="translate(-183.45 125.73) rotate(-45)"/><rect class="cls-1" x="66.51" y="292.2" width="1.42" height="1.42" transform="translate(-187.43 133.32) rotate(-45)"/><rect class="cls-1" x="57.95" y="288.01" width="1.42" height="1.42" transform="translate(-186.97 126.04) rotate(-45)"/><rect class="cls-1" x="48.31" y="267.93" width="1.42" height="1.42" transform="translate(-175.6 113.34) rotate(-45)"/><rect class="cls-1" x="105.53" y="247.24" width="1.42" height="1.42"/><rect class="cls-1" x="125.71" y="224.54" width="1.42" height="1.42"/><path class="cls-1" d="M169.45,284.73a.78.78,0,0,1,1.1-1.1.78.78,0,0,1-1.1,1.1Z"/><path class="cls-1" d="M167.54,278.57a.78.78,0,1,1,1.1-1.1.78.78,0,0,1-1.1,1.1Z"/><rect class="cls-1" x="163.51" y="287.98" width="1.42" height="1.42"/><rect class="cls-1" x="106.06" y="273.4" width="1.42" height="1.42"/><rect class="cls-1" x="95.53" y="286.64" width="1.42" height="1.42"/><rect class="cls-1" x="92.12" y="267.93" width="1.42" height="1.42"/><rect class="cls-1" x="116.24" y="273.63" width="1.42" height="1.42" transform="translate(-159.73 163.05) rotate(-45)"/><path class="cls-1" d="M7.73,299.5a.78.78,0,1,1-1.1-1.1.78.78,0,0,1,1.1,1.1Z"/><path class="cls-1" d="M1.58,301.4a.77.77,0,0,1-1.1,0,.77.77,0,0,1,0-1.1.78.78,0,0,1,1.1,1.1Z"/><rect class="cls-1" x="531.67" y="219.25" width="3.59" height="3.59" transform="translate(-0.05 441.96) rotate(-45)"/><path class="cls-5" d="M311.86,301.19a10.32,10.32,0,1,0-3.57,14.16A10.32,10.32,0,0,0,311.86,301.19Z"/><path class="cls-1" d="M306.08,304.64a3.59,3.59,0,1,0-1.24,4.93A3.58,3.58,0,0,0,306.08,304.64Z"/><path class="cls-1" d="M330.37,234.64a2,2,0,1,1-2-2A2,2,0,0,1,330.37,234.64Z"/><path class="cls-1" d="M322.8,249a2,2,0,1,1-2-2A2,2,0,0,1,322.8,249Z"/><rect class="cls-1" x="268.55" y="239.57" width="3.59" height="3.59" transform="translate(-91.49 261.85) rotate(-45)"/><rect class="cls-1" x="263.47" y="258.72" width="3.59" height="3.59" transform="translate(-106.52 263.87) rotate(-45)"/><rect class="cls-1" x="279.56" y="260.77" width="3.59" height="3.59" transform="translate(-103.25 275.85) rotate(-45)"/><path class="cls-1" d="M841.28,326.22a2,2,0,1,1-2-2A2,2,0,0,1,841.28,326.22Z"/><path class="cls-1" d="M773.67,300.55a2,2,0,1,1-2-2A2,2,0,0,1,773.67,300.55Z"/><rect class="cls-1" x="719.42" y="301.13" width="3.59" height="3.59" transform="translate(-2.96 598.7) rotate(-45)"/><rect class="cls-1" x="714.34" y="310.27" width="3.59" height="3.59" transform="translate(-10.91 597.79) rotate(-45)"/><rect class="cls-1" x="730.43" y="312.32" width="3.59" height="3.59" transform="translate(-7.65 609.77) rotate(-45)"/><path class="cls-1" d="M938.51,311.3l-2.36-1.73"/><path class="cls-9" d="M947.5,336A89.24,89.24,0,0,1,965.74,185.2"/><path class="cls-1" d="M970.84,1.39,973.53.23"/><rect class="cls-1" x="889.03" y="296.75" width="3.59" height="3.59" transform="translate(49.82 717.35) rotate(-45)"/><rect class="cls-1" x="889.03" y="300.76" width="3.59" height="3.59" transform="translate(46.98 718.53) rotate(-45)"/><path class="cls-1" d="M818.84,315.73a2,2,0,1,1,2.77,0A2,2,0,0,1,818.84,315.73Z"/><path class="cls-1" d="M814,300.23a2,2,0,1,1,2.77,0A1.95,1.95,0,0,1,814,300.23Z"/><rect class="cls-1" x="844.79" y="249.6" width="3.59" height="3.59"/><rect class="cls-1" x="831.96" y="259.53" width="3.59" height="3.59"/><rect class="cls-1" x="419.18" y="143.01" width="3.59" height="3.59"/><rect class="cls-1" x="436.31" y="133.06" width="3.59" height="3.59"/><rect class="cls-1" x="426.38" y="120.23" width="3.59" height="3.59"/><path class="cls-1" d="M487.42,155.34a2,2,0,1,1,2.77,0A2,2,0,0,1,487.42,155.34Z"/><path class="cls-1" d="M482.62,139.83a2,2,0,1,1,2.77,0A2,2,0,0,1,482.62,139.83Z"/><path class="cls-1" d="M526.85,119.41a2,2,0,1,1,2.77,0A2,2,0,0,1,526.85,119.41Z"/></g></g></svg>