<svg xmlns="http://www.w3.org/2000/svg" viewBox="0 0 390.53 225.81"><defs><style>.cls-1{fill:#fff;}.cls-2{fill:#00b1d0;}.cls-3{fill:#1ed6b3;}.cls-4{fill:#4fdb6d;}.cls-5{fill:#a2e538;}</style></defs><title>logo_emails</title><g id="Layer_2" data-name="Layer 2"><g id="Layer_1-2" data-name="Layer 1"><path class="cls-1" d="M79.82,108H30.52A30.43,30.43,0,0,1,15.24,51.2a20.82,20.82,0,0,1-1.15-6.59A21.13,21.13,0,0,1,35.22,23.48a20.88,20.88,0,0,1,6.35,1.08A42.16,42.16,0,0,1,79.82,0Z"/><rect class="cls-2" x="83.43" y="0.1" width="14.84" height="14.84"/><rect class="cls-3" x="101.98" y="0.1" width="14.84" height="14.84"/><rect class="cls-2" x="83.43" y="18.65" width="14.84" height="14.84"/><rect class="cls-3" x="101.98" y="18.65" width="14.84" height="14.84"/><rect class="cls-4" x="120.53" y="18.65" width="14.84" height="14.84"/><rect class="cls-2" x="83.43" y="37.2" width="14.84" height="14.84"/><rect class="cls-3" x="101.98" y="37.2" width="14.84" height="14.84"/><rect class="cls-4" x="120.53" y="37.2" width="14.84" height="14.84"/><rect class="cls-2" x="83.43" y="55.75" width="14.84" height="14.84"/><rect class="cls-3" x="101.98" y="55.75" width="14.84" height="14.84"/><rect class="cls-4" x="120.53" y="55.75" width="14.84" height="14.84"/><rect class="cls-5" x="139.08" y="55.75" width="14.84" height="14.84"/><rect class="cls-2" x="83.43" y="74.3" width="14.84" height="14.84"/><rect class="cls-3" x="101.98" y="74.3" width="14.84" height="14.84"/><rect class="cls-4" x="120.53" y="74.3" width="14.84" height="14.84"/><rect class="cls-5" x="139.08" y="74.3" width="14.84" height="14.84"/><rect class="cls-2" x="83.43" y="92.85" width="14.84" height="14.84"/><rect class="cls-3" x="101.98" y="92.85" width="14.84" height="14.84"/><rect class="cls-4" x="120.53" y="92.85" width="14.84" height="14.84"/><path class="cls-1" d="M174.29,41.33c0-12.56,7.86-19.91,18.29-19.91a19.65,19.65,0,0,1,9.78,2.23l-1,2.43a21.61,21.61,0,0,0-8.82-1.67c-8.56,0-14.69,5.78-14.69,16.72,0,11.65,5.93,16.21,13.32,16.21a15.88,15.88,0,0,0,9.63-2.84l1.27,2.44a19.1,19.1,0,0,1-11.3,3.39C180.93,60.33,174.29,54.45,174.29,41.33Z"/><path class="cls-1" d="M230.88,46.5c0,9.12-4.61,13.83-11.86,13.83s-11.85-4.71-11.85-13.83S211.78,32.67,219,32.67,230.88,37.33,230.88,46.5Zm-3.4,0c0-7.8-3.49-11.19-8.46-11.19s-8.46,3.39-8.46,11.19S214,57.65,219,57.65,227.48,54.25,227.48,46.5Z"/><path class="cls-1" d="M258.23,43.71V59.62H255V42.55c0-5.27-2-7.24-6.64-7.24a10.71,10.71,0,0,0-6.89,2.63V59.62h-3.24V33.43l3.24-.46v2.34a13.72,13.72,0,0,1,8.11-2.69c4.91,0,8.1,1.87,8.56,7.09C258.23,40.88,258.23,42,258.23,43.71Z"/><path class="cls-1" d="M279.6,59.06a11.12,11.12,0,0,1-5.21,1.27c-4.11,0-5.83-2.38-6-5.32-.1-1.37-.1-2.58-.1-4.41V35.86h-3.85V33.33h3.85V26.79l3.24-.55v7.09h7.8l-.41,2.53H271.5V51.92c0,4.36,1.16,5.68,4.2,5.68a8,8,0,0,0,3.25-.66Z"/><path class="cls-1" d="M300.47,60l-.6-2.59a14.21,14.21,0,0,1-8.26,2.89c-4.36,0-7.65-2-7.65-7.95,0-5.32,4.2-8,10.69-8a25.68,25.68,0,0,1,5.11.56V41.59c0-4-1.77-6.28-6.43-6.28A13.43,13.43,0,0,0,286.85,37l-1-2.23A16.29,16.29,0,0,1,294,32.62c5.22,0,8.61,2.58,8.92,7.4.05,1.16.05,2.33.05,4v9.57a23.73,23.73,0,0,0,.65,6Zm-7.75-2.33a12.47,12.47,0,0,0,7-2.38v-8a30.2,30.2,0,0,0-5.32-.4c-4.4,0-7.14,1.52-7.14,5.16S289.18,57.7,292.72,57.7Z"/><path class="cls-1" d="M312.07,23.65a7.09,7.09,0,0,1,3.24,0v4.21a7.09,7.09,0,0,1-3.24,0Zm.05,9.78,3.24-.46V59.62h-3.24Z"/><path class="cls-1" d="M344.74,43.71V59.62H341.5V42.55c0-5.27-2-7.24-6.63-7.24A10.67,10.67,0,0,0,328,37.94V59.62h-3.25V33.43L328,33v2.34a13.69,13.69,0,0,1,8.1-2.69c4.92,0,8.11,1.87,8.56,7.09C344.74,40.88,344.74,42,344.74,43.71Z"/><path class="cls-1" d="M370,56.13l.76,2.38a19.09,19.09,0,0,1-8.41,1.82c-7.65,0-11-4.1-11-13.47,0-10.14,4.35-14.24,11-14.24,5.88,0,8.76,3.39,9.17,10.08.1,1.67.1,2.79.1,4.41H354.52c.2,8,3,10.49,8.05,10.49A17.67,17.67,0,0,0,370,56.13Zm-15.4-11.55h13.83c-.15-7.1-1.93-9.27-6.28-9.27C357.61,35.31,354.92,37.84,354.62,44.58Z"/><path class="cls-1" d="M379.24,33.58l3.24-.45v3.24c1.27-2.74,3.29-3.75,5.32-3.75a4.36,4.36,0,0,1,2.73.76l-.35,2.74a7.93,7.93,0,0,0-2.69-.41c-2.33,0-4,1.27-5,3.6V59.62h-3.24Z"/><path class="cls-1" d="M173.17,106.59l1.4-6.17a22.56,22.56,0,0,0,9.07,1.93c4,0,5.69-1.78,5.69-3.76s-1.26-3.42-6.13-5.5c-5.06-2.17-8.68-4.48-8.68-10.22,0-6,5.36-10.8,13.07-10.8A21.1,21.1,0,0,1,197,74.14l-1.4,5.93a22.54,22.54,0,0,0-7.23-1.25c-2.51,0-5,1.25-5,3.23s1.15,3.47,5.4,5.11c5.83,2.27,9.4,5,9.4,10.22,0,7.38-6.41,11.72-15.09,11.72A20.69,20.69,0,0,1,173.17,106.59Z"/><path class="cls-1" d="M228,95.89c0,8.77-5.21,13.4-13.5,13.4S201,104.66,201,95.89s5.2-13.4,13.5-13.4S228,87.11,228,95.89Zm-8.68,0c0-4.73-1.49-6.85-4.82-6.85s-4.82,2.12-4.82,6.85,1.49,6.85,4.82,6.85S219.27,100.62,219.27,95.89Z"/><path class="cls-1" d="M232.05,72.5l8.68-.48v36.41h-8.68Z"/><path class="cls-1" d="M270.52,82.92v25.51h-8.67v-2.08a12.86,12.86,0,0,1-7.29,2.56c-5.64,0-8.39-3-8.77-7.86-.1-1.11-.1-2.75-.1-4.39V83.4l8.68-.48V97.14c0,3.72,1.11,5.21,3.81,5.21a5.82,5.82,0,0,0,3.67-1.49V83.4Z"/><path class="cls-1" d="M293.23,102.25l.68,5.26a20.24,20.24,0,0,1-8.25,1.64c-4.72,0-6.94-2.22-7.28-5.59a53.44,53.44,0,0,1-.24-6.37V89.43h-3.66V83.16h3.66V78.1l8.68-2.46v7.52h7.23l-.86,6.27h-6.37v8.2c0,3.76.82,5,3.67,5A10.81,10.81,0,0,0,293.23,102.25Z"/><path class="cls-1" d="M297.62,72a38.18,38.18,0,0,1,8.68,0V79.4a37.06,37.06,0,0,1-8.68,0Zm0,11.43,8.68-.48v25.51h-8.68Z"/><path class="cls-1" d="M337.4,95.89c0,8.77-5.21,13.4-13.5,13.4s-13.5-4.63-13.5-13.4,5.21-13.4,13.5-13.4S337.4,87.11,337.4,95.89Zm-8.68,0c0-4.73-1.49-6.85-4.82-6.85s-4.82,2.12-4.82,6.85,1.49,6.85,4.82,6.85S328.72,100.62,328.72,95.89Z"/><path class="cls-1" d="M366.33,94.73v13.7h-8.68V94.25c0-3.71-1-5.21-3.9-5.21a5.64,5.64,0,0,0-3.57,1.4v18H341.5v-25l8.68-.48v2a13.72,13.72,0,0,1,7.28-2.41c5.64,0,8.34,3,8.77,7.85C366.33,91.45,366.33,93.09,366.33,94.73Z"/><path class="cls-1" d="M370.09,107l1.16-5.69a15.05,15.05,0,0,0,7.13,1.69c1.79,0,2.42-.63,2.42-1.69s-1-1.93-3.43-3c-3.9-1.78-6.31-3.66-6.31-8.15,0-5.21,4.91-7.66,9.83-7.66a14.34,14.34,0,0,1,7.33,1.68l-.77,5.45a15,15,0,0,0-5.79-1.06c-1.54,0-2.36.68-2.36,1.59,0,1.11,1.5,1.93,3.86,3,4.43,1.93,6,4.29,6,8.1,0,5.55-4.63,7.86-10.47,7.86A17.14,17.14,0,0,1,370.09,107Z"/><path class="cls-1" d="M13.59,225.47l-1.08-4.92-1.46-6.22H11L8.39,225.47H4.26l-4-14.08H4.08l1.63,6.24c.26,1.11.52,2.65.79,4.62h.08a25.25,25.25,0,0,1,.44-3l.2-1.07L9,211.39h4.23l1.65,6.75c0,.19.08.46.16.82s.14.75.2,1.15.13.81.19,1.2.08.7.09.94h.08c.07-.61.21-1.44.4-2.49s.33-1.77.41-2.13l1.69-6.24h3.77l-4.06,14.08Z"/><path class="cls-1" d="M35.67,225.47l-1.08-4.92-1.46-6.22H33l-2.57,11.14H26.34l-4-14.08h3.83l1.63,6.24c.26,1.11.52,2.65.79,4.62h.08a25.25,25.25,0,0,1,.44-3l.2-1.07L31,211.39h4.23l1.65,6.75c0,.19.08.46.16.82s.14.75.2,1.15.13.81.19,1.2.08.7.09.94h.08c.07-.61.21-1.44.4-2.49s.33-1.77.42-2.13l1.68-6.24h3.77l-4.06,14.08Z"/><path class="cls-1" d="M57.75,225.47l-1.08-4.92-1.46-6.22h-.09l-2.57,11.14H48.42l-4-14.08h3.83l1.63,6.24c.26,1.11.52,2.65.79,4.62h.08a25.25,25.25,0,0,1,.44-3l.2-1.07,1.74-6.75h4.23L59,218.14c0,.19.09.46.16.82s.14.75.2,1.15.13.81.19,1.2.08.7.09.94h.08c.07-.61.21-1.44.4-2.49s.33-1.77.42-2.13l1.68-6.24H66l-4.06,14.08Z"/><path class="cls-1" d="M67.72,223.67a2.11,2.11,0,0,1,.56-1.6,2.31,2.31,0,0,1,1.65-.54,2.22,2.22,0,0,1,1.62.55,2.47,2.47,0,0,1,0,3.16,2.62,2.62,0,0,1-3.25,0A2.08,2.08,0,0,1,67.72,223.67Z"/><path class="cls-1" d="M81.33,225.72q-6.57,0-6.57-7.21A7.68,7.68,0,0,1,76.55,213a6.71,6.71,0,0,1,5.12-1.89,9.93,9.93,0,0,1,4.39,1l-1.14,3a15.87,15.87,0,0,0-1.69-.6,5.28,5.28,0,0,0-1.56-.24q-3,0-3,4.26c0,2.76,1,4.13,3,4.13a7.12,7.12,0,0,0,2.06-.29,7.46,7.46,0,0,0,1.88-.93v3.29a6.19,6.19,0,0,1-1.88.82A10.66,10.66,0,0,1,81.33,225.72Z"/><path class="cls-1" d="M101.67,218.41a7.54,7.54,0,0,1-1.81,5.37,6.55,6.55,0,0,1-5,1.94,7.12,7.12,0,0,1-3.58-.88,6.05,6.05,0,0,1-2.38-2.55,8.66,8.66,0,0,1-.83-3.88,7.55,7.55,0,0,1,1.8-5.37,6.61,6.61,0,0,1,5.07-1.91,7.05,7.05,0,0,1,3.57.88,5.83,5.83,0,0,1,2.38,2.53A8.42,8.42,0,0,1,101.67,218.41Zm-9.73,0a6,6,0,0,0,.68,3.16,2.48,2.48,0,0,0,2.24,1.07,2.42,2.42,0,0,0,2.21-1.07,6,6,0,0,0,.67-3.16,5.76,5.76,0,0,0-.68-3.14,2.88,2.88,0,0,0-4.44,0A5.78,5.78,0,0,0,91.94,218.41Z"/><path class="cls-1" d="M117.85,225.47H114v-8.22a3.89,3.89,0,0,0-.55-2.29,2,2,0,0,0-1.72-.76,2.59,2.59,0,0,0-2.33,1.08,6.62,6.62,0,0,0-.72,3.57v6.62h-3.84V211.39h2.93l.52,1.8h.21a4.08,4.08,0,0,1,1.77-1.54,6.05,6.05,0,0,1,2.57-.52,5,5,0,0,1,3.73,1.32,5.39,5.39,0,0,1,1.27,3.84Z"/><path class="cls-1" d="M127.74,222.66a8.08,8.08,0,0,0,2.41-.44v2.86a8.55,8.55,0,0,1-3.52.64,4.3,4.3,0,0,1-3.36-1.16,5.08,5.08,0,0,1-1-3.5v-6.79h-1.84v-1.62l2.12-1.28,1.1-3h2.46v3H130v2.88h-3.94v6.79a1.48,1.48,0,0,0,.46,1.21A1.82,1.82,0,0,0,127.74,222.66Z"/><path class="cls-1" d="M141.94,225.47l-.74-1.91h-.1a5.64,5.64,0,0,1-2,1.69,6.33,6.33,0,0,1-2.67.47,4.34,4.34,0,0,1-3.2-1.15,4.5,4.5,0,0,1-1.16-3.3,3.71,3.71,0,0,1,1.57-3.31,9.1,9.1,0,0,1,4.73-1.18l2.44-.07v-.62a1.91,1.91,0,0,0-2.19-2.14,10,10,0,0,0-4,1l-1.27-2.6a11.43,11.43,0,0,1,5.39-1.27,6.75,6.75,0,0,1,4.35,1.23,4.61,4.61,0,0,1,1.51,3.76v9.38ZM140.81,219l-1.49.05a4.74,4.74,0,0,0-2.49.6,1.9,1.9,0,0,0-.82,1.69c0,1.08.62,1.63,1.87,1.63a3,3,0,0,0,2.13-.77,2.72,2.72,0,0,0,.8-2Z"/><path class="cls-1" d="M148.42,207.75c0-1.25.7-1.88,2.09-1.88s2.09.63,2.09,1.88a1.81,1.81,0,0,1-.52,1.39,2.21,2.21,0,0,1-1.57.5C149.12,209.64,148.42,209,148.42,207.75Zm4,17.72h-3.84V211.39h3.84Z"/><path class="cls-1" d="M169.45,225.47h-3.84v-8.22a4,4,0,0,0-.54-2.29,2,2,0,0,0-1.73-.76,2.6,2.6,0,0,0-2.33,1.08,6.73,6.73,0,0,0-.71,3.57v6.62h-3.85V211.39h2.94l.52,1.8h.21a4.08,4.08,0,0,1,1.77-1.54,6,6,0,0,1,2.56-.52,5,5,0,0,1,3.73,1.32,5.34,5.34,0,0,1,1.27,3.84Z"/><path class="cls-1" d="M179.78,225.72a7.24,7.24,0,0,1-5.31-1.87,7.11,7.11,0,0,1-1.92-5.32,7.81,7.81,0,0,1,1.77-5.47,6.3,6.3,0,0,1,4.9-1.93,6.16,6.16,0,0,1,4.64,1.7,6.42,6.42,0,0,1,1.67,4.69v1.87h-9.09a3.78,3.78,0,0,0,1,2.56,3.45,3.45,0,0,0,2.55.92,10.26,10.26,0,0,0,2.4-.27,12.52,12.52,0,0,0,2.37-.84v3a8.7,8.7,0,0,1-2.15.75A14,14,0,0,1,179.78,225.72Zm-.54-11.86a2.45,2.45,0,0,0-1.91.77,3.57,3.57,0,0,0-.8,2.2h5.39a3.17,3.17,0,0,0-.74-2.2A2.55,2.55,0,0,0,179.24,213.86Z"/><path class="cls-1" d="M196.51,211.13a6,6,0,0,1,1.3.11l-.29,3.6a4.63,4.63,0,0,0-1.14-.12,4.06,4.06,0,0,0-2.86.94,3.4,3.4,0,0,0-1,2.65v7.16h-3.84V211.39h2.91l.57,2.37h.19a5.22,5.22,0,0,1,1.76-1.91A4.42,4.42,0,0,1,196.51,211.13Z"/><path class="cls-1" d="M199.12,220.13V217h6.76v3.15Z"/><path class="cls-1" d="M218.49,221.29a3.86,3.86,0,0,1-1.51,3.3,7.39,7.39,0,0,1-4.5,1.13,14.1,14.1,0,0,1-2.62-.2,10.66,10.66,0,0,1-2-.61v-3.18a13.43,13.43,0,0,0,2.42.85,10.07,10.07,0,0,0,2.36.34c1.39,0,2.09-.41,2.09-1.21a1,1,0,0,0-.28-.74,3.81,3.81,0,0,0-1-.64c-.45-.24-1.05-.52-1.81-.84a11.23,11.23,0,0,1-2.39-1.26,3.65,3.65,0,0,1-1.11-1.33,4.38,4.38,0,0,1-.34-1.84,3.35,3.35,0,0,1,1.45-2.91,7.14,7.14,0,0,1,4.13-1,11.88,11.88,0,0,1,5,1.1L217.18,215c-.71-.31-1.37-.55-2-.75a6.29,6.29,0,0,0-1.87-.29c-1.14,0-1.71.31-1.71.92a1.11,1.11,0,0,0,.55.9,16,16,0,0,0,2.4,1.12,11.21,11.21,0,0,1,2.42,1.24,3.74,3.74,0,0,1,1.13,1.34A4,4,0,0,1,218.49,221.29Z"/><path class="cls-1" d="M234.28,218.41a7.54,7.54,0,0,1-1.81,5.37,6.55,6.55,0,0,1-5.05,1.94,7.12,7.12,0,0,1-3.58-.88,6.05,6.05,0,0,1-2.38-2.55,8.66,8.66,0,0,1-.83-3.88,7.55,7.55,0,0,1,1.8-5.37,6.61,6.61,0,0,1,5.07-1.91,7.05,7.05,0,0,1,3.57.88,5.83,5.83,0,0,1,2.38,2.53A8.42,8.42,0,0,1,234.28,218.41Zm-9.73,0a6,6,0,0,0,.68,3.16,2.48,2.48,0,0,0,2.24,1.07,2.41,2.41,0,0,0,2.21-1.07,6,6,0,0,0,.68-3.16,5.76,5.76,0,0,0-.69-3.14,2.88,2.88,0,0,0-4.44,0A5.87,5.87,0,0,0,224.55,218.41Z"/><path class="cls-1" d="M241.3,225.47h-3.84v-19.6h3.84Z"/><path class="cls-1" d="M255.31,225.47l-.52-1.8h-.2a4.07,4.07,0,0,1-1.75,1.52,6,6,0,0,1-2.58.53,4.93,4.93,0,0,1-3.74-1.32,5.36,5.36,0,0,1-1.26-3.83v-9.18h3.84v8.23a4,4,0,0,0,.54,2.28,2,2,0,0,0,1.73.76,2.61,2.61,0,0,0,2.33-1.07,6.78,6.78,0,0,0,.71-3.57v-6.63h3.85v14.08Z"/><path class="cls-1" d="M268.22,222.66a8.14,8.14,0,0,0,2.42-.44v2.86a8.63,8.63,0,0,1-3.53.64,4.3,4.3,0,0,1-3.36-1.16,5.08,5.08,0,0,1-1.05-3.5v-6.79h-1.84v-1.62l2.12-1.28,1.11-3h2.45v3h3.95v2.88h-3.95v6.79a1.52,1.52,0,0,0,.46,1.21A1.82,1.82,0,0,0,268.22,222.66Z"/><path class="cls-1" d="M273.32,207.75c0-1.25.7-1.88,2.09-1.88s2.09.63,2.09,1.88a1.81,1.81,0,0,1-.52,1.39,2.21,2.21,0,0,1-1.57.5C274,209.64,273.32,209,273.32,207.75Zm4,17.72h-3.85V211.39h3.85Z"/><path class="cls-1" d="M294.15,218.41a7.54,7.54,0,0,1-1.81,5.37,6.55,6.55,0,0,1-5,1.94,7.09,7.09,0,0,1-3.58-.88,6.05,6.05,0,0,1-2.38-2.55,8.66,8.66,0,0,1-.83-3.88,7.55,7.55,0,0,1,1.8-5.37,6.6,6.6,0,0,1,5.06-1.91,7.06,7.06,0,0,1,3.58.88,5.88,5.88,0,0,1,2.38,2.53A8.42,8.42,0,0,1,294.15,218.41Zm-9.73,0a6,6,0,0,0,.68,3.16,2.48,2.48,0,0,0,2.24,1.07,2.42,2.42,0,0,0,2.21-1.07,6,6,0,0,0,.67-3.16,5.76,5.76,0,0,0-.68-3.14,2.88,2.88,0,0,0-4.44,0A5.78,5.78,0,0,0,284.42,218.41Z"/><path class="cls-1" d="M310.33,225.47h-3.84v-8.22a4,4,0,0,0-.55-2.29,2,2,0,0,0-1.72-.76,2.59,2.59,0,0,0-2.33,1.08,6.62,6.62,0,0,0-.72,3.57v6.62h-3.84V211.39h2.93l.52,1.8H301a4.08,4.08,0,0,1,1.77-1.54,6,6,0,0,1,2.57-.52,4.92,4.92,0,0,1,3.72,1.32,5.35,5.35,0,0,1,1.28,3.84Z"/><path class="cls-1" d="M324.11,221.29a3.86,3.86,0,0,1-1.51,3.3,7.39,7.39,0,0,1-4.5,1.13,14,14,0,0,1-2.62-.2,10.66,10.66,0,0,1-2-.61v-3.18a13.32,13.32,0,0,0,2.41.85,10.14,10.14,0,0,0,2.36.34c1.4,0,2.1-.41,2.1-1.21A1,1,0,0,0,320,221a4.24,4.24,0,0,0-1-.64c-.45-.24-1.06-.52-1.81-.84a11,11,0,0,1-2.39-1.26,3.55,3.55,0,0,1-1.11-1.33,4.38,4.38,0,0,1-.34-1.84,3.35,3.35,0,0,1,1.45-2.91,7.14,7.14,0,0,1,4.13-1,11.88,11.88,0,0,1,4.95,1.1L322.8,215c-.71-.31-1.37-.55-2-.75a6.31,6.31,0,0,0-1.88-.29c-1.13,0-1.7.31-1.7.92a1.08,1.08,0,0,0,.55.9,16,16,0,0,0,2.4,1.12,11.21,11.21,0,0,1,2.42,1.24,3.74,3.74,0,0,1,1.13,1.34A4,4,0,0,1,324.11,221.29Z"/><path class="cls-1" d="M326.56,223.67a2.11,2.11,0,0,1,.57-1.6,2.31,2.31,0,0,1,1.65-.54,2.22,2.22,0,0,1,1.62.55,2.46,2.46,0,0,1,0,3.16,2.18,2.18,0,0,1-1.61.57,2.24,2.24,0,0,1-1.64-.56A2.11,2.11,0,0,1,326.56,223.67Z"/><path class="cls-1" d="M340.18,225.72q-6.57,0-6.58-7.21a7.72,7.72,0,0,1,1.79-5.49,6.72,6.72,0,0,1,5.13-1.89,9.85,9.85,0,0,1,4.38,1l-1.13,3a16.69,16.69,0,0,0-1.69-.6,5.28,5.28,0,0,0-1.56-.24q-3,0-3,4.26c0,2.76,1,4.13,3,4.13a7.05,7.05,0,0,0,2.05-.29,7.52,7.52,0,0,0,1.89-.93v3.29a6.3,6.3,0,0,1-1.88.82A10.78,10.78,0,0,1,340.18,225.72Z"/><path class="cls-1" d="M360.52,218.41a7.54,7.54,0,0,1-1.81,5.37,6.55,6.55,0,0,1-5,1.94,7.06,7.06,0,0,1-3.58-.88,6,6,0,0,1-2.38-2.55,8.66,8.66,0,0,1-.83-3.88,7.55,7.55,0,0,1,1.8-5.37,6.6,6.6,0,0,1,5.06-1.91,7.09,7.09,0,0,1,3.58.88,5.88,5.88,0,0,1,2.38,2.53A8.55,8.55,0,0,1,360.52,218.41Zm-9.73,0a5.91,5.91,0,0,0,.68,3.16,2.46,2.46,0,0,0,2.24,1.07,2.42,2.42,0,0,0,2.21-1.07,6,6,0,0,0,.67-3.16,5.76,5.76,0,0,0-.68-3.14,2.88,2.88,0,0,0-4.44,0A5.78,5.78,0,0,0,350.79,218.41Z"/><path class="cls-1" d="M376.3,225.47h-3.84v-8.22A4.15,4.15,0,0,0,372,215a1.78,1.78,0,0,0-1.6-.76,2.31,2.31,0,0,0-2.14,1.08,7.05,7.05,0,0,0-.67,3.57v6.62H363.7V211.39h2.93l.52,1.8h.21a4,4,0,0,1,1.64-1.52,5.37,5.37,0,0,1,2.46-.54c2.1,0,3.53.68,4.28,2.06h.34a3.8,3.8,0,0,1,1.67-1.52,5.54,5.54,0,0,1,2.48-.54,5,5,0,0,1,3.63,1.22,5.44,5.44,0,0,1,1.22,3.94v9.18h-3.85v-8.22a4.15,4.15,0,0,0-.51-2.29,1.8,1.8,0,0,0-1.61-.76,2.41,2.41,0,0,0-2.11,1,5.77,5.77,0,0,0-.7,3.2Z"/><path class="cls-1" d="M1.85,167.62c0-1.25.7-1.87,2.09-1.87S6,166.37,6,167.62A1.81,1.81,0,0,1,5.51,169a2.16,2.16,0,0,1-1.57.5C2.55,169.51,1.85,168.88,1.85,167.62Zm4,17.72H2V171.26H5.86Z"/><path class="cls-1" d="M22.89,185.34H19.05v-8.22a4,4,0,0,0-.55-2.29,2,2,0,0,0-1.72-.76,2.59,2.59,0,0,0-2.33,1.08,6.67,6.67,0,0,0-.72,3.57v6.62H9.89V171.26h2.93l.52,1.8h.21a4.08,4.08,0,0,1,1.77-1.54,6,6,0,0,1,2.57-.52,4.89,4.89,0,0,1,3.72,1.33,5.3,5.3,0,0,1,1.28,3.83Z"/><path class="cls-1" d="M34.63,174.15H31.3v11.19H27.46V174.15H25.34V172.3l2.12-1v-1a4.59,4.59,0,0,1,1.18-3.51,5.43,5.43,0,0,1,3.79-1.11,9.73,9.73,0,0,1,3.54.59L35,169a7.21,7.21,0,0,0-2.14-.36,1.38,1.38,0,0,0-1.18.48,2,2,0,0,0-.37,1.24v.88h3.33Z"/><path class="cls-1" d="M49.63,178.28a7.59,7.59,0,0,1-1.82,5.38,6.57,6.57,0,0,1-5.05,1.94,7.06,7.06,0,0,1-3.57-.89,5.82,5.82,0,0,1-2.38-2.55,8.5,8.5,0,0,1-.84-3.88,7.51,7.51,0,0,1,1.81-5.37A6.62,6.62,0,0,1,42.84,171a7.12,7.12,0,0,1,3.58.88,5.94,5.94,0,0,1,2.38,2.53A8.55,8.55,0,0,1,49.63,178.28Zm-9.74,0a5.88,5.88,0,0,0,.69,3.16,2.46,2.46,0,0,0,2.23,1.07A2.41,2.41,0,0,0,45,181.45a6,6,0,0,0,.68-3.17,5.86,5.86,0,0,0-.68-3.14,2.48,2.48,0,0,0-2.23-1,2.43,2.43,0,0,0-2.22,1A5.83,5.83,0,0,0,39.89,178.28Z"/><path class="cls-1" d="M72.64,175.87a9.08,9.08,0,0,1-.58,3.32,5.36,5.36,0,0,1-1.64,2.36,3.78,3.78,0,0,1-2.45.86,3,3,0,0,1-1.65-.45,2.6,2.6,0,0,1-1-1.17h-.2a4.31,4.31,0,0,1-3.46,1.62,4.63,4.63,0,0,1-3.51-1.34,5.09,5.09,0,0,1-1.29-3.67,5.67,5.67,0,0,1,1.69-4.29,6.09,6.09,0,0,1,4.41-1.62,15.05,15.05,0,0,1,2.38.21,13.67,13.67,0,0,1,2.15.49l-.29,6.16c0,1.17.32,1.75,1,1.75s1-.39,1.28-1.17a8.29,8.29,0,0,0,.48-3.08,7.46,7.46,0,0,0-.84-3.59,5.78,5.78,0,0,0-2.38-2.37,7.22,7.22,0,0,0-3.49-.82,8.89,8.89,0,0,0-4.42,1.05,7,7,0,0,0-2.88,3,9.91,9.91,0,0,0-1,4.56,6.5,6.5,0,0,0,7.24,7.19,16.1,16.1,0,0,0,2.94-.3,18.52,18.52,0,0,0,3.14-.86v2.42a15.18,15.18,0,0,1-6,1.14q-4.78,0-7.46-2.51a9.15,9.15,0,0,1-2.68-7,11.75,11.75,0,0,1,1.37-5.65,9.93,9.93,0,0,1,3.89-4,11.51,11.51,0,0,1,5.81-1.44,10.62,10.62,0,0,1,5,1.13,8,8,0,0,1,3.37,3.23A9.59,9.59,0,0,1,72.64,175.87Zm-12.9,1.58c0,1.77.72,2.65,2.17,2.65a2,2,0,0,0,1.72-.79,5,5,0,0,0,.72-2.61l.17-2.78a7.06,7.06,0,0,0-1.45-.14,3.12,3.12,0,0,0-2.45,1A3.88,3.88,0,0,0,59.74,177.45Z"/><path class="cls-1" d="M81.66,185.6q-6.57,0-6.58-7.22a7.74,7.74,0,0,1,1.79-5.49A6.73,6.73,0,0,1,82,171a9.85,9.85,0,0,1,4.38.95l-1.13,3a15.87,15.87,0,0,0-1.69-.6A5.27,5.27,0,0,0,82,174.1q-3,0-3,4.25t3,4.14a6.73,6.73,0,0,0,2-.3,7.52,7.52,0,0,0,1.89-.93v3.29a6.05,6.05,0,0,1-1.88.82A10.59,10.59,0,0,1,81.66,185.6Z"/><path class="cls-1" d="M102,178.28a7.58,7.58,0,0,1-1.81,5.38,6.58,6.58,0,0,1-5,1.94,7.1,7.1,0,0,1-3.58-.89,5.88,5.88,0,0,1-2.38-2.55,8.63,8.63,0,0,1-.83-3.88,7.55,7.55,0,0,1,1.8-5.37A6.63,6.63,0,0,1,95.21,171a7.09,7.09,0,0,1,3.58.88,5.88,5.88,0,0,1,2.38,2.53A8.55,8.55,0,0,1,102,178.28Zm-9.73,0a5.89,5.89,0,0,0,.68,3.16,2.46,2.46,0,0,0,2.24,1.07,2.42,2.42,0,0,0,2.21-1.06,6,6,0,0,0,.67-3.17,5.76,5.76,0,0,0-.68-3.14,2.46,2.46,0,0,0-2.23-1,2.43,2.43,0,0,0-2.21,1A5.74,5.74,0,0,0,92.27,178.28Z"/><path class="cls-1" d="M118.18,185.34h-3.85v-8.22a4,4,0,0,0-.54-2.29,2,2,0,0,0-1.72-.76,2.58,2.58,0,0,0-2.33,1.08,6.67,6.67,0,0,0-.72,3.57v6.62h-3.84V171.26h2.93l.52,1.8h.21a4.08,4.08,0,0,1,1.77-1.54,6,6,0,0,1,2.56-.52,4.91,4.91,0,0,1,3.73,1.33,5.3,5.3,0,0,1,1.28,3.83Z"/><path class="cls-1" d="M128.06,182.54a8.14,8.14,0,0,0,2.42-.45V185a8.59,8.59,0,0,1-3.53.65,4.3,4.3,0,0,1-3.35-1.17,5.07,5.07,0,0,1-1-3.49v-6.79h-1.84v-1.63l2.11-1.28,1.11-3h2.46v3h3.94v2.89h-3.94v6.79a1.5,1.5,0,0,0,.46,1.21A1.8,1.8,0,0,0,128.06,182.54Z"/><path class="cls-1" d="M142.27,185.34l-.74-1.91h-.1a5.64,5.64,0,0,1-2,1.69,6.36,6.36,0,0,1-2.68.48,4.34,4.34,0,0,1-3.19-1.16,4.43,4.43,0,0,1-1.16-3.3,3.72,3.72,0,0,1,1.56-3.31,9.16,9.16,0,0,1,4.73-1.18l2.45-.07V176a1.91,1.91,0,0,0-2.19-2.14,10,10,0,0,0-4,1l-1.27-2.6A11.52,11.52,0,0,1,139.1,171a6.64,6.64,0,0,1,4.34,1.24A4.54,4.54,0,0,1,145,176v9.38Zm-1.13-6.52-1.49.05a4.78,4.78,0,0,0-2.49.6,1.9,1.9,0,0,0-.82,1.69c0,1.09.62,1.63,1.86,1.63a3,3,0,0,0,2.14-.77,2.7,2.7,0,0,0,.8-2Z"/><path class="cls-1" d="M148.75,167.62c0-1.25.69-1.87,2.09-1.87s2.09.62,2.09,1.87a1.85,1.85,0,0,1-.52,1.39,2.18,2.18,0,0,1-1.57.5C149.44,169.51,148.75,168.88,148.75,167.62Zm4,17.72h-3.84V171.26h3.84Z"/><path class="cls-1" d="M169.78,185.34h-3.84v-8.22a4,4,0,0,0-.54-2.29,2,2,0,0,0-1.73-.76,2.6,2.6,0,0,0-2.33,1.08,6.67,6.67,0,0,0-.72,3.57v6.62h-3.84V171.26h2.94l.51,1.8h.22a4.08,4.08,0,0,1,1.77-1.54,6,6,0,0,1,2.56-.52,4.91,4.91,0,0,1,3.73,1.33,5.3,5.3,0,0,1,1.27,3.83Z"/><path class="cls-1" d="M180.11,185.6a7.29,7.29,0,0,1-5.32-1.88,7.13,7.13,0,0,1-1.91-5.32,7.81,7.81,0,0,1,1.77-5.47,6.29,6.29,0,0,1,4.89-1.93,6.19,6.19,0,0,1,4.65,1.7,6.42,6.42,0,0,1,1.66,4.7v1.86h-9.08a3.73,3.73,0,0,0,1,2.56,3.43,3.43,0,0,0,2.55.92,10.32,10.32,0,0,0,2.4-.27,11.27,11.27,0,0,0,2.37-.84v3a8.7,8.7,0,0,1-2.15.75A13.9,13.9,0,0,1,180.11,185.6Zm-.54-11.87a2.44,2.44,0,0,0-1.92.78,3.57,3.57,0,0,0-.79,2.19h5.39a3.18,3.18,0,0,0-.74-2.19A2.52,2.52,0,0,0,179.57,173.73Z"/><path class="cls-1" d="M196.84,171a6.52,6.52,0,0,1,1.29.11l-.29,3.6a4.55,4.55,0,0,0-1.13-.12,4.06,4.06,0,0,0-2.86.94,3.4,3.4,0,0,0-1,2.65v7.16H189V171.26h2.91l.56,2.37h.19a5.33,5.33,0,0,1,1.77-1.91A4.4,4.4,0,0,1,196.84,171Z"/><path class="cls-1" d="M199.44,180v-3.15h6.77V180Z"/><path class="cls-1" d="M218.82,181.16a3.85,3.85,0,0,1-1.51,3.3,7.39,7.39,0,0,1-4.5,1.14,13.94,13.94,0,0,1-2.62-.21,10,10,0,0,1-2-.61V181.6a13.32,13.32,0,0,0,2.41.85,10.15,10.15,0,0,0,2.37.34c1.39,0,2.09-.41,2.09-1.21a1,1,0,0,0-.28-.74,4.24,4.24,0,0,0-1-.64c-.45-.24-1.06-.52-1.81-.84a11,11,0,0,1-2.39-1.26,3.48,3.48,0,0,1-1.11-1.33,4.38,4.38,0,0,1-.34-1.84,3.36,3.36,0,0,1,1.45-2.91,7.14,7.14,0,0,1,4.13-1,11.74,11.74,0,0,1,4.95,1.11l-1.16,2.77q-1.06-.45-2-.75a6.31,6.31,0,0,0-1.88-.29c-1.13,0-1.7.31-1.7.92a1.09,1.09,0,0,0,.55.9,16,16,0,0,0,2.4,1.12,10.72,10.72,0,0,1,2.42,1.25,3.63,3.63,0,0,1,1.13,1.33A4,4,0,0,1,218.82,181.16Z"/><path class="cls-1" d="M234.61,178.28a7.58,7.58,0,0,1-1.81,5.38,6.58,6.58,0,0,1-5.05,1.94,7.1,7.1,0,0,1-3.58-.89,5.88,5.88,0,0,1-2.38-2.55,8.63,8.63,0,0,1-.83-3.88,7.55,7.55,0,0,1,1.8-5.37,6.63,6.63,0,0,1,5.06-1.91,7.06,7.06,0,0,1,3.58.88,5.88,5.88,0,0,1,2.38,2.53A8.42,8.42,0,0,1,234.61,178.28Zm-9.73,0a5.89,5.89,0,0,0,.68,3.16,2.48,2.48,0,0,0,2.24,1.07,2.42,2.42,0,0,0,2.21-1.06,6,6,0,0,0,.67-3.17,5.76,5.76,0,0,0-.68-3.14,2.46,2.46,0,0,0-2.23-1,2.43,2.43,0,0,0-2.21,1A5.74,5.74,0,0,0,224.88,178.28Z"/><path class="cls-1" d="M241.63,185.34h-3.84V165.75h3.84Z"/><path class="cls-1" d="M255.64,185.34l-.52-1.8h-.2a4.07,4.07,0,0,1-1.75,1.52,6,6,0,0,1-2.59.54,4.94,4.94,0,0,1-3.74-1.33,5.36,5.36,0,0,1-1.26-3.83v-9.18h3.85v8.23a3.93,3.93,0,0,0,.54,2.28,2,2,0,0,0,1.72.77,2.59,2.59,0,0,0,2.33-1.08,6.67,6.67,0,0,0,.72-3.57v-6.63h3.84v14.08Z"/><path class="cls-1" d="M268.55,182.54a8.13,8.13,0,0,0,2.41-.45V185a8.54,8.54,0,0,1-3.52.65,4.31,4.31,0,0,1-3.36-1.17,5.07,5.07,0,0,1-1.05-3.49v-6.79h-1.84v-1.63l2.12-1.28,1.1-3h2.46v3h3.94v2.89h-3.94v6.79a1.5,1.5,0,0,0,.46,1.21A1.82,1.82,0,0,0,268.55,182.54Z"/><path class="cls-1" d="M273.65,167.62c0-1.25.69-1.87,2.09-1.87s2.09.62,2.09,1.87a1.81,1.81,0,0,1-.52,1.39,2.16,2.16,0,0,1-1.57.5C274.34,169.51,273.65,168.88,273.65,167.62Zm4,17.72h-3.84V171.26h3.84Z"/><path class="cls-1" d="M294.48,178.28a7.58,7.58,0,0,1-1.81,5.38,6.6,6.6,0,0,1-5.05,1.94,7.07,7.07,0,0,1-3.58-.89,5.88,5.88,0,0,1-2.38-2.55,8.5,8.5,0,0,1-.83-3.88,7.55,7.55,0,0,1,1.8-5.37,6.63,6.63,0,0,1,5.06-1.91,7.09,7.09,0,0,1,3.58.88,5.88,5.88,0,0,1,2.38,2.53A8.55,8.55,0,0,1,294.48,178.28Zm-9.74,0a5.88,5.88,0,0,0,.69,3.16,2.46,2.46,0,0,0,2.24,1.07,2.42,2.42,0,0,0,2.21-1.06,6,6,0,0,0,.67-3.17,5.86,5.86,0,0,0-.68-3.14,2.9,2.9,0,0,0-4.45,0A5.83,5.83,0,0,0,284.74,178.28Z"/><path class="cls-1" d="M310.65,185.34h-3.84v-8.22a4,4,0,0,0-.54-2.29,2,2,0,0,0-1.72-.76,2.58,2.58,0,0,0-2.33,1.08,6.67,6.67,0,0,0-.72,3.57v6.62h-3.84V171.26h2.93l.52,1.8h.21a4.08,4.08,0,0,1,1.77-1.54,6,6,0,0,1,2.56-.52,4.91,4.91,0,0,1,3.73,1.33,5.3,5.3,0,0,1,1.27,3.83Z"/><path class="cls-1" d="M324.43,181.16a3.87,3.87,0,0,1-1.5,3.3,7.41,7.41,0,0,1-4.5,1.14,13.94,13.94,0,0,1-2.62-.21,9.8,9.8,0,0,1-2-.61V181.6a13.32,13.32,0,0,0,2.41.85,10.07,10.07,0,0,0,2.36.34c1.4,0,2.09-.41,2.09-1.21a1,1,0,0,0-.27-.74,4.24,4.24,0,0,0-1-.64c-.45-.24-1.06-.52-1.82-.84a11.11,11.11,0,0,1-2.38-1.26,3.48,3.48,0,0,1-1.11-1.33,4.38,4.38,0,0,1-.35-1.84,3.37,3.37,0,0,1,1.46-2.91,7.1,7.1,0,0,1,4.12-1,11.67,11.67,0,0,1,4.95,1.11l-1.16,2.77c-.7-.3-1.36-.55-2-.75a6.36,6.36,0,0,0-1.88-.29c-1.13,0-1.7.31-1.7.92a1.07,1.07,0,0,0,.55.9,15,15,0,0,0,2.4,1.12,11,11,0,0,1,2.42,1.25,3.63,3.63,0,0,1,1.13,1.33A4.19,4.19,0,0,1,324.43,181.16Z"/><path class="cls-1" d="M326.89,183.54a2.13,2.13,0,0,1,.57-1.6,2.31,2.31,0,0,1,1.65-.54,2.26,2.26,0,0,1,1.62.56,2.44,2.44,0,0,1,0,3.15,2.2,2.2,0,0,1-1.61.57,2.24,2.24,0,0,1-1.64-.56A2.08,2.08,0,0,1,326.89,183.54Z"/><path class="cls-1" d="M340.51,185.6q-6.58,0-6.58-7.22a7.74,7.74,0,0,1,1.79-5.49,6.72,6.72,0,0,1,5.13-1.89,9.85,9.85,0,0,1,4.38.95l-1.13,3a16.69,16.69,0,0,0-1.69-.6,5.27,5.27,0,0,0-1.56-.23q-3,0-3,4.25t3,4.14a6.73,6.73,0,0,0,2-.3,7.52,7.52,0,0,0,1.89-.93v3.29a6.05,6.05,0,0,1-1.88.82A10.71,10.71,0,0,1,340.51,185.6Z"/><path class="cls-1" d="M360.85,178.28a7.63,7.63,0,0,1-1.81,5.38A6.61,6.61,0,0,1,354,185.6a7.06,7.06,0,0,1-3.57-.89,5.82,5.82,0,0,1-2.38-2.55,8.5,8.5,0,0,1-.83-3.88,7.55,7.55,0,0,1,1.8-5.37,6.63,6.63,0,0,1,5.06-1.91,7.12,7.12,0,0,1,3.58.88,5.94,5.94,0,0,1,2.38,2.53A8.55,8.55,0,0,1,360.85,178.28Zm-9.74,0a5.88,5.88,0,0,0,.69,3.16,2.46,2.46,0,0,0,2.23,1.07,2.42,2.42,0,0,0,2.22-1.06,6.1,6.1,0,0,0,.67-3.17,5.86,5.86,0,0,0-.68-3.14,2.9,2.9,0,0,0-4.45,0A5.83,5.83,0,0,0,351.11,178.28Z"/><path class="cls-1" d="M376.63,185.34h-3.84v-8.22a4.15,4.15,0,0,0-.51-2.29,1.82,1.82,0,0,0-1.61-.76,2.33,2.33,0,0,0-2.14,1.08,7.2,7.2,0,0,0-.66,3.57v6.62H364V171.26H367l.51,1.8h.22a3.88,3.88,0,0,1,1.64-1.51,5.23,5.23,0,0,1,2.45-.55q3.17,0,4.29,2.06h.34a3.78,3.78,0,0,1,1.66-1.52,5.62,5.62,0,0,1,2.49-.54,4.9,4.9,0,0,1,3.62,1.23,5.37,5.37,0,0,1,1.23,3.93v9.18h-3.85v-8.22a4.15,4.15,0,0,0-.51-2.29,1.82,1.82,0,0,0-1.61-.76,2.41,2.41,0,0,0-2.11,1,5.77,5.77,0,0,0-.7,3.2Z"/></g></g></svg>