<svg xmlns="http://www.w3.org/2000/svg" viewBox="0 0 375.69 108.65"><defs><style>.cls-1{fill:#fff;}.cls-2{fill:#00b1d0;}.cls-3{fill:#1ed6b3;}.cls-4{fill:#4fdb6d;}.cls-5{fill:#a2e538;}</style></defs><title>CS_logo_white</title><g id="Layer_2" data-name="Layer 2"><g id="Layer_1-2" data-name="Layer 1"><path class="cls-1" d="M80.3,108.64H30.7A30.61,30.61,0,0,1,15.33,51.51a21,21,0,0,1,20.1-27.89,20.84,20.84,0,0,1,6.39,1.09A42.41,42.41,0,0,1,80.3,0Z"/><rect class="cls-2" x="83.93" y="0.1" width="14.93" height="14.93"/><rect class="cls-3" x="102.59" y="0.1" width="14.93" height="14.93"/><rect class="cls-2" x="83.93" y="18.76" width="14.93" height="14.93"/><rect class="cls-3" x="102.59" y="18.76" width="14.93" height="14.93"/><rect class="cls-4" x="121.25" y="18.76" width="14.93" height="14.93"/><rect class="cls-2" x="83.93" y="37.42" width="14.93" height="14.93"/><rect class="cls-3" x="102.59" y="37.42" width="14.93" height="14.93"/><rect class="cls-4" x="121.25" y="37.42" width="14.93" height="14.93"/><rect class="cls-2" x="83.93" y="56.08" width="14.93" height="14.93"/><rect class="cls-3" x="102.59" y="56.08" width="14.93" height="14.93"/><rect class="cls-4" x="121.25" y="56.08" width="14.93" height="14.93"/><rect class="cls-5" x="139.91" y="56.08" width="14.93" height="14.93"/><rect class="cls-2" x="83.93" y="74.75" width="14.93" height="14.93"/><rect class="cls-3" x="102.59" y="74.75" width="14.93" height="14.93"/><rect class="cls-4" x="121.25" y="74.75" width="14.93" height="14.93"/><rect class="cls-5" x="139.91" y="74.75" width="14.93" height="14.93"/><rect class="cls-2" x="83.93" y="93.41" width="14.93" height="14.93"/><rect class="cls-3" x="102.59" y="93.41" width="14.93" height="14.93"/><rect class="cls-4" x="121.25" y="93.41" width="14.93" height="14.93"/><path class="cls-1" d="M175.12,43.37c0-11.41,7.13-18.08,16.61-18.08a17.89,17.89,0,0,1,8.88,2l-.87,2.21a19.52,19.52,0,0,0-8-1.52c-7.77,0-13.34,5.25-13.34,15.18,0,10.58,5.38,14.72,12.1,14.72a14.43,14.43,0,0,0,8.74-2.57l1.15,2.21a17.32,17.32,0,0,1-10.26,3.08C181.15,60.62,175.12,55.28,175.12,43.37Z"/><path class="cls-1" d="M226.51,48.06c0,8.28-4.19,12.56-10.77,12.56S205,56.34,205,48.06s4.18-12.56,10.76-12.56S226.51,39.73,226.51,48.06Zm-3.08,0c0-7.09-3.18-10.17-7.69-10.17s-7.68,3.08-7.68,10.17,3.13,10.12,7.68,10.12S223.43,55.1,223.43,48.06Z"/><path class="cls-1" d="M251.35,45.53V60H248.4V44.47c0-4.78-1.84-6.58-6-6.58a9.7,9.7,0,0,0-6.26,2.39V60h-3V36.19l3-.41v2.11a12.5,12.5,0,0,1,7.36-2.44c4.46,0,7.36,1.71,7.77,6.44C251.35,43,251.35,44,251.35,45.53Z"/><path class="cls-1" d="M270.76,59.47A10.19,10.19,0,0,1,266,60.62c-3.73,0-5.29-2.16-5.48-4.83-.09-1.24-.09-2.35-.09-4V38.4H257V36.1h3.49V30.16l2.95-.5V36.1h7.08l-.37,2.3H263.4V53c0,4,1.06,5.15,3.81,5.15a7.15,7.15,0,0,0,3-.59Z"/><path class="cls-1" d="M289.71,60.34,289.16,58a12.9,12.9,0,0,1-7.5,2.62c-4,0-7-1.84-7-7.22,0-4.83,3.82-7.27,9.71-7.27a23.66,23.66,0,0,1,4.65.5v-3c0-3.59-1.61-5.71-5.85-5.71a12.25,12.25,0,0,0-5.89,1.57l-.87-2a14.84,14.84,0,0,1,7.41-2c4.74,0,7.82,2.35,8.09,6.72.05,1.06.05,2.12.05,3.68v8.7a21,21,0,0,0,.6,5.42Zm-7-2.11a11.34,11.34,0,0,0,6.4-2.17V48.84a27.2,27.2,0,0,0-4.84-.37c-4,0-6.48,1.38-6.48,4.7S279.45,58.23,282.67,58.23Z"/><path class="cls-1" d="M300.24,27.31a6.39,6.39,0,0,1,2.95,0v3.82a6.39,6.39,0,0,1-2.95,0Zm.05,8.88,2.94-.41V60h-2.94Z"/><path class="cls-1" d="M329.91,45.53V60H327V44.47c0-4.78-1.84-6.58-6-6.58a9.74,9.74,0,0,0-6.26,2.39V60h-2.94V36.19l2.94-.41v2.11a12.5,12.5,0,0,1,7.37-2.44c4.46,0,7.36,1.71,7.77,6.44C329.91,43,329.91,44,329.91,45.53Z"/><path class="cls-1" d="M352.87,56.8l.69,2.16a17.18,17.18,0,0,1-7.64,1.66c-6.95,0-10-3.73-10-12.24,0-9.2,4-12.93,10-12.93,5.34,0,8,3.09,8.33,9.16.09,1.52.09,2.53.09,4h-15.5c.18,7.22,2.71,9.52,7.31,9.52A16,16,0,0,0,352.87,56.8Zm-14-10.49h12.56c-.14-6.44-1.75-8.42-5.7-8.42C341.59,37.89,339.16,40.19,338.88,46.31Z"/><path class="cls-1" d="M361.24,36.33l2.94-.42v3A5.2,5.2,0,0,1,369,35.45a4,4,0,0,1,2.49.69l-.33,2.49a7.33,7.33,0,0,0-2.44-.37,4.78,4.78,0,0,0-4.55,3.27V60h-2.94Z"/><path class="cls-1" d="M174.13,104.32l1.31-5.76a21.07,21.07,0,0,0,8.46,1.8c3.69,0,5.31-1.67,5.31-3.51s-1.17-3.2-5.72-5.13c-4.72-2-8.1-4.19-8.1-9.54,0-5.58,5-10.08,12.2-10.08A19.73,19.73,0,0,1,196.41,74l-1.31,5.54a21,21,0,0,0-6.75-1.17c-2.34,0-4.68,1.17-4.68,3s1.08,3.24,5,4.77c5.45,2.12,8.78,4.68,8.78,9.54,0,6.89-6,10.94-14.09,10.94A19.3,19.3,0,0,1,174.13,104.32Z"/><path class="cls-1" d="M225.25,94.33c0,8.19-4.86,12.51-12.6,12.51s-12.6-4.32-12.6-12.51,4.86-12.51,12.6-12.51S225.25,86.14,225.25,94.33Zm-8.1,0c0-4.41-1.39-6.39-4.5-6.39s-4.5,2-4.5,6.39,1.4,6.39,4.5,6.39S217.15,98.74,217.15,94.33Z"/><path class="cls-1" d="M229.08,72.5l8.1-.45v34h-8.1Z"/><path class="cls-1" d="M265,82.22V106h-8.1v-1.94a12,12,0,0,1-6.8,2.39c-5.26,0-7.83-2.79-8.19-7.34-.09-1-.09-2.56-.09-4.09V82.67l8.1-.45V95.5c0,3.46,1,4.86,3.56,4.86a5.4,5.4,0,0,0,3.42-1.4V82.67Z"/><path class="cls-1" d="M286.18,100.27l.63,4.9a18.82,18.82,0,0,1-7.69,1.53c-4.41,0-6.48-2.07-6.8-5.22a49.31,49.31,0,0,1-.22-5.94V88.3h-3.42V82.45h3.42V77.72l8.1-2.29v7H287l-.81,5.85H280.2V96c0,3.51.76,4.63,3.42,4.63A10.7,10.7,0,0,0,286.18,100.27Z"/><path class="cls-1" d="M290.28,72a34.29,34.29,0,0,1,8.1,0v6.93a35.39,35.39,0,0,1-8.1,0Zm0,10.66,8.1-.45V106h-8.1Z"/><path class="cls-1" d="M327.4,94.33c0,8.19-4.86,12.51-12.6,12.51s-12.6-4.32-12.6-12.51,4.86-12.51,12.6-12.51S327.4,86.14,327.4,94.33Zm-8.1,0c0-4.41-1.39-6.39-4.5-6.39s-4.5,2-4.5,6.39,1.4,6.39,4.5,6.39S319.3,98.74,319.3,94.33Z"/><path class="cls-1" d="M354.4,93.25V106h-8.1V92.8c0-3.47-.9-4.86-3.64-4.86a5.29,5.29,0,0,0-3.33,1.3V106h-8.1V82.67l8.1-.45v1.85a12.8,12.8,0,0,1,6.79-2.25c5.27,0,7.79,2.79,8.19,7.33C354.4,90.19,354.4,91.72,354.4,93.25Z"/><path class="cls-1" d="M357.91,104.72,359,99.41a14.12,14.12,0,0,0,6.66,1.58c1.67,0,2.25-.59,2.25-1.58s-.9-1.8-3.19-2.83c-3.65-1.67-5.9-3.42-5.9-7.61,0-4.86,4.59-7.15,9.18-7.15a13.36,13.36,0,0,1,6.84,1.57l-.72,5.09a13.78,13.78,0,0,0-5.4-1c-1.44,0-2.2.63-2.2,1.48,0,1,1.39,1.8,3.6,2.79,4.14,1.8,5.58,4,5.58,7.56,0,5.18-4.32,7.34-9.77,7.34A15.92,15.92,0,0,1,357.91,104.72Z"/></g></g></svg>