<svg xmlns="http://www.w3.org/2000/svg" viewBox="0 0 877.88 1078.64"><defs><style>.cls-1,.cls-10,.cls-11,.cls-12,.cls-13,.cls-2,.cls-3,.cls-4,.cls-5,.cls-6,.cls-7,.cls-8,.cls-9{fill:none;}.cls-10,.cls-11,.cls-12,.cls-13,.cls-2,.cls-3,.cls-4,.cls-5,.cls-6,.cls-7,.cls-8,.cls-9{stroke:#1ed6b3;stroke-miterlimit:10;stroke-width:0.5px;}.cls-2{stroke-dasharray:4.17 4.17;}.cls-4{stroke-dasharray:4.22 4.22;}.cls-5{stroke-dasharray:4.16 4.16;}.cls-6{stroke-dasharray:4.16 4.16;}.cls-7{stroke-dasharray:2.5 2.5;}.cls-8{stroke-dasharray:2.4 2.4;}.cls-9{stroke-dasharray:4.18 4.18;}.cls-10{stroke-dasharray:4.03 4.03;}.cls-11{stroke-dasharray:2.38 2.38;}.cls-12{stroke-dasharray:4.12 4.12;}.cls-13{stroke-dasharray:2.78 2.78;}</style></defs><title>pattern</title><g id="Layer_2" data-name="Layer 2"><g id="Layer_1-2" data-name="Layer 1"><rect class="cls-1" width="635.78" height="1078.64"/><circle class="cls-2" cx="186" cy="466.21" r="179.5"/><path class="cls-3" d="M241.35,279.66q.85-1.19,1.74-2.37"/><path class="cls-4" d="M246.71,272.59A179.56,179.56,0,0,1,550,309.28"/><path class="cls-3" d="M551.26,312c.4.89.78,1.79,1.17,2.68"/><path class="cls-3" d="M264,296.41c.57-.79,1.15-1.58,1.74-2.36"/><path class="cls-5" d="M269.35,289.43a155.07,155.07,0,0,1,260.94,31.86"/><path class="cls-3" d="M531.51,324c.4.9.79,1.79,1.17,2.69"/><path class="cls-3" d="M525.12,529.32l2.36,1.74"/><path class="cls-5" d="M532.1,534.67a155.06,155.06,0,0,1-31.86,260.94"/><path class="cls-3" d="M497.57,796.83,494.88,798"/><path class="cls-3" d="M350.5,528.41c-.42.88-.84,1.76-1.27,2.64"/><path class="cls-5" d="M346.58,536.28a189.36,189.36,0,0,1-205,97.32"/><path class="cls-3" d="M138.7,633l-2.86-.65"/><line class="cls-6" x1="379.85" y1="220.3" x2="379.85" y2="760.59"/><polyline class="cls-6" points="689.96 829.44 689.96 289.15 652.66 289.15 652.66 448.65"/><line class="cls-6" x1="254.21" y1="279.54" x2="254.21" y2="455.89"/><line class="cls-3" x1="372.67" y1="537.11" x2="372.67" y2="761.04"/><line class="cls-3" x1="206.64" y1="466.21" x2="74.71" y2="607.12"/><line class="cls-6" x1="325.11" y1="582.89" x2="213.82" y2="582.89"/><line class="cls-6" x1="176.12" y1="636.73" x2="176.12" y2="520.96"/><path class="cls-3" d="M310.86,483.6a49.82,49.82,0,1,1,57.33-49.25"/><path class="cls-3" d="M326.86,513a26.19,26.19,0,1,1-35.8-17.21"/><path class="cls-6" d="M380.62,752.74a26.19,26.19,0,1,1,13.93-37.21"/><path class="cls-7" d="M301.77,442a26,26,0,1,1,26-26A26,26,0,0,1,301.77,442Z"/><circle class="cls-3" cx="361.01" cy="519.16" r="9.87" transform="translate(-256.79 654.02) rotate(-67.5)"/><path class="cls-7" d="M342.61,561.35A10.33,10.33,0,1,1,352.93,551,10.32,10.32,0,0,1,342.61,561.35Z"/><path class="cls-7" d="M256.23,518.49a10.32,10.32,0,1,1,10.32-10.32A10.33,10.33,0,0,1,256.23,518.49Z"/><path class="cls-7" d="M361,775.06A16.08,16.08,0,1,1,377.09,759,16.08,16.08,0,0,1,361,775.06Z"/><path class="cls-7" d="M377.08,782.24a16.08,16.08,0,1,1,16.08-16.08A16.08,16.08,0,0,1,377.08,782.24Z"/><path class="cls-7" d="M161.77,450.06a5.39,5.39,0,1,1,5.38-5.39A5.39,5.39,0,0,1,161.77,450.06Z"/><path class="cls-7" d="M79.2,418.65a5.39,5.39,0,1,1,5.38-5.39A5.39,5.39,0,0,1,79.2,418.65Z"/><circle class="cls-8" cx="112.4" cy="369.73" r="10.77" transform="translate(-264.37 455.64) rotate(-85.93)"/><circle class="cls-7" cx="204.84" cy="466.21" r="10.77" transform="translate(-288.16 593.73) rotate(-80.78)"/><line class="cls-3" x1="332.29" y1="459.03" x2="284.72" y2="459.03"/><line class="cls-3" x1="213.82" y1="540.7" x2="213.82" y2="582.89"/><line class="cls-3" x1="213.82" y1="483.26" x2="213.82" y2="441.98"/><line class="cls-3" x1="176.12" y1="425.83" x2="206.64" y2="450.06"/><circle class="cls-3" cx="208.43" cy="462.62" r="10.77" transform="translate(-281.6 594.26) rotate(-80.78)"/><path class="cls-3" d="M256.23,511.76a3.59,3.59,0,1,1,3.58-3.59A3.59,3.59,0,0,1,256.23,511.76Z"/><path class="cls-7" d="M398.35,680.88a10.32,10.32,0,1,1,10.32-10.32A10.33,10.33,0,0,1,398.35,680.88Z"/><path class="cls-7" d="M478.14,668.15a7.81,7.81,0,1,1,7.8-7.81A7.81,7.81,0,0,1,478.14,668.15Z"/><path class="cls-7" d="M459.44,738.77A10.56,10.56,0,1,1,470,728.21,10.56,10.56,0,0,1,459.44,738.77Z"/><path class="cls-7" d="M422.71,697.15a5.28,5.28,0,1,1,5.28-5.28A5.27,5.27,0,0,1,422.71,697.15Z"/><circle class="cls-3" cx="398.35" cy="670.56" r="3.59" transform="translate(-357.49 478.08) rotate(-45)"/><path class="cls-3" d="M325.11,513.78a3.59,3.59,0,1,1,3.59-3.59A3.59,3.59,0,0,1,325.11,513.78Z"/><path class="cls-3" d="M521.84,532a3.59,3.59,0,1,1,3.59-3.59A3.59,3.59,0,0,1,521.84,532Z"/><path class="cls-3" d="M314.79,487.75a3.59,3.59,0,1,1,3.59-3.59A3.58,3.58,0,0,1,314.79,487.75Z"/><path class="cls-3" d="M368.35,438.27a2,2,0,1,1,2-2A2,2,0,0,1,368.35,438.27Z"/><path class="cls-3" d="M385.63,688.55a2,2,0,1,1,2-2A2,2,0,0,1,385.63,688.55Z"/><path class="cls-3" d="M377.08,693.83a2,2,0,1,1,2-2A2,2,0,0,1,377.08,693.83Z"/><path class="cls-3" d="M295.83,448.65a2,2,0,1,1,2-2A2,2,0,0,1,295.83,448.65Z"/><path class="cls-3" d="M208.43,466.26a2,2,0,1,1,2-2A2,2,0,0,1,208.43,466.26Z"/><path class="cls-3" d="M176.12,377.24a2,2,0,1,1,2-2A1.95,1.95,0,0,1,176.12,377.24Z"/><path class="cls-3" d="M161.77,369.67a2,2,0,1,1,2-2A2,2,0,0,1,161.77,369.67Z"/><path class="cls-3" d="M177.77,486.12a2,2,0,1,1,2-2A2,2,0,0,1,177.77,486.12Z"/><path class="cls-3" d="M213.82,492.41a2,2,0,1,1,2-2A2,2,0,0,1,213.82,492.41Z"/><path class="cls-3" d="M213.82,535a2,2,0,1,1,2-2A2,2,0,0,1,213.82,535Z"/><path class="cls-3" d="M281.13,461a2,2,0,1,1,2-2A2,2,0,0,1,281.13,461Z"/><path class="cls-3" d="M112.4,373.32a3.59,3.59,0,1,1,3.59-3.59A3.59,3.59,0,0,1,112.4,373.32Z"/><circle class="cls-8" cx="414.37" cy="411.92" r="10.77" transform="translate(-58.6 754.95) rotate(-80.78)"/><path class="cls-3" d="M414.37,415.51a3.59,3.59,0,1,1,3.59-3.59A3.59,3.59,0,0,1,414.37,415.51Z"/><circle class="cls-8" cx="558.38" cy="245.95" r="10.77" transform="translate(117.47 667.7) rotate(-67.5)"/><path class="cls-3" d="M558.38,249.54A3.59,3.59,0,1,1,562,246,3.59,3.59,0,0,1,558.38,249.54Z"/><circle class="cls-8" cx="366.39" cy="755.39" r="10.77" transform="matrix(0.85, -0.53, 0.53, 0.85, -342.41, 305.44)"/><path class="cls-3" d="M366.39,759a3.59,3.59,0,1,1,3.59-3.59A3.59,3.59,0,0,1,366.39,759Z"/><circle class="cls-3" cx="84.58" cy="424.03" r="3.59"/><path class="cls-3" d="M71.12,613.4a3.59,3.59,0,1,1,3.59-3.59A3.59,3.59,0,0,1,71.12,613.4Z"/><circle class="cls-3" cx="281.13" cy="414.16" r="10.77" transform="translate(-172.71 625.32) rotate(-80.78)"/><path class="cls-3" d="M281.13,417.75a3.59,3.59,0,1,1,3.59-3.59A3.59,3.59,0,0,1,281.13,417.75Z"/><path class="cls-3" d="M292.8,491.34a3.59,3.59,0,1,1,3.59-3.59A3.58,3.58,0,0,1,292.8,491.34Z"/><path class="cls-3" d="M284.72,619.68a3.59,3.59,0,1,1,3.59-3.59A3.59,3.59,0,0,1,284.72,619.68Z"/><path class="cls-3" d="M58.55,339.67a5.39,5.39,0,1,1,5.39-5.39A5.38,5.38,0,0,1,58.55,339.67Z"/><line class="cls-3" x1="62.59" y1="330.24" x2="54.52" y2="338.32"/><path class="cls-3" d="M722.7,344.34a5.39,5.39,0,1,1,5.38-5.39A5.39,5.39,0,0,1,722.7,344.34Z"/><line class="cls-3" x1="726.74" y1="334.91" x2="718.66" y2="342.99"/><path class="cls-3" d="M673.55,395.31a5.39,5.39,0,1,1,5.38-5.38A5.38,5.38,0,0,1,673.55,395.31Z"/><line class="cls-3" x1="677.59" y1="385.89" x2="669.51" y2="393.97"/><path class="cls-3" d="M173.88,425.38A9.43,9.43,0,1,1,183.3,416,9.43,9.43,0,0,1,173.88,425.38Z"/><line class="cls-3" x1="180.95" y1="408.89" x2="166.81" y2="423.02"/><circle class="cls-3" cx="677.15" cy="254.25" r="9.42" transform="translate(183.12 782.56) rotate(-67.5)"/><line class="cls-3" x1="684.22" y1="247.19" x2="670.09" y2="261.32"/><path class="cls-3" d="M643.24,295.91a9.42,9.42,0,1,1,9.42-9.42A9.41,9.41,0,0,1,643.24,295.91Z"/><line class="cls-3" x1="650.31" y1="279.42" x2="636.17" y2="293.56"/><path class="cls-3" d="M381.65,641.22a9.42,9.42,0,1,1,9.42-9.42A9.42,9.42,0,0,1,381.65,641.22Z"/><line class="cls-3" x1="388.72" y1="624.73" x2="374.58" y2="638.87"/><circle class="cls-3" cx="296.39" cy="431.32" r="3.03" transform="translate(-176.84 654.79) rotate(-80.78)"/><line class="cls-3" x1="298.66" y1="429.05" x2="294.12" y2="433.59"/><path class="cls-3" d="M56.39,593.66a5.39,5.39,0,1,1,5.38-5.39A5.39,5.39,0,0,1,56.39,593.66Z"/><line class="cls-3" x1="60.43" y1="584.23" x2="52.35" y2="592.31"/><rect class="cls-3" x="215.28" y="566.47" width="3.93" height="14.92"/><rect class="cls-3" x="177.77" y="504.44" width="1.96" height="7.46"/><rect class="cls-3" x="362.66" y="835.95" width="7.46" height="1.96"/><rect class="cls-3" x="493.16" y="706.31" width="7.46" height="1.96"/><rect class="cls-3" x="493.16" y="696.36" width="7.46" height="1.96"/><rect class="cls-3" x="494.45" y="674.21" width="4.88" height="18.56"/><rect class="cls-3" x="426.93" y="709.59" width="4.89" height="18.56"/><rect class="cls-3" x="505.5" y="702.62" width="7.46" height="1.96"/><rect class="cls-3" x="100.06" y="791.17" width="1.96" height="7.46"/><rect class="cls-3" x="310.15" y="700.56" width="7.46" height="1.96"/><rect class="cls-3" x="96.36" y="778.83" width="1.96" height="7.46"/><rect class="cls-3" x="660.52" y="848.71" width="1.96" height="7.46"/><rect class="cls-3" x="656.83" y="836.37" width="1.96" height="7.46"/><rect class="cls-3" x="192.76" y="714.6" width="1.96" height="7.46"/><rect class="cls-3" x="189.06" y="702.26" width="1.96" height="7.46"/><rect class="cls-3" x="301.77" y="446.84" width="1.96" height="7.46"/><rect class="cls-3" x="168.41" y="504.44" width="1.96" height="7.46"/><rect class="cls-3" x="212.02" y="417.95" width="3.59" height="3.59"/><rect class="cls-3" x="292.24" y="504.8" width="3.59" height="3.59"/><rect class="cls-3" x="273.95" y="541.45" width="3.59" height="3.59"/><rect class="cls-3" x="443.69" y="630" width="3.59" height="3.59"/><rect class="cls-3" x="491.37" y="796.2" width="3.59" height="3.59"/><rect class="cls-3" x="435.57" y="736.97" width="3.59" height="3.59"/><rect class="cls-3" x="464.05" y="639.43" width="3.59" height="3.59"/><rect class="cls-3" x="337.01" y="457.24" width="3.59" height="3.59"/><rect class="cls-3" x="292.07" y="457.24" width="3.59" height="3.59"/><path class="cls-3" d="M393.86,134.18a49.82,49.82,0,1,0-74.46-12.92"/><path class="cls-3" d="M395.19,167.63a26.19,26.19,0,1,0,21.93-33.13"/><path class="cls-7" d="M380.34,93.78a26,26,0,1,0-35.69-9A26,26,0,0,0,380.34,93.78Z"/><path class="cls-7" d="M458.66,136.14a10.32,10.32,0,1,0-14.15-3.58A10.31,10.31,0,0,0,458.66,136.14Z"/><line class="cls-3" x1="362.87" y1="124.06" x2="403.72" y2="99.68"/><path class="cls-3" d="M455.21,130.36a3.59,3.59,0,1,0-4.92-1.24A3.59,3.59,0,0,0,455.21,130.36Z"/><path class="cls-3" d="M392.62,139.75a3.59,3.59,0,1,0-4.92-1.24A3.58,3.58,0,0,0,392.62,139.75Z"/><path class="cls-3" d="M388.87,96.46a2,2,0,1,0-2.69-.68A2,2,0,0,0,388.87,96.46Z"/><path class="cls-3" d="M407.81,99.53a2,2,0,1,0-2.69-.68A2,2,0,0,0,407.81,99.53Z"/><path class="cls-3" d="M389.33,68.56a10.77,10.77,0,1,0-14.77-3.73A10.78,10.78,0,0,0,389.33,68.56Z"/><path class="cls-3" d="M385.65,62.39a3.59,3.59,0,1,0-4.92-1.24A3.58,3.58,0,0,0,385.65,62.39Z"/><path class="cls-3" d="M413.34,131.57a3.59,3.59,0,1,0-4.92-1.25A3.59,3.59,0,0,0,413.34,131.57Z"/><path class="cls-3" d="M381.05,84.47a3,3,0,1,0-4.15-1A3,3,0,0,0,381.05,84.47Z"/><line class="cls-3" x1="376.39" y1="81.08" x2="382.62" y2="82.65"/><rect class="cls-3" x="382.92" y="97.93" width="1.96" height="7.46" transform="translate(2.14 211.06) rotate(-30.82)"/><rect class="cls-3" x="418.31" y="143.51" width="3.59" height="3.59" transform="translate(-15.1 235.86) rotate(-30.83)"/><rect class="cls-3" x="394.07" y="102.58" width="3.59" height="3.59" transform="translate(2.46 217.65) rotate(-30.83)"/><path class="cls-3" d="M491.21,549.3a49.81,49.81,0,1,1,57.32-49.25"/><path class="cls-3" d="M507.21,578.72a26.18,26.18,0,1,1-35.8-17.22"/><path class="cls-7" d="M482.12,507.68a26,26,0,1,1,26-26A26,26,0,0,1,482.12,507.68Z"/><path class="cls-7" d="M436.57,584.19a10.32,10.32,0,1,1,10.32-10.32A10.32,10.32,0,0,1,436.57,584.19Z"/><line class="cls-3" x1="512.63" y1="524.73" x2="465.07" y2="524.73"/><path class="cls-3" d="M505.45,579.48a3.59,3.59,0,1,1,3.59-3.59A3.58,3.58,0,0,1,505.45,579.48Z"/><path class="cls-3" d="M495.13,553.45a3.59,3.59,0,1,1,3.59-3.59A3.59,3.59,0,0,1,495.13,553.45Z"/><path class="cls-3" d="M476.17,514.35a2,2,0,1,1,2-2A2,2,0,0,1,476.17,514.35Z"/><path class="cls-3" d="M461.48,526.69a2,2,0,1,1,2-2A2,2,0,0,1,461.48,526.69Z"/><circle class="cls-3" cx="461.48" cy="479.86" r="10.77" transform="matrix(0.16, -0.99, 0.99, 0.16, -86.11, 858.51)"/><circle class="cls-3" cx="461.48" cy="479.86" r="3.59" transform="translate(-204.15 466.86) rotate(-45)"/><path class="cls-3" d="M473.14,557a3.59,3.59,0,1,1,3.59-3.59A3.58,3.58,0,0,1,473.14,557Z"/><path class="cls-3" d="M476.73,500.05a3,3,0,1,1,3-3A3,3,0,0,1,476.73,500.05Z"/><line class="cls-3" x1="479.01" y1="494.75" x2="474.46" y2="499.3"/><rect class="cls-3" x="482.12" y="512.54" width="1.96" height="7.46"/><rect class="cls-3" x="472.58" y="570.51" width="3.59" height="3.59"/><rect class="cls-3" x="472.42" y="522.94" width="3.59" height="3.59"/><rect class="cls-3" x="121.38" y="436.15" width="3.59" height="3.59"/><rect class="cls-3" x="36.51" y="460.83" width="3.59" height="3.59"/><rect class="cls-3" x="36.51" y="501.61" width="3.59" height="3.59"/><rect class="cls-3" x="32.92" y="503.41" width="3.59" height="3.59"/><rect class="cls-3" x="389.57" y="796.46" width="3.59" height="3.59"/><rect class="cls-3" x="385.98" y="798.26" width="3.59" height="3.59"/><rect class="cls-3" x="166.62" y="560.84" width="3.59" height="3.59"/><rect class="cls-3" x="154.59" y="538.91" width="3.59" height="3.59"/><rect class="cls-3" x="182.67" y="541.45" width="3.59" height="3.59"/><rect class="cls-3" x="159.97" y="549.23" width="3.59" height="3.59"/><line class="cls-6" x1="414.37" y1="761.49" x2="414.37" y2="645.71"/><line class="cls-6" x1="366.39" y1="832.94" x2="366.39" y2="612.5"/><rect class="cls-3" x="404.86" y="685.59" width="3.59" height="3.59"/><rect class="cls-3" x="392.83" y="663.66" width="3.59" height="3.59"/><rect class="cls-3" x="420.92" y="666.2" width="3.59" height="3.59"/><rect class="cls-3" x="398.21" y="673.98" width="3.59" height="3.59"/><rect class="cls-3" x="213.48" y="617.89" width="3.59" height="3.59"/><rect class="cls-3" x="213.98" y="637.62" width="3.59" height="3.59"/><rect class="cls-3" x="128.41" y="406.53" width="3.59" height="3.59"/><rect class="cls-3" x="172.09" y="391.83" width="3.59" height="3.59" transform="translate(-227.4 238.24) rotate(-45)"/><rect class="cls-3" x="167.6" y="315.42" width="3.59" height="3.59" transform="translate(-174.69 212.68) rotate(-45)"/><rect class="cls-3" x="192.28" y="230.17" width="3.59" height="3.59" transform="translate(-107.18 205.17) rotate(-45)"/><rect class="cls-3" x="248.3" y="230.17" width="3.59" height="3.59" transform="translate(-90.78 244.78) rotate(-45)"/><rect class="cls-3" x="148.45" y="310.34" width="3.59" height="3.59" transform="translate(-176.7 197.66) rotate(-45)"/><path class="cls-3" d="M352,346.52a2,2,0,1,1,2-2A2,2,0,0,1,352,346.52Z"/><path class="cls-3" d="M337.67,339a2,2,0,1,1,2-2A2,2,0,0,1,337.67,339Z"/><rect class="cls-3" x="347.99" y="361.11" width="3.59" height="3.59" transform="translate(-154.16 353.63) rotate(-45)"/><rect class="cls-3" x="343.51" y="284.7" width="3.59" height="3.59" transform="translate(-101.44 328.07) rotate(-45)"/><rect class="cls-3" x="324.36" y="279.62" width="3.59" height="3.59" transform="translate(-103.46 313.04) rotate(-45)"/><path class="cls-3" d="M283.59,717.31a2,2,0,1,1,2-2A2,2,0,0,1,283.59,717.31Z"/><path class="cls-3" d="M269.23,709.74a2,2,0,1,1,2-2A2,2,0,0,1,269.23,709.74Z"/><rect class="cls-3" x="275.06" y="655.49" width="3.59" height="3.59" transform="translate(-383.68 388.28) rotate(-45)"/><rect class="cls-3" x="255.92" y="650.41" width="3.59" height="3.59" transform="translate(-385.7 373.25) rotate(-45)"/><path class="cls-3" d="M580.37,673.44a2,2,0,1,1,2-2A2,2,0,0,1,580.37,673.44Z"/><path class="cls-3" d="M566,665.87a2,2,0,1,1,2-2A2,2,0,0,1,566,665.87Z"/><rect class="cls-3" x="576.33" y="688.02" width="3.59" height="3.59" transform="translate(-318.45 610.84) rotate(-45)"/><rect class="cls-3" x="571.84" y="611.61" width="3.59" height="3.59" transform="translate(-265.73 585.29) rotate(-45)"/><rect class="cls-3" x="552.7" y="606.54" width="3.59" height="3.59" transform="translate(-267.75 570.26) rotate(-45)"/><path class="cls-3" d="M535.06,408.16a2,2,0,1,1,2-2A2,2,0,0,1,535.06,408.16Z"/><path class="cls-3" d="M520.71,400.59a2,2,0,1,1,1.95-2A2,2,0,0,1,520.71,400.59Z"/><rect class="cls-3" x="531.03" y="422.75" width="3.59" height="3.59" transform="translate(-144.14 501.11) rotate(-45)"/><rect class="cls-3" x="526.54" y="346.34" width="3.59" height="3.59" transform="translate(-91.42 475.55) rotate(-45)"/><rect class="cls-3" x="507.39" y="341.26" width="3.59" height="3.59" transform="translate(-93.44 460.52) rotate(-45)"/><rect class="cls-3" x="219.65" y="437.49" width="3.59" height="3.59" transform="translate(-245.76 285.25) rotate(-45)"/><rect class="cls-3" x="224.48" y="479.83" width="3.59" height="3.59" transform="translate(-274.28 301.06) rotate(-45)"/><rect class="cls-3" x="292.05" y="559.55" width="3.59" height="3.59" transform="translate(-310.86 372.2) rotate(-45)"/><rect class="cls-3" x="398.21" y="595.64" width="3.59" height="3.59" transform="translate(-305.29 457.83) rotate(-45)"/><rect class="cls-3" x="351.13" y="658.37" width="3.59" height="3.59" transform="translate(-363.43 442.91) rotate(-45)"/><rect class="cls-3" x="126.61" y="408.33" width="3.59" height="3.59"/><rect class="cls-3" x="238.2" y="419.75" width="3.59" height="3.59"/><path class="cls-7" d="M339.23,840.1a5.39,5.39,0,1,1,5.38-5.38A5.38,5.38,0,0,1,339.23,840.1Z"/><circle class="cls-7" cx="382.31" cy="856.26" r="10.77" transform="translate(-548 974.03) rotate(-73.15)"/><line class="cls-3" x1="391.28" y1="873.31" x2="391.28" y2="832.02"/><line class="cls-3" x1="353.59" y1="815.87" x2="384.1" y2="840.1"/><circle class="cls-3" cx="385.9" cy="852.67" r="10.77" transform="translate(-542.01 974.92) rotate(-73.15)"/><path class="cls-3" d="M385.9,856.3a2,2,0,1,1,2-2A2,2,0,0,1,385.9,856.3Z"/><path class="cls-3" d="M355.23,876.17a2,2,0,1,1,2-2A2,2,0,0,1,355.23,876.17Z"/><path class="cls-3" d="M391.28,882.45a2,2,0,1,1,2-2A2,2,0,0,1,391.28,882.45Z"/><circle class="cls-3" cx="351.34" cy="806" r="9.42" transform="translate(-500.53 1023.7) rotate(-80.78)"/><line class="cls-3" x1="358.41" y1="798.93" x2="344.28" y2="813.07"/><rect class="cls-3" x="389.49" y="808" width="3.59" height="3.59"/><rect class="cls-3" x="397.11" y="827.54" width="3.59" height="3.59" transform="translate(-469.59 524.98) rotate(-45)"/><rect class="cls-3" x="401.94" y="869.87" width="3.59" height="3.59" transform="translate(-498.11 540.79) rotate(-45)"/><rect class="cls-3" x="415.66" y="809.79" width="3.59" height="3.59"/><rect class="cls-7" x="350.5" y="758.98" width="19.48" height="12.16"/><line class="cls-3" x1="603.13" y1="631.77" x2="603.13" y2="407.85"/><path class="cls-6" d="M595.19,416.15a26.19,26.19,0,1,1-13.93,37.21"/><path class="cls-7" d="M614.8,393.83a16.08,16.08,0,1,1-16.08,16.08A16.08,16.08,0,0,1,614.8,393.83Z"/><path class="cls-7" d="M598.72,386.65a16.08,16.08,0,1,1-16.07,16.08A16.08,16.08,0,0,1,598.72,386.65Z"/><path class="cls-7" d="M577.46,488a10.32,10.32,0,1,1-10.32,10.32A10.32,10.32,0,0,1,577.46,488Z"/><path class="cls-7" d="M497.67,500.74a7.81,7.81,0,1,1-7.8,7.81A7.81,7.81,0,0,1,497.67,500.74Z"/><path class="cls-7" d="M516.37,430.12a10.56,10.56,0,1,1-10.56,10.56A10.56,10.56,0,0,1,516.37,430.12Z"/><circle class="cls-7" cx="553.1" cy="477.01" r="5.28" transform="translate(-175.3 530.81) rotate(-45)"/><path class="cls-3" d="M577.46,494.74a3.59,3.59,0,1,1-3.59,3.59A3.58,3.58,0,0,1,577.46,494.74Z"/><path class="cls-3" d="M590.18,480.33a2,2,0,1,1-2,2A2,2,0,0,1,590.18,480.33Z"/><path class="cls-3" d="M598.72,475.05a2,2,0,1,1-2,2A2,2,0,0,1,598.72,475.05Z"/><circle class="cls-8" cx="609.42" cy="413.5" r="10.77" transform="translate(-113.89 552.03) rotate(-45)"/><path class="cls-3" d="M609.42,409.91a3.59,3.59,0,1,1-3.59,3.59A3.59,3.59,0,0,1,609.42,409.91Z"/><rect class="cls-3" x="475.19" y="460.61" width="7.46" height="1.96"/><rect class="cls-3" x="475.19" y="470.56" width="7.46" height="1.96"/><rect class="cls-3" x="476.48" y="476.11" width="4.88" height="18.56"/><rect class="cls-3" x="543.99" y="440.74" width="4.88" height="18.56"/><rect class="cls-3" x="521.71" y="603.22" width="4.88" height="18.56"/><rect class="cls-3" x="462.85" y="464.31" width="7.46" height="1.96"/><rect class="cls-3" x="480.85" y="369.1" width="3.59" height="3.59"/><rect class="cls-3" x="536.65" y="428.32" width="3.59" height="3.59"/><rect class="cls-3" x="582.65" y="368.84" width="3.59" height="3.59"/><rect class="cls-3" x="586.24" y="367.04" width="3.59" height="3.59"/><line class="cls-6" x1="561.44" y1="407.4" x2="561.44" y2="523.18"/><line class="cls-6" x1="609.42" y1="335.94" x2="609.42" y2="556.38"/><rect class="cls-3" x="567.36" y="479.71" width="3.59" height="3.59"/><rect class="cls-3" x="579.39" y="501.64" width="3.59" height="3.59"/><rect class="cls-3" x="551.3" y="499.1" width="3.59" height="3.59"/><rect class="cls-3" x="574.01" y="491.32" width="3.59" height="3.59"/><rect class="cls-3" x="621.08" y="506.93" width="3.59" height="3.59" transform="translate(-177.29 589.44) rotate(-45)"/><rect class="cls-7" x="605.83" y="397.75" width="19.48" height="12.16"/><line class="cls-3" x1="360.23" y1="300.7" x2="360.23" y2="76.77"/><path class="cls-6" d="M368.17,85.07a26.19,26.19,0,1,0,13.94,37.21"/><path class="cls-7" d="M348.56,62.75a16.08,16.08,0,1,0,16.08,16.08A16.07,16.07,0,0,0,348.56,62.75Z"/><path class="cls-7" d="M364.64,55.57a16.08,16.08,0,1,0,16.08,16.08A16.08,16.08,0,0,0,364.64,55.57Z"/><circle class="cls-8" cx="353.95" cy="82.42" r="10.77" transform="translate(237.05 426.52) rotate(-84.35)"/><path class="cls-3" d="M354,78.83a3.59,3.59,0,1,0,3.59,3.59A3.59,3.59,0,0,0,354,78.83Z"/><rect class="cls-3" x="377.13" y="37.76" width="3.59" height="3.59"/><rect class="cls-3" x="373.54" y="35.97" width="3.59" height="3.59"/><path class="cls-3" d="M706.38,793.72a49.81,49.81,0,1,0-74.46-12.91"/><path class="cls-7" d="M692.86,753.33a26,26,0,1,0-35.69-9A26,26,0,0,0,692.86,753.33Z"/><line class="cls-3" x1="675.39" y1="783.61" x2="716.24" y2="759.23"/><path class="cls-3" d="M701.38,756a2,2,0,1,0-2.68-.68A2,2,0,0,0,701.38,756Z"/><path class="cls-3" d="M720.33,759.08a2,2,0,1,0-2.69-.68A2,2,0,0,0,720.33,759.08Z"/><path class="cls-3" d="M701.85,728.11a10.77,10.77,0,1,0-14.77-3.73A10.79,10.79,0,0,0,701.85,728.11Z"/><path class="cls-3" d="M698.17,721.94a3.59,3.59,0,1,0-4.92-1.24A3.58,3.58,0,0,0,698.17,721.94Z"/><path class="cls-3" d="M693.57,744a3,3,0,1,0-4.15-1A3,3,0,0,0,693.57,744Z"/><line class="cls-3" x1="688.91" y1="740.63" x2="695.14" y2="742.2"/><rect class="cls-3" x="695.44" y="757.48" width="1.96" height="7.46" transform="translate(-291.67 464.35) rotate(-30.82)"/><rect class="cls-3" x="706.59" y="762.12" width="3.59" height="3.59" transform="translate(-291.42 471.05) rotate(-30.83)"/><path class="cls-7" d="M677.16,715.12a16.08,16.08,0,1,0,16.08,16.08A16.08,16.08,0,0,0,677.16,715.12Z"/><rect class="cls-3" x="689.65" y="697.31" width="3.59" height="3.59"/><rect class="cls-3" x="686.06" y="695.52" width="3.59" height="3.59"/><line class="cls-6" x1="353.95" y1="4.87" x2="353.95" y2="225.31"/><rect class="cls-7" x="338.05" y="66.67" width="19.48" height="12.16"/><line class="cls-3" x1="487.39" y1="482.2" x2="487.39" y2="258.28"/><line class="cls-3" x1="595.06" y1="459.3" x2="371.14" y2="459.3"/><line class="cls-3" x1="427.75" y1="300.7" x2="203.83" y2="300.7"/><path class="cls-6" d="M479.45,266.58a26.18,26.18,0,1,1-13.93,37.2"/><path class="cls-7" d="M499.06,244.26A16.08,16.08,0,1,1,483,260.33,16.07,16.07,0,0,1,499.06,244.26Z"/><path class="cls-7" d="M483,237.08a16.08,16.08,0,1,1-16.08,16.07A16.07,16.07,0,0,1,483,237.08Z"/><path class="cls-7" d="M461.72,338.43a10.32,10.32,0,1,1-10.32,10.32A10.32,10.32,0,0,1,461.72,338.43Z"/><path class="cls-7" d="M437.36,322.16a5.28,5.28,0,1,1-5.28,5.28A5.28,5.28,0,0,1,437.36,322.16Z"/><path class="cls-3" d="M461.72,345.16a3.59,3.59,0,1,1-3.59,3.59A3.59,3.59,0,0,1,461.72,345.16Z"/><path class="cls-3" d="M474.44,330.76a2,2,0,1,1-2,2A2,2,0,0,1,474.44,330.76Z"/><path class="cls-3" d="M483,325.48a2,2,0,1,1-2,2A2,2,0,0,1,483,325.48Z"/><circle class="cls-8" cx="493.67" cy="263.92" r="10.77" transform="translate(154.08 708.95) rotate(-80.78)"/><path class="cls-3" d="M493.67,260.33a3.59,3.59,0,1,1-3.58,3.59A3.59,3.59,0,0,1,493.67,260.33Z"/><rect class="cls-3" x="466.91" y="219.26" width="3.59" height="3.59"/><rect class="cls-3" x="470.5" y="217.47" width="3.59" height="3.59"/><line class="cls-6" x1="445.7" y1="257.83" x2="445.7" y2="373.6"/><line class="cls-6" x1="493.67" y1="186.37" x2="493.67" y2="406.81"/><line class="cls-6" x1="553.1" y1="550.76" x2="553.1" y2="771.2"/><line class="cls-6" x1="247.73" y1="617.99" x2="247.73" y2="838.43"/><line class="cls-6" x1="91.24" y1="146.5" x2="91.24" y2="366.94"/><rect class="cls-3" x="451.62" y="330.13" width="3.59" height="3.59"/><rect class="cls-3" x="463.65" y="352.06" width="3.59" height="3.59"/><rect class="cls-3" x="435.56" y="349.52" width="3.59" height="3.59"/><rect class="cls-3" x="458.27" y="341.74" width="3.59" height="3.59"/><rect class="cls-3" x="505.34" y="357.35" width="3.59" height="3.59" transform="translate(-105.42 463.79) rotate(-45)"/><rect class="cls-3" x="590.11" y="718.89" width="3.59" height="3.59" transform="translate(-336.24 629.61) rotate(-45)"/><rect class="cls-3" x="595.18" y="699.75" width="3.59" height="3.59" transform="translate(-321.21 627.6) rotate(-45)"/><rect class="cls-3" x="567.35" y="673.21" width="3.59" height="3.59"/><line class="cls-3" x1="457.83" y1="679.75" x2="681.76" y2="679.75"/><path class="cls-7" d="M601.6,654.08a10.32,10.32,0,1,1-10.32-10.32A10.32,10.32,0,0,1,601.6,654.08Z"/><line class="cls-6" x1="753.67" y1="686.03" x2="533.22" y2="686.03"/><rect class="cls-3" x="584.38" y="656" width="3.59" height="3.59"/><rect class="cls-3" x="579.09" y="697.7" width="3.59" height="3.59" transform="translate(-324.48 615.63) rotate(-45)"/><path class="cls-3" d="M525.22,154.65a2,2,0,1,1,2-2A2,2,0,0,1,525.22,154.65Z"/><path class="cls-3" d="M510.86,147.08a2,2,0,1,1,2-2A2,2,0,0,1,510.86,147.08Z"/><rect class="cls-3" x="516.69" y="92.82" width="3.59" height="3.59" transform="translate(84.95 394.33) rotate(-45)"/><rect class="cls-3" x="497.54" y="87.75" width="3.59" height="3.59" transform="translate(82.93 379.31) rotate(-45)"/><rect class="cls-3" x="495.49" y="103.84" width="3.59" height="3.59" transform="translate(70.96 382.58) rotate(-45)"/><path class="cls-7" d="M644.33,814.12a10.32,10.32,0,1,0,7.48,12.53A10.31,10.31,0,0,0,644.33,814.12Z"/><path class="cls-7" d="M158.9,721.71a10.32,10.32,0,1,0,7.48,12.54A10.32,10.32,0,0,0,158.9,721.71Z"/><path class="cls-7" d="M232.36,990.76a10.32,10.32,0,1,0,7.48,12.53A10.31,10.31,0,0,0,232.36,990.76Z"/><path class="cls-7" d="M551.06,825.94a10.32,10.32,0,1,0,7.48,12.53A10.31,10.31,0,0,0,551.06,825.94Z"/><path class="cls-3" d="M610.36,754a2,2,0,1,1-2.77,0A2,2,0,0,1,610.36,754Z"/><path class="cls-3" d="M615.16,769.47a2,2,0,1,1-2.77,0A1.95,1.95,0,0,1,615.16,769.47Z"/><rect class="cls-3" x="570.88" y="799.38" width="3.59" height="3.59"/><rect class="cls-3" x="580.83" y="816.51" width="3.59" height="3.59"/><rect class="cls-3" x="593.65" y="806.58" width="3.59" height="3.59"/><path class="cls-3" d="M684.76,631.26a2,2,0,1,1,2-2A2,2,0,0,1,684.76,631.26Z"/><path class="cls-3" d="M670.4,623.69a2,2,0,1,1,2-2A2,2,0,0,1,670.4,623.69Z"/><rect class="cls-3" x="676.24" y="569.43" width="3.59" height="3.59" transform="translate(-205.33 646.75) rotate(-45)"/><rect class="cls-3" x="657.09" y="564.36" width="3.59" height="3.59" transform="translate(-207.35 631.72) rotate(-45)"/><path class="cls-3" d="M90.21,661a2,2,0,1,1-2-2A2,2,0,0,1,90.21,661Z"/><path class="cls-3" d="M82.64,675.34a2,2,0,1,1-2-2A2,2,0,0,1,82.64,675.34Z"/><circle class="cls-9" cx="666.19" cy="138.05" r="71.23"/><path class="cls-3" d="M602.58,166.76c-.33-.92-.65-1.85-.94-2.78"/><path class="cls-10" d="M600.12,158.51a75.19,75.19,0,0,1,28.75-77.94"/><path class="cls-3" d="M631.19,78.94q1.21-.81,2.46-1.59"/><line class="cls-6" x1="699.44" y1="209.57" x2="649.95" y2="160.09"/><line class="cls-3" x1="660.4" y1="143.84" x2="657.88" y2="67.28"/><line class="cls-6" x1="594.42" y1="144.35" x2="625.64" y2="113.12"/><line class="cls-6" x1="621.11" y1="87.43" x2="653.6" y2="119.92"/><path class="cls-3" d="M626.27,168.21A19.77,19.77,0,1,1,624,198.12"/><path class="cls-3" d="M613.53,164.45a10.39,10.39,0,1,1,14.88-5.22"/><circle class="cls-7" cx="647.81" cy="184.64" r="10.33"/><path class="cls-3" d="M599.45,169.53a3.92,3.92,0,1,1,0,5.54A3.92,3.92,0,0,1,599.45,169.53Z"/><circle class="cls-7" cx="598.44" cy="158.2" r="4.1"/><circle class="cls-7" cx="634.71" cy="145.98" r="4.1"/><circle class="cls-7" cx="679.04" cy="137.29" r="2.14"/><path class="cls-7" d="M709.51,121.43a2.14,2.14,0,1,1,0,3A2.12,2.12,0,0,1,709.51,121.43Z"/><path class="cls-11" d="M710.9,141.45a4.27,4.27,0,1,1,0,6A4.27,4.27,0,0,1,710.9,141.45Z"/><path class="cls-7" d="M657.88,140.32a4.27,4.27,0,1,1,0,6A4.28,4.28,0,0,1,657.88,140.32Z"/><line class="cls-3" x1="627.16" y1="181.11" x2="640.5" y2="167.77"/><line class="cls-3" x1="637.48" y1="124.95" x2="625.64" y2="113.12"/><line class="cls-3" x1="653.6" y1="141.07" x2="665.19" y2="152.66"/><line class="cls-3" x1="680.3" y1="146.61" x2="664.93" y2="148.37"/><path class="cls-3" d="M657.88,142.33a4.28,4.28,0,1,1,0,6A4.28,4.28,0,0,1,657.88,142.33Z"/><circle class="cls-3" cx="634.71" cy="145.98" r="1.42"/><circle class="cls-3" cx="614.81" cy="164.74" r="1.42"/><path class="cls-3" d="M624,168.14a1.42,1.42,0,1,1,2,2,1.42,1.42,0,0,1-2-2Z"/><path class="cls-3" d="M640.3,173.8a.77.77,0,0,1,1.1,0,.78.78,0,1,1-1.1,0Z"/><path class="cls-3" d="M659.88,144.33a.78.78,0,0,1,1.1,0,.78.78,0,1,1-1.1,1.1A.78.78,0,0,1,659.88,144.33Z"/><path class="cls-3" d="M693.93,160.25a.77.77,0,0,1,1.1,0,.78.78,0,1,1-1.1,0Z"/><path class="cls-3" d="M662.91,130.15a.78.78,0,0,1,1.1,0,.78.78,0,1,1-1.1,1.1A.78.78,0,0,1,662.91,130.15Z"/><path class="cls-3" d="M651,138.51a.78.78,0,1,1,1.11,1.1.8.8,0,0,1-1.11,0A.78.78,0,0,1,651,138.51Z"/><path class="cls-3" d="M639.07,126.54a.78.78,0,0,1,1.1,0,.78.78,0,0,1-1.1,1.1A.78.78,0,0,1,639.07,126.54Z"/><path class="cls-3" d="M641,166.21a.78.78,0,0,1,1.1,0,.77.77,0,0,1,0,1.1.78.78,0,0,1-1.1-1.1Z"/><path class="cls-3" d="M712.91,143.46a1.42,1.42,0,1,1,0,2A1.43,1.43,0,0,1,712.91,143.46Z"/><circle class="cls-3" cx="706.49" cy="121.43" r="1.42"/><circle class="cls-3" cx="658.13" cy="65.52" r="1.42"/><path class="cls-3" d="M651.08,176.33a4.28,4.28,0,1,1,0,6A4.28,4.28,0,0,1,651.08,176.33Z"/><circle class="cls-3" cx="654.1" cy="179.35" r="1.42"/><circle class="cls-3" cx="630.18" cy="161.97" r="1.42"/><path class="cls-3" d="M595.42,122.69a1.42,1.42,0,1,1,0,2A1.42,1.42,0,0,1,595.42,122.69Z"/><circle class="cls-3" cx="738.98" cy="139.31" r="2.14"/><line class="cls-3" x1="738.98" y1="141.57" x2="738.98" y2="137.04"/><path class="cls-3" d="M681.05,146.11a3.74,3.74,0,1,1,0,5.29A3.74,3.74,0,0,1,681.05,146.11Z"/><line class="cls-3" x1="683.7" y1="152.72" x2="683.7" y2="144.79"/><path class="cls-3" d="M644.16,178a1.2,1.2,0,0,1,1.7,0,1.22,1.22,0,0,1,0,1.7,1.2,1.2,0,0,1-1.7-1.7Z"/><line class="cls-3" x1="645.01" y1="180.09" x2="645.01" y2="177.54"/><path class="cls-3" d="M666.8,65.92a2.14,2.14,0,1,1,0,3A2.12,2.12,0,0,1,666.8,65.92Z"/><line class="cls-3" x1="668.31" y1="69.69" x2="668.31" y2="65.16"/><rect class="cls-3" x="626.42" y="113.63" width="1.56" height="5.92" transform="translate(101.32 477.73) rotate(-45.01)"/><rect class="cls-3" x="656.06" y="122.76" width="0.78" height="2.96" transform="translate(104.41 500.57) rotate(-45)"/><rect class="cls-3" x="637.43" y="173.72" width="0.78" height="2.96" transform="translate(62.92 502.31) rotate(-45)"/><rect class="cls-3" x="658.69" y="120.14" width="0.78" height="2.96" transform="translate(107.17 501.83) rotate(-45.02)"/><rect class="cls-3" x="670.71" y="158.18" width="1.42" height="1.42" transform="translate(84.29 521.3) rotate(-45)"/><rect class="cls-3" x="623.83" y="156.32" width="1.42" height="1.42" transform="translate(71.88 487.6) rotate(-45)"/><rect class="cls-3" x="618.68" y="140.91" width="1.42" height="1.42" transform="translate(81.27 479.44) rotate(-45)"/><rect class="cls-3" x="624.62" y="182.23" width="1.42" height="1.42" transform="translate(53.79 495.74) rotate(-45)"/><rect class="cls-3" x="637.23" y="169.62" width="1.42" height="1.42" transform="translate(66.4 500.97) rotate(-45)"/><rect class="cls-3" x="691.04" y="127.64" width="1.42" height="1.42" transform="translate(111.84 526.73) rotate(-45)"/><rect class="cls-3" x="707.93" y="96.9" width="1.42" height="1.42" transform="translate(138.53 529.67) rotate(-45)"/><rect class="cls-3" x="696.49" y="85.45" width="1.42" height="1.42" transform="translate(143.27 518.22) rotate(-45)"/><rect class="cls-3" x="696.99" y="83.94" width="1.42" height="1.42" transform="translate(144.48 518.14) rotate(-45)"/><rect class="cls-3" x="643.36" y="105.34" width="1.42" height="1.42" transform="translate(113.64 486.48) rotate(-45)"/><rect class="cls-3" x="652.89" y="108.12" width="1.42" height="1.42" transform="translate(114.47 494.03) rotate(-45)"/><rect class="cls-3" x="644.29" y="115.29" width="1.42" height="1.42" transform="translate(106.88 490.05) rotate(-45)"/><rect class="cls-3" x="648.48" y="106.74" width="1.42" height="1.42" transform="translate(114.16 490.51) rotate(-45)"/><rect class="cls-3" x="608.52" y="97.09" width="1.42" height="1.42" transform="translate(109.28 459.43) rotate(-45)"/><rect class="cls-3" x="689.25" y="154.31" width="1.42" height="1.42"/><rect class="cls-3" x="711.95" y="174.49" width="1.42" height="1.42"/><path class="cls-3" d="M653.19,218.23a.78.78,0,1,1,0,1.1A.77.77,0,0,1,653.19,218.23Z"/><path class="cls-3" d="M659.34,216.32a.78.78,0,0,1,1.1,0,.78.78,0,1,1-1.1,1.1A.78.78,0,0,1,659.34,216.32Z"/><rect class="cls-3" x="648.51" y="212.29" width="1.42" height="1.42"/><rect class="cls-3" x="663.09" y="154.84" width="1.42" height="1.42"/><rect class="cls-3" x="649.85" y="144.31" width="1.42" height="1.42"/><rect class="cls-3" x="608.52" y="140.91" width="1.42" height="1.42"/><rect class="cls-3" x="662.86" y="165.02" width="1.42" height="1.42" transform="translate(77.16 517.75) rotate(-45)"/><path class="cls-3" d="M638.42,56.51a.77.77,0,0,1,0-1.1.78.78,0,1,1,1.1,1.1A.77.77,0,0,1,638.42,56.51Z"/><path class="cls-3" d="M636.51,50.36a.78.78,0,1,1,1.1-1.1.77.77,0,0,1,0,1.1A.78.78,0,0,1,636.51,50.36Z"/><path class="cls-12" d="M217.76,778.61a83.24,83.24,0,1,1-83.24,83.24A83.24,83.24,0,0,1,217.76,778.61Z"/><path class="cls-3" d="M144.17,838.39a87.81,87.81,0,0,1,99.55-48.2"/><line class="cls-6" x1="186.13" y1="948.41" x2="186.13" y2="866.63"/><line class="cls-3" x1="208.19" y1="861.85" x2="269.37" y2="796.51"/><line class="cls-6" x1="153.25" y1="807.74" x2="204.86" y2="807.74"/><line class="cls-6" x1="222.34" y1="782.77" x2="222.34" y2="836.46"/><path class="cls-3" d="M159.86,853.78a23.1,23.1,0,1,1-26.58,22.84"/><path class="cls-3" d="M152.44,840.14a12.14,12.14,0,1,1,16.6,8"/><path class="cls-7" d="M164.07,873.08A12.07,12.07,0,1,1,152,885.15,12.07,12.07,0,0,1,164.07,873.08Z"/><circle class="cls-3" cx="136.61" cy="837.29" r="4.58"/><path class="cls-7" d="M145.14,817.73a4.79,4.79,0,1,1-4.79,4.79A4.78,4.78,0,0,1,145.14,817.73Z"/><path class="cls-7" d="M185.2,837.6a4.79,4.79,0,1,1-4.79,4.79A4.79,4.79,0,0,1,185.2,837.6Z"/><path class="cls-7" d="M229,869.34a2.5,2.5,0,1,1-2.5,2.5A2.5,2.5,0,0,1,229,869.34Z"/><path class="cls-7" d="M267.29,883.9a2.5,2.5,0,1,1-2.5,2.5A2.5,2.5,0,0,1,267.29,883.9Z"/><path class="cls-13" d="M251.89,901.59a5,5,0,1,1-5,5A5,5,0,0,1,251.89,901.59Z"/><circle class="cls-7" cx="209.02" cy="861.85" r="4.99"/><line class="cls-3" x1="149.92" y1="865.18" x2="171.98" y2="865.18"/><line class="cls-3" x1="204.86" y1="827.3" x2="204.86" y2="807.74"/><line class="cls-3" x1="204.86" y1="853.94" x2="204.86" y2="873.08"/><line class="cls-3" x1="222.34" y1="880.58" x2="208.19" y2="869.34"/><circle class="cls-3" cx="207.36" cy="863.51" r="4.99"/><circle class="cls-3" cx="185.2" cy="842.39" r="1.67" transform="matrix(0.16, -0.99, 0.99, 0.16, -675.98, 890.26)"/><path class="cls-3" d="M153.25,839.79a1.67,1.67,0,1,1-1.66,1.66A1.66,1.66,0,0,1,153.25,839.79Z"/><circle class="cls-3" cx="158.04" cy="853.52" r="1.67" transform="translate(-709.78 872.8) rotate(-80.78)"/><path class="cls-3" d="M166.83,870a.91.91,0,1,1-.91.91A.91.91,0,0,1,166.83,870Z"/><path class="cls-3" d="M207.36,861.83a.91.91,0,1,1-.91.91A.91.91,0,0,1,207.36,861.83Z"/><path class="cls-3" d="M222.34,903.1a.91.91,0,1,1-.91.91A.91.91,0,0,1,222.34,903.1Z"/><path class="cls-3" d="M221.58,852.61a.91.91,0,1,1-.91.91A.91.91,0,0,1,221.58,852.61Z"/><path class="cls-3" d="M204.86,849.7a.91.91,0,1,1-.91.91A.91.91,0,0,1,204.86,849.7Z"/><path class="cls-3" d="M204.86,829.93a.91.91,0,1,1-.91.91A.91.91,0,0,1,204.86,829.93Z"/><path class="cls-3" d="M173.65,864.27a.91.91,0,1,1-.91.91A.91.91,0,0,1,173.65,864.27Z"/><path class="cls-3" d="M251.89,904.92a1.67,1.67,0,1,1-1.67,1.67A1.66,1.66,0,0,1,251.89,904.92Z"/><path class="cls-3" d="M264.79,879.74a1.67,1.67,0,1,1,0,3.33,1.67,1.67,0,0,1,0-3.33Z"/><path class="cls-3" d="M271,793.59a1.67,1.67,0,1,1-1.66,1.67A1.67,1.67,0,0,1,271,793.59Z"/><circle class="cls-3" cx="173.65" cy="885.99" r="4.99"/><path class="cls-3" d="M173.65,884.32A1.67,1.67,0,1,1,172,886,1.66,1.66,0,0,1,173.65,884.32Z"/><circle class="cls-3" cx="168.24" cy="851.86" r="1.67" transform="translate(-699.57 881.47) rotate(-80.78)"/><path class="cls-3" d="M276.86,920.53a2.5,2.5,0,1,1-2.49,2.5A2.5,2.5,0,0,1,276.86,920.53Z"/><line class="cls-3" x1="274.99" y1="924.9" x2="278.73" y2="921.15"/><circle class="cls-3" cx="223.38" cy="885.15" r="4.37" transform="translate(-688.52 842.45) rotate(-73.15)"/><line class="cls-3" x1="220.1" y1="888.43" x2="226.66" y2="881.88"/><path class="cls-3" d="M166.57,876.62a1.41,1.41,0,1,1-1.4,1.41A1.41,1.41,0,0,1,166.57,876.62Z"/><line class="cls-3" x1="165.52" y1="879.08" x2="167.62" y2="876.97"/><path class="cls-3" d="M277.87,802.75a2.5,2.5,0,1,1-2.5,2.49A2.48,2.48,0,0,1,277.87,802.75Z"/><line class="cls-3" x1="275.99" y1="807.12" x2="279.74" y2="803.37"/><rect class="cls-3" x="202.36" y="808.43" width="1.82" height="6.92"/><rect class="cls-3" x="220.67" y="840.66" width="0.91" height="3.46"/><rect class="cls-3" x="163.16" y="867.37" width="0.91" height="3.46"/><rect class="cls-3" x="225.01" y="840.66" width="0.91" height="3.46"/><rect class="cls-3" x="204.03" y="882.56" width="1.67" height="1.67"/><rect class="cls-3" x="166.83" y="842.29" width="1.67" height="1.67"/><rect class="cls-3" x="175.31" y="825.29" width="1.67" height="1.67"/><rect class="cls-3" x="146.07" y="864.34" width="1.67" height="1.67"/><rect class="cls-3" x="166.91" y="864.34" width="1.67" height="1.67"/><rect class="cls-3" x="246.06" y="874.12" width="1.67" height="1.67"/><rect class="cls-3" x="285.42" y="862.68" width="1.67" height="1.67"/><rect class="cls-3" x="285.42" y="843.77" width="1.67" height="1.67"/><rect class="cls-3" x="287.09" y="842.93" width="1.67" height="1.67"/><rect class="cls-3" x="225.08" y="816.3" width="1.67" height="1.67"/><rect class="cls-3" x="230.66" y="826.47" width="1.67" height="1.67"/><rect class="cls-3" x="217.64" y="825.29" width="1.67" height="1.67"/><rect class="cls-3" x="228.17" y="821.68" width="1.67" height="1.67"/><rect class="cls-3" x="203.12" y="780.69" width="1.67" height="1.67"/><rect class="cls-3" x="222.55" y="894.68" width="1.66" height="1.66" transform="translate(-567.51 419.77) rotate(-44.97)"/><rect class="cls-3" x="224.63" y="930.11" width="1.66" height="1.66" transform="translate(-592.24 432.09) rotate(-45)"/><path class="cls-3" d="M140.77,917.35a.91.91,0,1,1-.91.91A.91.91,0,0,1,140.77,917.35Z"/><path class="cls-3" d="M147.43,920.86a.91.91,0,1,1-.91.91A.91.91,0,0,1,147.43,920.86Z"/><rect class="cls-3" x="140.98" y="908.92" width="1.66" height="1.66" transform="translate(-602.08 367.18) rotate(-45.03)"/><rect class="cls-3" x="200.49" y="873.5" width="1.66" height="1.66" transform="translate(-559.28 398.44) rotate(-45)"/><rect class="cls-3" x="198.25" y="853.87" width="1.66" height="1.66" transform="translate(-545.77 390.66) rotate(-44.97)"/><rect class="cls-3" x="166.92" y="816.9" width="1.66" height="1.66" transform="translate(-529.09 358.12) rotate(-45)"/><rect class="cls-3" x="191.89" y="881.73" width="1.67" height="1.67"/><path class="cls-3" d="M262.18,771.53a.91.91,0,1,1,.91.91A.91.91,0,0,1,262.18,771.53Z"/><path class="cls-3" d="M265.69,764.87a.91.91,0,1,1,.91.91A.91.91,0,0,1,265.69,764.87Z"/><rect class="cls-3" x="655.04" y="580.45" width="3.59" height="3.59" transform="translate(-219.33 634.99) rotate(-45)"/><path class="cls-7" d="M576.68,360.64a10.32,10.32,0,1,0-14.15-3.57A10.32,10.32,0,0,0,576.68,360.64Z"/><path class="cls-3" d="M573.23,354.86a3.59,3.59,0,1,0-4.92-1.24A3.59,3.59,0,0,0,573.23,354.86Z"/><path class="cls-3" d="M643.24,379.15a2,2,0,1,1,2-1.95A2,2,0,0,1,643.24,379.15Z"/><path class="cls-3" d="M628.88,371.59a2,2,0,1,1,2-2A2,2,0,0,1,628.88,371.59Z"/><rect class="cls-3" x="634.71" y="317.33" width="3.59" height="3.59" transform="translate(-39.23 543.54) rotate(-45)"/><rect class="cls-3" x="615.57" y="312.25" width="3.59" height="3.59" transform="translate(-41.25 528.52) rotate(-45)"/><rect class="cls-3" x="613.52" y="328.35" width="3.59" height="3.59" transform="translate(-53.22 531.79) rotate(-45)"/><path class="cls-7" d="M465.09,811.51a10.32,10.32,0,1,0-14.15-3.57A10.31,10.31,0,0,0,465.09,811.51Z"/><path class="cls-3" d="M461.64,805.73a3.59,3.59,0,1,0-4.92-1.24A3.58,3.58,0,0,0,461.64,805.73Z"/><path class="cls-3" d="M531.65,830a2,2,0,1,1,2-2A2,2,0,0,1,531.65,830Z"/><path class="cls-3" d="M517.29,822.45a2,2,0,1,1,2-2A2,2,0,0,1,517.29,822.45Z"/><rect class="cls-3" x="523.12" y="768.2" width="3.59" height="3.59" transform="translate(-390.72 596.7) rotate(-45)"/><rect class="cls-3" x="503.97" y="763.12" width="3.59" height="3.59" transform="translate(-392.74 581.68) rotate(-45)"/><rect class="cls-3" x="501.93" y="779.21" width="3.59" height="3.59" transform="translate(-404.72 584.94) rotate(-45)"/><path class="cls-3" d="M236.92,160a2,2,0,1,1,0,2.77A1.95,1.95,0,0,1,236.92,160Z"/><path class="cls-3" d="M252.43,155.19a2,2,0,1,1,0,2.77A1.95,1.95,0,0,1,252.43,155.19Z"/><rect class="cls-3" x="132.8" y="242.36" width="3.59" height="3.59"/><rect class="cls-3" x="299.46" y="185.94" width="3.59" height="3.59"/><rect class="cls-3" x="289.53" y="173.1" width="3.59" height="3.59"/><path class="cls-3" d="M566.57,987.29c.57-.79,1.15-1.58,1.74-2.36"/><path class="cls-4" d="M571.94,980.23a179.55,179.55,0,0,1,303.32,36.68"/><path class="cls-3" d="M876.48,1019.62c.4.89.79,1.79,1.17,2.69"/><rect class="cls-3" x="517.5" y="937.81" width="3.59" height="3.59" transform="translate(-512.3 642.41) rotate(-45)"/><rect class="cls-3" x="573.52" y="937.81" width="3.59" height="3.59" transform="translate(-495.89 682.02) rotate(-45)"/><path class="cls-3" d="M562.14,867.62a2,2,0,1,1,0,2.78A2,2,0,0,1,562.14,867.62Z"/><path class="cls-3" d="M577.65,862.82a2,2,0,1,1,0,2.77A2,2,0,0,1,577.65,862.82Z"/><rect class="cls-3" x="624.69" y="893.57" width="3.59" height="3.59"/><rect class="cls-3" x="614.75" y="880.74" width="3.59" height="3.59"/><rect class="cls-3" x="731.27" y="467.96" width="3.59" height="3.59"/><rect class="cls-3" x="741.22" y="485.09" width="3.59" height="3.59"/><rect class="cls-3" x="754.05" y="475.16" width="3.59" height="3.59"/><path class="cls-3" d="M722.54,536.2a2,2,0,1,1,0,2.78A2,2,0,0,1,722.54,536.2Z"/><path class="cls-3" d="M738.05,531.4a2,2,0,1,1,0,2.77A2,2,0,0,1,738.05,531.4Z"/><rect class="cls-3" x="775.15" y="549.32" width="3.59" height="3.59"/><rect class="cls-3" x="767.2" y="507.39" width="3.59" height="3.59"/><rect class="cls-3" x="777.15" y="524.52" width="3.59" height="3.59"/><rect class="cls-3" x="789.97" y="514.59" width="3.59" height="3.59"/><path class="cls-3" d="M758.46,575.63a2,2,0,1,1,0,2.78A2,2,0,0,1,758.46,575.63Z"/><path class="cls-3" d="M774,570.83a2,2,0,1,1,0,2.77A2,2,0,0,1,774,570.83Z"/><rect class="cls-3" x="811.08" y="588.75" width="3.59" height="3.59"/><rect class="cls-3" x="323.19" y="944.21" width="3.59" height="3.59"/><rect class="cls-3" x="333.14" y="961.33" width="3.59" height="3.59"/><rect class="cls-3" x="345.97" y="951.4" width="3.59" height="3.59"/><path class="cls-3" d="M314.46,1012.45a2,2,0,1,1,0,2.77A2,2,0,0,1,314.46,1012.45Z"/><path class="cls-3" d="M330,1007.65a2,2,0,1,1,0,2.77A1.95,1.95,0,0,1,330,1007.65Z"/><rect class="cls-3" x="367.07" y="1025.57" width="3.59" height="3.59"/><rect class="cls-3" x="359.11" y="983.64" width="3.59" height="3.59"/><rect class="cls-3" x="369.06" y="1000.77" width="3.59" height="3.59"/><rect class="cls-3" x="381.89" y="990.83" width="3.59" height="3.59"/><rect class="cls-3" x="121.84" y="949.63" width="3.59" height="3.59"/><rect class="cls-3" x="131.79" y="966.76" width="3.59" height="3.59"/><rect class="cls-3" x="144.62" y="956.83" width="3.59" height="3.59"/><path class="cls-3" d="M113.11,1017.88a2,2,0,1,1,0,2.77A2,2,0,0,1,113.11,1017.88Z"/><path class="cls-3" d="M128.62,1013.08a2,2,0,1,1,0,2.77A1.95,1.95,0,0,1,128.62,1013.08Z"/><rect class="cls-3" x="157.77" y="989.07" width="3.59" height="3.59"/><rect class="cls-3" x="167.72" y="1006.19" width="3.59" height="3.59"/><rect class="cls-3" x="180.55" y="996.26" width="3.59" height="3.59"/><path class="cls-3" d="M350.38,1051.88a2,2,0,1,1,0,2.77A2,2,0,0,1,350.38,1051.88Z"/><path class="cls-3" d="M365.88,1047.08a2,2,0,1,1,0,2.77A2,2,0,0,1,365.88,1047.08Z"/><rect class="cls-3" x="402.99" y="1065" width="3.59" height="3.59"/><rect class="cls-7" x="490.09" y="248.17" width="19.48" height="12.16"/><rect class="cls-6" x="361.01" y="852.67" width="153.64" height="38.31"/></g></g></svg>