<svg xmlns="http://www.w3.org/2000/svg" xmlns:xlink="http://www.w3.org/1999/xlink" viewBox="0 0 878.68 1080"><defs><style>.cls-1,.cls-10,.cls-11,.cls-12,.cls-13,.cls-14,.cls-15,.cls-4,.cls-5,.cls-6,.cls-7,.cls-8,.cls-9{fill:none;}.cls-2{clip-path:url(#clip-path);}.cls-3{fill:#2841f9;}.cls-10,.cls-11,.cls-12,.cls-13,.cls-14,.cls-15,.cls-4,.cls-5,.cls-6,.cls-7,.cls-8,.cls-9{stroke:#1ed6b3;stroke-miterlimit:10;stroke-width:0.25px;}.cls-4{stroke-dasharray:4.17 4.17;}.cls-6{stroke-dasharray:4.22 4.22;}.cls-7{stroke-dasharray:4.16 4.16;}.cls-8{stroke-dasharray:4.16 4.16;}.cls-9{stroke-dasharray:2.5 2.5;}.cls-10{stroke-dasharray:2.4 2.4;}.cls-11{stroke-dasharray:4.18 4.18;}.cls-12{stroke-dasharray:4.03 4.03;}.cls-13{stroke-dasharray:2.38 2.38;}.cls-14{stroke-dasharray:4.12 4.12;}.cls-15{stroke-dasharray:2.78 2.78;}</style><clipPath id="clip-path" transform="translate(0 -2.41)"><rect class="cls-1" width="640" height="1080"/></clipPath></defs><title>side_blue_pattern</title><g id="Layer_2" data-name="Layer 2"><g id="Layer_1-2" data-name="Layer 1"><g class="cls-2"><rect class="cls-3" width="640" height="1080"/><rect class="cls-1" x="0.91" width="635.78" height="1078.64"/><circle class="cls-4" cx="186.91" cy="466.21" r="179.5"/><path class="cls-5" d="M242.26,282.07,244,279.7" transform="translate(0 -2.41)"/><path class="cls-6" d="M247.63,275A179.54,179.54,0,0,1,551,311.69" transform="translate(0 -2.41)"/><path class="cls-5" d="M552.18,314.4c.39.89.78,1.78,1.16,2.68" transform="translate(0 -2.41)"/><path class="cls-5" d="M264.92,298.82l1.74-2.36" transform="translate(0 -2.41)"/><path class="cls-7" d="M270.27,291.84A155.07,155.07,0,0,1,531.21,323.7" transform="translate(0 -2.41)"/><path class="cls-5" d="M532.43,326.37l1.17,2.69" transform="translate(0 -2.41)"/><path class="cls-5" d="M526,531.73c.79.58,1.58,1.15,2.36,1.74" transform="translate(0 -2.41)"/><path class="cls-7" d="M533,537.08A155.07,155.07,0,0,1,501.16,798" transform="translate(0 -2.41)"/><path class="cls-5" d="M498.49,799.24l-2.7,1.17" transform="translate(0 -2.41)"/><path class="cls-5" d="M351.41,530.82c-.41.88-.84,1.76-1.27,2.64" transform="translate(0 -2.41)"/><path class="cls-7" d="M347.49,538.69a189.36,189.36,0,0,1-205,97.32" transform="translate(0 -2.41)"/><path class="cls-5" d="M139.61,635.41l-2.86-.65" transform="translate(0 -2.41)"/><line class="cls-8" x1="380.77" y1="220.3" x2="380.77" y2="760.59"/><polyline class="cls-8" points="690.88 829.44 690.88 289.15 653.58 289.15 653.58 448.65"/><line class="cls-8" x1="255.12" y1="279.54" x2="255.12" y2="455.89"/><line class="cls-5" x1="373.59" y1="537.11" x2="373.59" y2="761.04"/><line class="cls-5" x1="207.55" y1="466.21" x2="75.62" y2="607.12"/><line class="cls-8" x1="326.02" y1="582.89" x2="214.73" y2="582.89"/><line class="cls-8" x1="177.04" y1="636.73" x2="177.04" y2="520.96"/><path class="cls-5" d="M311.78,486a49.81,49.81,0,1,1,57.32-49.25" transform="translate(0 -2.41)"/><path class="cls-5" d="M327.78,515.42A26.19,26.19,0,1,1,292,498.21" transform="translate(0 -2.41)"/><path class="cls-8" d="M381.53,755.15a26.19,26.19,0,1,1,13.93-37.21" transform="translate(0 -2.41)"/><path class="cls-9" d="M302.69,444.39a26,26,0,1,1,26-26A26,26,0,0,1,302.69,444.39Z" transform="translate(0 -2.41)"/><circle class="cls-5" cx="361.92" cy="521.57" r="9.87" transform="translate(-258.45 653.94) rotate(-67.5)"/><path class="cls-9" d="M343.52,563.76a10.33,10.33,0,1,1,10.32-10.33A10.32,10.32,0,0,1,343.52,563.76Z" transform="translate(0 -2.41)"/><path class="cls-9" d="M257.14,520.9a10.32,10.32,0,1,1,10.32-10.32A10.32,10.32,0,0,1,257.14,520.9Z" transform="translate(0 -2.41)"/><path class="cls-9" d="M361.92,777.47A16.08,16.08,0,1,1,378,761.39,16.08,16.08,0,0,1,361.92,777.47Z" transform="translate(0 -2.41)"/><path class="cls-9" d="M378,784.65a16.08,16.08,0,1,1,16.08-16.08A16.08,16.08,0,0,1,378,784.65Z" transform="translate(0 -2.41)"/><path class="cls-9" d="M162.68,452.47a5.39,5.39,0,1,1,5.38-5.39A5.38,5.38,0,0,1,162.68,452.47Z" transform="translate(0 -2.41)"/><path class="cls-9" d="M80.11,421.06a5.39,5.39,0,1,1,5.39-5.39A5.38,5.38,0,0,1,80.11,421.06Z" transform="translate(0 -2.41)"/><circle class="cls-10" cx="113.32" cy="372.14" r="10.77" transform="translate(-265.92 456.39) rotate(-85.93)"/><circle class="cls-9" cx="205.76" cy="468.62" r="10.77" transform="translate(-289.77 594.25) rotate(-80.78)"/><line class="cls-5" x1="333.2" y1="459.03" x2="285.64" y2="459.03"/><line class="cls-5" x1="214.73" y1="540.7" x2="214.73" y2="582.89"/><line class="cls-5" x1="214.73" y1="483.26" x2="214.73" y2="441.98"/><line class="cls-5" x1="177.04" y1="425.83" x2="207.55" y2="450.06"/><circle class="cls-5" cx="209.35" cy="465.03" r="10.77" transform="translate(-283.21 594.78) rotate(-80.78)"/><path class="cls-5" d="M257.14,514.17a3.59,3.59,0,1,1,3.59-3.59A3.59,3.59,0,0,1,257.14,514.17Z" transform="translate(0 -2.41)"/><path class="cls-9" d="M399.26,683.29A10.32,10.32,0,1,1,409.58,673,10.32,10.32,0,0,1,399.26,683.29Z" transform="translate(0 -2.41)"/><path class="cls-9" d="M479.05,670.56a7.81,7.81,0,1,1,7.81-7.81A7.81,7.81,0,0,1,479.05,670.56Z" transform="translate(0 -2.41)"/><path class="cls-9" d="M460.35,741.18a10.56,10.56,0,1,1,10.56-10.56A10.56,10.56,0,0,1,460.35,741.18Z" transform="translate(0 -2.41)"/><path class="cls-9" d="M423.62,699.56a5.28,5.28,0,1,1,5.28-5.28A5.28,5.28,0,0,1,423.62,699.56Z" transform="translate(0 -2.41)"/><circle class="cls-5" cx="399.26" cy="672.97" r="3.59" transform="translate(-358.92 477.02) rotate(-45)"/><path class="cls-5" d="M326,516.19a3.59,3.59,0,1,1,3.59-3.59A3.59,3.59,0,0,1,326,516.19Z" transform="translate(0 -2.41)"/><path class="cls-5" d="M522.75,534.41a3.59,3.59,0,1,1,3.59-3.59A3.59,3.59,0,0,1,522.75,534.41Z" transform="translate(0 -2.41)"/><path class="cls-5" d="M315.7,490.16a3.59,3.59,0,1,1,3.59-3.59A3.59,3.59,0,0,1,315.7,490.16Z" transform="translate(0 -2.41)"/><path class="cls-5" d="M369.27,440.68a2,2,0,1,1,2-2A2,2,0,0,1,369.27,440.68Z" transform="translate(0 -2.41)"/><path class="cls-5" d="M386.54,691a2,2,0,1,1,2-2A2,2,0,0,1,386.54,691Z" transform="translate(0 -2.41)"/><path class="cls-5" d="M378,696.24a2,2,0,1,1,2-2A2,2,0,0,1,378,696.24Z" transform="translate(0 -2.41)"/><path class="cls-5" d="M296.74,451.06a2,2,0,1,1,2-2A2,2,0,0,1,296.74,451.06Z" transform="translate(0 -2.41)"/><path class="cls-5" d="M209.35,468.67a2,2,0,1,1,2-2A2,2,0,0,1,209.35,468.67Z" transform="translate(0 -2.41)"/><path class="cls-5" d="M177,379.65a2,2,0,1,1,2-2A2,2,0,0,1,177,379.65Z" transform="translate(0 -2.41)"/><path class="cls-5" d="M162.68,372.08a2,2,0,1,1,2-2A2,2,0,0,1,162.68,372.08Z" transform="translate(0 -2.41)"/><path class="cls-5" d="M178.68,488.53a2,2,0,1,1,2-2A2,2,0,0,1,178.68,488.53Z" transform="translate(0 -2.41)"/><path class="cls-5" d="M214.73,494.81a2,2,0,1,1,2-2A2,2,0,0,1,214.73,494.81Z" transform="translate(0 -2.41)"/><path class="cls-5" d="M214.73,537.45a2,2,0,1,1,2-2A2,2,0,0,1,214.73,537.45Z" transform="translate(0 -2.41)"/><path class="cls-5" d="M282.05,463.4a2,2,0,1,1,1.95-2A2,2,0,0,1,282.05,463.4Z" transform="translate(0 -2.41)"/><path class="cls-5" d="M113.32,375.73a3.59,3.59,0,1,1,3.59-3.59A3.58,3.58,0,0,1,113.32,375.73Z" transform="translate(0 -2.41)"/><circle class="cls-10" cx="415.28" cy="414.33" r="10.77" transform="translate(-60.21 755.47) rotate(-80.78)"/><path class="cls-5" d="M415.28,417.92a3.6,3.6,0,1,1,3.59-3.59A3.59,3.59,0,0,1,415.28,417.92Z" transform="translate(0 -2.41)"/><circle class="cls-10" cx="559.29" cy="248.36" r="10.77" transform="translate(115.81 667.62) rotate(-67.5)"/><path class="cls-5" d="M559.29,252a3.59,3.59,0,1,1,3.59-3.59A3.59,3.59,0,0,1,559.29,252Z" transform="translate(0 -2.41)"/><circle class="cls-10" cx="367.31" cy="757.8" r="10.77" transform="translate(-343.54 303.87) rotate(-31.72)"/><path class="cls-5" d="M367.31,761.39a3.59,3.59,0,1,1,3.59-3.59A3.59,3.59,0,0,1,367.31,761.39Z" transform="translate(0 -2.41)"/><circle class="cls-5" cx="85.5" cy="424.03" r="3.59"/><path class="cls-5" d="M72,615.81a3.59,3.59,0,1,1,3.59-3.59A3.59,3.59,0,0,1,72,615.81Z" transform="translate(0 -2.41)"/><circle class="cls-5" cx="282.05" cy="416.57" r="10.77" transform="translate(-174.32 625.84) rotate(-80.78)"/><path class="cls-5" d="M282.05,420.16a3.59,3.59,0,1,1,3.58-3.59A3.59,3.59,0,0,1,282.05,420.16Z" transform="translate(0 -2.41)"/><path class="cls-5" d="M293.71,493.75a3.59,3.59,0,1,1,3.59-3.59A3.59,3.59,0,0,1,293.71,493.75Z" transform="translate(0 -2.41)"/><path class="cls-5" d="M285.64,622.09a3.59,3.59,0,1,1,3.58-3.59A3.58,3.58,0,0,1,285.64,622.09Z" transform="translate(0 -2.41)"/><path class="cls-5" d="M59.47,342.08a5.39,5.39,0,1,1,5.38-5.39A5.39,5.39,0,0,1,59.47,342.08Z" transform="translate(0 -2.41)"/><line class="cls-5" x1="63.51" y1="330.24" x2="55.43" y2="338.32"/><path class="cls-5" d="M723.61,346.75a5.39,5.39,0,1,1,5.39-5.39A5.38,5.38,0,0,1,723.61,346.75Z" transform="translate(0 -2.41)"/><line class="cls-5" x1="727.65" y1="334.91" x2="719.57" y2="342.99"/><path class="cls-5" d="M674.46,397.72a5.39,5.39,0,1,1,5.39-5.38A5.38,5.38,0,0,1,674.46,397.72Z" transform="translate(0 -2.41)"/><line class="cls-5" x1="678.5" y1="385.89" x2="670.42" y2="393.97"/><path class="cls-5" d="M174.8,427.79a9.43,9.43,0,1,1,9.42-9.43A9.43,9.43,0,0,1,174.8,427.79Z" transform="translate(0 -2.41)"/><line class="cls-5" x1="181.86" y1="408.89" x2="167.73" y2="423.02"/><circle class="cls-5" cx="678.07" cy="256.66" r="9.42" transform="translate(181.46 782.49) rotate(-67.5)"/><line class="cls-5" x1="685.14" y1="247.19" x2="671" y2="261.32"/><path class="cls-5" d="M644.15,298.32a9.42,9.42,0,1,1,9.43-9.42A9.42,9.42,0,0,1,644.15,298.32Z" transform="translate(0 -2.41)"/><line class="cls-5" x1="651.22" y1="279.42" x2="637.09" y2="293.56"/><path class="cls-5" d="M382.56,643.63a9.43,9.43,0,1,1,9.43-9.42A9.42,9.42,0,0,1,382.56,643.63Z" transform="translate(0 -2.41)"/><line class="cls-5" x1="389.63" y1="624.73" x2="375.5" y2="638.87"/><circle class="cls-5" cx="297.3" cy="433.73" r="3.03" transform="translate(-178.45 655.31) rotate(-80.78)"/><line class="cls-5" x1="299.57" y1="429.05" x2="295.03" y2="433.59"/><path class="cls-5" d="M57.3,596.07a5.39,5.39,0,1,1,5.39-5.39A5.38,5.38,0,0,1,57.3,596.07Z" transform="translate(0 -2.41)"/><line class="cls-5" x1="61.34" y1="584.23" x2="53.26" y2="592.31"/><rect class="cls-5" x="216.19" y="566.47" width="3.93" height="14.92"/><rect class="cls-5" x="178.68" y="504.44" width="1.96" height="7.46"/><rect class="cls-5" x="363.58" y="835.95" width="7.46" height="1.96"/><rect class="cls-5" x="494.08" y="706.31" width="7.46" height="1.96"/><rect class="cls-5" x="494.08" y="696.36" width="7.46" height="1.96"/><rect class="cls-5" x="495.36" y="674.21" width="4.88" height="18.56"/><rect class="cls-5" x="427.85" y="709.59" width="4.89" height="18.56"/><rect class="cls-5" x="506.42" y="702.62" width="7.46" height="1.96"/><rect class="cls-5" x="100.97" y="791.17" width="1.96" height="7.46"/><rect class="cls-5" x="311.07" y="700.56" width="7.46" height="1.96"/><rect class="cls-5" x="97.28" y="778.83" width="1.96" height="7.46"/><rect class="cls-5" x="661.44" y="848.71" width="1.96" height="7.46"/><rect class="cls-5" x="657.74" y="836.37" width="1.96" height="7.46"/><rect class="cls-5" x="193.67" y="714.6" width="1.96" height="7.46"/><rect class="cls-5" x="189.97" y="702.26" width="1.96" height="7.46"/><rect class="cls-5" x="302.69" y="446.84" width="1.96" height="7.46"/><rect class="cls-5" x="169.33" y="504.44" width="1.96" height="7.46"/><rect class="cls-5" x="212.94" y="417.95" width="3.59" height="3.59"/><rect class="cls-5" x="293.15" y="504.8" width="3.59" height="3.59"/><rect class="cls-5" x="274.87" y="541.45" width="3.59" height="3.59"/><rect class="cls-5" x="444.6" y="630" width="3.59" height="3.59"/><rect class="cls-5" x="492.28" y="796.2" width="3.59" height="3.59"/><rect class="cls-5" x="436.49" y="736.97" width="3.59" height="3.59"/><rect class="cls-5" x="464.96" y="639.43" width="3.59" height="3.59"/><rect class="cls-5" x="337.92" y="457.24" width="3.59" height="3.59"/><rect class="cls-5" x="292.99" y="457.24" width="3.59" height="3.59"/><path class="cls-5" d="M394.78,136.58a49.81,49.81,0,1,0-74.47-12.91" transform="translate(0 -2.41)"/><path class="cls-5" d="M396.11,170A26.19,26.19,0,1,0,418,136.91" transform="translate(0 -2.41)"/><path class="cls-9" d="M381.25,96.19a26,26,0,1,0-35.68-9A26,26,0,0,0,381.25,96.19Z" transform="translate(0 -2.41)"/><path class="cls-9" d="M459.57,138.55A10.32,10.32,0,1,0,445.42,135,10.32,10.32,0,0,0,459.57,138.55Z" transform="translate(0 -2.41)"/><line class="cls-5" x1="363.79" y1="124.06" x2="404.64" y2="99.68"/><path class="cls-5" d="M456.13,132.77a3.59,3.59,0,1,0-4.93-1.24A3.6,3.6,0,0,0,456.13,132.77Z" transform="translate(0 -2.41)"/><path class="cls-5" d="M393.53,142.16a3.59,3.59,0,1,0-4.92-1.24A3.59,3.59,0,0,0,393.53,142.16Z" transform="translate(0 -2.41)"/><path class="cls-5" d="M389.78,98.87a2,2,0,1,0-2.69-.68A2,2,0,0,0,389.78,98.87Z" transform="translate(0 -2.41)"/><path class="cls-5" d="M408.72,101.94a2,2,0,1,0-2.69-.68A2,2,0,0,0,408.72,101.94Z" transform="translate(0 -2.41)"/><path class="cls-5" d="M390.24,71a10.77,10.77,0,1,0-14.77-3.73A10.77,10.77,0,0,0,390.24,71Z" transform="translate(0 -2.41)"/><path class="cls-5" d="M386.56,64.8a3.59,3.59,0,1,0-4.92-1.24A3.58,3.58,0,0,0,386.56,64.8Z" transform="translate(0 -2.41)"/><path class="cls-5" d="M414.26,134a3.59,3.59,0,1,0-4.93-1.25A3.6,3.6,0,0,0,414.26,134Z" transform="translate(0 -2.41)"/><path class="cls-5" d="M382,86.88a3,3,0,1,0-4.15-1A3,3,0,0,0,382,86.88Z" transform="translate(0 -2.41)"/><line class="cls-5" x1="377.3" y1="81.08" x2="383.53" y2="82.65"/><rect class="cls-5" x="383.83" y="100.34" width="1.96" height="7.46" transform="translate(1.03 209.46) rotate(-30.82)"/><rect class="cls-5" x="419.22" y="145.92" width="3.59" height="3.59" transform="translate(-16.2 234.26) rotate(-30.83)"/><rect class="cls-5" x="394.99" y="104.99" width="3.59" height="3.59" transform="translate(1.35 216.05) rotate(-30.83)"/><path class="cls-5" d="M492.12,551.71a49.82,49.82,0,1,1,57.33-49.25" transform="translate(0 -2.41)"/><path class="cls-5" d="M508.12,581.12a26.19,26.19,0,1,1-35.8-17.21" transform="translate(0 -2.41)"/><path class="cls-9" d="M483,510.09a26,26,0,1,1,26-26A26,26,0,0,1,483,510.09Z" transform="translate(0 -2.41)"/><path class="cls-9" d="M437.49,586.6a10.32,10.32,0,1,1,10.32-10.32A10.32,10.32,0,0,1,437.49,586.6Z" transform="translate(0 -2.41)"/><line class="cls-5" x1="513.55" y1="524.73" x2="465.98" y2="524.73"/><path class="cls-5" d="M506.37,581.89A3.59,3.59,0,1,1,510,578.3,3.59,3.59,0,0,1,506.37,581.89Z" transform="translate(0 -2.41)"/><path class="cls-5" d="M496.05,555.86a3.59,3.59,0,1,1,3.59-3.59A3.59,3.59,0,0,1,496.05,555.86Z" transform="translate(0 -2.41)"/><path class="cls-5" d="M477.09,516.76a2,2,0,1,1,2-2A2,2,0,0,1,477.09,516.76Z" transform="translate(0 -2.41)"/><path class="cls-5" d="M462.39,529.1a2,2,0,1,1,2-2A2,2,0,0,1,462.39,529.1Z" transform="translate(0 -2.41)"/><circle class="cls-5" cx="462.39" cy="482.27" r="10.77" transform="matrix(0.16, -0.99, 0.99, 0.16, -87.72, 859.03)"/><circle class="cls-5" cx="462.39" cy="482.27" r="3.59" transform="translate(-205.58 465.8) rotate(-45)"/><path class="cls-5" d="M474.06,559.45a3.59,3.59,0,1,1,3.59-3.59A3.59,3.59,0,0,1,474.06,559.45Z" transform="translate(0 -2.41)"/><path class="cls-5" d="M477.65,502.46a3,3,0,1,1,3-3A3,3,0,0,1,477.65,502.46Z" transform="translate(0 -2.41)"/><line class="cls-5" x1="479.92" y1="494.75" x2="475.38" y2="499.3"/><rect class="cls-5" x="483.03" y="512.54" width="1.96" height="7.46"/><rect class="cls-5" x="473.5" y="570.51" width="3.59" height="3.59"/><rect class="cls-5" x="473.33" y="522.94" width="3.59" height="3.59"/><rect class="cls-5" x="122.29" y="436.15" width="3.59" height="3.59"/><rect class="cls-5" x="37.42" y="460.83" width="3.59" height="3.59"/><rect class="cls-5" x="37.42" y="501.61" width="3.59" height="3.59"/><rect class="cls-5" x="33.83" y="503.41" width="3.59" height="3.59"/><rect class="cls-5" x="390.49" y="796.46" width="3.59" height="3.59"/><rect class="cls-5" x="386.9" y="798.26" width="3.59" height="3.59"/><rect class="cls-5" x="167.53" y="560.84" width="3.59" height="3.59"/><rect class="cls-5" x="155.5" y="538.91" width="3.59" height="3.59"/><rect class="cls-5" x="183.59" y="541.45" width="3.59" height="3.59"/><rect class="cls-5" x="160.88" y="549.23" width="3.59" height="3.59"/><line class="cls-8" x1="415.28" y1="761.49" x2="415.28" y2="645.71"/><line class="cls-8" x1="367.31" y1="832.94" x2="367.31" y2="612.5"/><rect class="cls-5" x="405.77" y="685.59" width="3.59" height="3.59"/><rect class="cls-5" x="393.74" y="663.66" width="3.59" height="3.59"/><rect class="cls-5" x="421.83" y="666.2" width="3.59" height="3.59"/><rect class="cls-5" x="399.13" y="673.98" width="3.59" height="3.59"/><rect class="cls-5" x="214.4" y="617.89" width="3.59" height="3.59"/><rect class="cls-5" x="214.9" y="637.62" width="3.59" height="3.59"/><rect class="cls-5" x="129.32" y="406.53" width="3.59" height="3.59"/><rect class="cls-5" x="173" y="394.24" width="3.59" height="3.59" transform="translate(-228.84 237.18) rotate(-45)"/><rect class="cls-5" x="168.51" y="317.83" width="3.59" height="3.59" transform="translate(-176.12 211.63) rotate(-45)"/><rect class="cls-5" x="193.19" y="232.58" width="3.59" height="3.59" transform="translate(-108.62 204.11) rotate(-45)"/><rect class="cls-5" x="249.22" y="232.58" width="3.59" height="3.59" transform="translate(-92.21 243.73) rotate(-45)"/><rect class="cls-5" x="149.37" y="312.75" width="3.59" height="3.59" transform="translate(-178.14 196.6) rotate(-45)"/><path class="cls-5" d="M353,348.93a2,2,0,1,1,2-2A2,2,0,0,1,353,348.93Z" transform="translate(0 -2.41)"/><path class="cls-5" d="M338.59,341.36a2,2,0,1,1,2-2A2,2,0,0,1,338.59,341.36Z" transform="translate(0 -2.41)"/><rect class="cls-5" x="348.91" y="363.51" width="3.59" height="3.59" transform="translate(-155.59 352.57) rotate(-45)"/><rect class="cls-5" x="344.42" y="287.11" width="3.59" height="3.59" transform="translate(-102.88 327.01) rotate(-45)"/><rect class="cls-5" x="325.27" y="282.03" width="3.59" height="3.59" transform="translate(-104.9 311.99) rotate(-45)"/><path class="cls-5" d="M284.5,719.72a2,2,0,1,1,2-2A2,2,0,0,1,284.5,719.72Z" transform="translate(0 -2.41)"/><path class="cls-5" d="M270.14,712.15a2,2,0,1,1,2-1.95A2,2,0,0,1,270.14,712.15Z" transform="translate(0 -2.41)"/><rect class="cls-5" x="275.98" y="657.9" width="3.59" height="3.59" transform="translate(-385.11 387.22) rotate(-45)"/><rect class="cls-5" x="256.83" y="652.82" width="3.59" height="3.59" transform="translate(-387.13 372.2) rotate(-45)"/><path class="cls-5" d="M581.28,675.85a2,2,0,1,1,2-2A2,2,0,0,1,581.28,675.85Z" transform="translate(0 -2.41)"/><path class="cls-5" d="M566.92,668.28a2,2,0,1,1,2-2A2,2,0,0,1,566.92,668.28Z" transform="translate(0 -2.41)"/><rect class="cls-5" x="577.25" y="690.43" width="3.59" height="3.59" transform="translate(-319.88 609.78) rotate(-45)"/><rect class="cls-5" x="572.76" y="614.02" width="3.59" height="3.59" transform="translate(-267.17 584.23) rotate(-45)"/><rect class="cls-5" x="553.61" y="608.95" width="3.59" height="3.59" transform="translate(-269.18 569.2) rotate(-45)"/><path class="cls-5" d="M536,410.57a2,2,0,1,1,2-2A2,2,0,0,1,536,410.57Z" transform="translate(0 -2.41)"/><path class="cls-5" d="M521.62,403a2,2,0,1,1,2-2A2,2,0,0,1,521.62,403Z" transform="translate(0 -2.41)"/><rect class="cls-5" x="531.94" y="425.16" width="3.59" height="3.59" transform="translate(-145.57 500.05) rotate(-45)"/><rect class="cls-5" x="527.45" y="348.75" width="3.59" height="3.59" transform="translate(-92.86 474.5) rotate(-45)"/><rect class="cls-5" x="508.31" y="343.67" width="3.59" height="3.59" transform="translate(-94.88 459.47) rotate(-45)"/><rect class="cls-5" x="220.57" y="439.9" width="3.59" height="3.59" transform="translate(-247.2 284.19) rotate(-45)"/><rect class="cls-5" x="225.39" y="482.24" width="3.59" height="3.59" transform="translate(-275.72 300.01) rotate(-45)"/><rect class="cls-5" x="292.97" y="561.96" width="3.59" height="3.59" transform="translate(-312.3 371.14) rotate(-45)"/><rect class="cls-5" x="399.13" y="598.05" width="3.59" height="3.59" transform="translate(-306.73 456.78) rotate(-45)"/><rect class="cls-5" x="352.05" y="660.78" width="3.59" height="3.59" transform="translate(-364.87 441.86) rotate(-45)"/><rect class="cls-5" x="127.53" y="408.33" width="3.59" height="3.59"/><rect class="cls-5" x="239.12" y="419.75" width="3.59" height="3.59"/><path class="cls-9" d="M340.14,842.51a5.39,5.39,0,1,1,5.39-5.38A5.38,5.38,0,0,1,340.14,842.51Z" transform="translate(0 -2.41)"/><circle class="cls-9" cx="383.22" cy="858.67" r="10.77" transform="translate(-549.65 974.21) rotate(-73.15)"/><line class="cls-5" x1="392.19" y1="873.31" x2="392.19" y2="832.02"/><line class="cls-5" x1="354.5" y1="815.87" x2="385.02" y2="840.1"/><circle class="cls-5" cx="386.81" cy="855.08" r="10.77" transform="translate(-543.67 975.09) rotate(-73.15)"/><path class="cls-5" d="M386.81,858.71a2,2,0,1,1,2-2A2,2,0,0,1,386.81,858.71Z" transform="translate(0 -2.41)"/><path class="cls-5" d="M356.15,878.58a2,2,0,1,1,2-2A2,2,0,0,1,356.15,878.58Z" transform="translate(0 -2.41)"/><path class="cls-5" d="M392.19,884.86a2,2,0,1,1,2-2A2,2,0,0,1,392.19,884.86Z" transform="translate(0 -2.41)"/><circle class="cls-5" cx="352.26" cy="808.41" r="9.42" transform="translate(-502.14 1024.21) rotate(-80.78)"/><line class="cls-5" x1="359.33" y1="798.93" x2="345.19" y2="813.07"/><rect class="cls-5" x="390.4" y="808" width="3.59" height="3.59"/><rect class="cls-5" x="398.03" y="829.95" width="3.59" height="3.59" transform="translate(-471.03 523.92) rotate(-45)"/><rect class="cls-5" x="402.86" y="872.28" width="3.59" height="3.59" transform="translate(-499.55 539.74) rotate(-45)"/><rect class="cls-5" x="416.58" y="809.79" width="3.59" height="3.59"/><rect class="cls-9" x="351.41" y="758.98" width="19.48" height="12.16"/><line class="cls-5" x1="604.05" y1="631.77" x2="604.05" y2="407.85"/><path class="cls-8" d="M596.11,418.56a26.19,26.19,0,1,1-13.94,37.21" transform="translate(0 -2.41)"/><path class="cls-9" d="M615.72,396.24a16.08,16.08,0,1,1-16.08,16.08A16.07,16.07,0,0,1,615.72,396.24Z" transform="translate(0 -2.41)"/><path class="cls-9" d="M599.64,389.06a16.08,16.08,0,1,1-16.08,16.08A16.08,16.08,0,0,1,599.64,389.06Z" transform="translate(0 -2.41)"/><path class="cls-9" d="M578.38,490.42a10.32,10.32,0,1,1-10.32,10.32A10.32,10.32,0,0,1,578.38,490.42Z" transform="translate(0 -2.41)"/><path class="cls-9" d="M498.59,503.15a7.81,7.81,0,1,1-7.81,7.81A7.8,7.8,0,0,1,498.59,503.15Z" transform="translate(0 -2.41)"/><path class="cls-9" d="M517.28,432.53a10.56,10.56,0,1,1-10.56,10.56A10.56,10.56,0,0,1,517.28,432.53Z" transform="translate(0 -2.41)"/><circle class="cls-9" cx="554.01" cy="479.42" r="5.28" transform="translate(-176.74 529.76) rotate(-45)"/><path class="cls-5" d="M578.38,497.15a3.59,3.59,0,1,1-3.59,3.59A3.59,3.59,0,0,1,578.38,497.15Z" transform="translate(0 -2.41)"/><path class="cls-5" d="M591.1,482.74a2,2,0,1,1-2,2A2,2,0,0,1,591.1,482.74Z" transform="translate(0 -2.41)"/><path class="cls-5" d="M599.64,477.46a2,2,0,1,1-2,2A2,2,0,0,1,599.64,477.46Z" transform="translate(0 -2.41)"/><circle class="cls-10" cx="610.33" cy="415.91" r="10.77" transform="translate(-115.33 550.98) rotate(-45)"/><path class="cls-5" d="M610.33,412.32a3.59,3.59,0,1,1-3.59,3.59A3.59,3.59,0,0,1,610.33,412.32Z" transform="translate(0 -2.41)"/><rect class="cls-5" x="476.1" y="460.61" width="7.46" height="1.96"/><rect class="cls-5" x="476.1" y="470.56" width="7.46" height="1.96"/><rect class="cls-5" x="477.39" y="476.11" width="4.88" height="18.56"/><rect class="cls-5" x="544.91" y="440.74" width="4.88" height="18.56"/><rect class="cls-5" x="522.62" y="603.22" width="4.88" height="18.56"/><rect class="cls-5" x="463.76" y="464.31" width="7.46" height="1.96"/><rect class="cls-5" x="481.77" y="369.1" width="3.59" height="3.59"/><rect class="cls-5" x="537.56" y="428.32" width="3.59" height="3.59"/><rect class="cls-5" x="583.56" y="368.84" width="3.59" height="3.59"/><rect class="cls-5" x="587.15" y="367.04" width="3.59" height="3.59"/><line class="cls-8" x1="562.36" y1="407.4" x2="562.36" y2="523.18"/><line class="cls-8" x1="610.33" y1="335.94" x2="610.33" y2="556.38"/><rect class="cls-5" x="568.27" y="479.71" width="3.59" height="3.59"/><rect class="cls-5" x="580.31" y="501.64" width="3.59" height="3.59"/><rect class="cls-5" x="552.22" y="499.1" width="3.59" height="3.59"/><rect class="cls-5" x="574.92" y="491.32" width="3.59" height="3.59"/><rect class="cls-5" x="622" y="509.34" width="3.59" height="3.59" transform="translate(-178.72 588.39) rotate(-45)"/><rect class="cls-9" x="606.74" y="397.75" width="19.48" height="12.16"/><line class="cls-5" x1="361.14" y1="300.7" x2="361.14" y2="76.77"/><path class="cls-8" d="M369.09,87.48A26.19,26.19,0,1,0,383,124.69" transform="translate(0 -2.41)"/><path class="cls-9" d="M349.48,65.16a16.08,16.08,0,1,0,16.08,16.08A16.08,16.08,0,0,0,349.48,65.16Z" transform="translate(0 -2.41)"/><path class="cls-9" d="M365.56,58a16.08,16.08,0,1,0,16.07,16.08A16.08,16.08,0,0,0,365.56,58Z" transform="translate(0 -2.41)"/><circle class="cls-10" cx="354.86" cy="84.83" r="10.77" transform="translate(235.48 427.2) rotate(-84.35)"/><path class="cls-5" d="M354.86,81.24a3.59,3.59,0,1,0,3.59,3.59A3.59,3.59,0,0,0,354.86,81.24Z" transform="translate(0 -2.41)"/><rect class="cls-5" x="378.04" y="37.76" width="3.59" height="3.59"/><rect class="cls-5" x="374.45" y="35.97" width="3.59" height="3.59"/><path class="cls-5" d="M707.3,796.13a49.81,49.81,0,1,0-74.47-12.91" transform="translate(0 -2.41)"/><path class="cls-9" d="M693.77,755.74a26,26,0,1,0-35.68-9A26,26,0,0,0,693.77,755.74Z" transform="translate(0 -2.41)"/><line class="cls-5" x1="676.31" y1="783.61" x2="717.15" y2="759.23"/><path class="cls-5" d="M702.3,758.42a2,2,0,1,0-2.69-.68A2,2,0,0,0,702.3,758.42Z" transform="translate(0 -2.41)"/><path class="cls-5" d="M721.24,761.49a2,2,0,1,0-2.69-.68A2,2,0,0,0,721.24,761.49Z" transform="translate(0 -2.41)"/><path class="cls-5" d="M702.76,730.52A10.77,10.77,0,1,0,688,726.79,10.77,10.77,0,0,0,702.76,730.52Z" transform="translate(0 -2.41)"/><path class="cls-5" d="M699.08,724.35a3.59,3.59,0,1,0-4.92-1.24A3.58,3.58,0,0,0,699.08,724.35Z" transform="translate(0 -2.41)"/><path class="cls-5" d="M694.49,746.43a3,3,0,1,0-4.15-1A3,3,0,0,0,694.49,746.43Z" transform="translate(0 -2.41)"/><line class="cls-5" x1="689.82" y1="740.63" x2="696.05" y2="742.2"/><rect class="cls-5" x="696.35" y="759.89" width="1.96" height="7.46" transform="translate(-292.77 462.75) rotate(-30.82)"/><rect class="cls-5" x="707.51" y="764.53" width="3.59" height="3.59" transform="translate(-292.53 469.45) rotate(-30.83)"/><path class="cls-9" d="M678.07,717.53a16.08,16.08,0,1,0,16.08,16.08A16.08,16.08,0,0,0,678.07,717.53Z" transform="translate(0 -2.41)"/><rect class="cls-5" x="690.56" y="697.31" width="3.59" height="3.59"/><rect class="cls-5" x="686.97" y="695.52" width="3.59" height="3.59"/><line class="cls-8" x1="354.86" y1="4.87" x2="354.86" y2="225.31"/><rect class="cls-9" x="338.97" y="66.67" width="19.48" height="12.16"/><line class="cls-5" x1="488.31" y1="482.2" x2="488.31" y2="258.28"/><line class="cls-5" x1="595.98" y1="459.3" x2="372.05" y2="459.3"/><line class="cls-5" x1="428.66" y1="300.7" x2="204.74" y2="300.7"/><path class="cls-8" d="M480.36,269a26.18,26.18,0,1,1-13.93,37.2" transform="translate(0 -2.41)"/><path class="cls-9" d="M500,246.66a16.08,16.08,0,1,1-16.07,16.08A16.08,16.08,0,0,1,500,246.66Z" transform="translate(0 -2.41)"/><path class="cls-9" d="M483.9,239.49a16.08,16.08,0,1,1-16.08,16.07A16.06,16.06,0,0,1,483.9,239.49Z" transform="translate(0 -2.41)"/><path class="cls-9" d="M462.64,340.84a10.32,10.32,0,1,1-10.32,10.32A10.32,10.32,0,0,1,462.64,340.84Z" transform="translate(0 -2.41)"/><path class="cls-9" d="M438.27,324.57a5.28,5.28,0,1,1-5.28,5.28A5.27,5.27,0,0,1,438.27,324.57Z" transform="translate(0 -2.41)"/><path class="cls-5" d="M462.64,347.57a3.59,3.59,0,1,1-3.59,3.59A3.59,3.59,0,0,1,462.64,347.57Z" transform="translate(0 -2.41)"/><path class="cls-5" d="M475.36,333.17a2,2,0,1,1-2,2A2,2,0,0,1,475.36,333.17Z" transform="translate(0 -2.41)"/><path class="cls-5" d="M483.9,327.89a2,2,0,1,1-2,2A2,2,0,0,1,483.9,327.89Z" transform="translate(0 -2.41)"/><circle class="cls-10" cx="494.59" cy="266.33" r="10.77" transform="translate(152.47 709.46) rotate(-80.78)"/><path class="cls-5" d="M494.59,262.74a3.59,3.59,0,1,1-3.59,3.59A3.59,3.59,0,0,1,494.59,262.74Z" transform="translate(0 -2.41)"/><rect class="cls-5" x="467.82" y="219.26" width="3.59" height="3.59"/><rect class="cls-5" x="471.41" y="217.47" width="3.59" height="3.59"/><line class="cls-8" x1="446.61" y1="257.83" x2="446.61" y2="373.6"/><line class="cls-8" x1="494.59" y1="186.37" x2="494.59" y2="406.81"/><line class="cls-8" x1="554.01" y1="550.76" x2="554.01" y2="771.2"/><line class="cls-8" x1="248.64" y1="617.99" x2="248.64" y2="838.43"/><line class="cls-8" x1="92.15" y1="146.5" x2="92.15" y2="366.94"/><rect class="cls-5" x="452.53" y="330.13" width="3.59" height="3.59"/><rect class="cls-5" x="464.56" y="352.06" width="3.59" height="3.59"/><rect class="cls-5" x="436.48" y="349.52" width="3.59" height="3.59"/><rect class="cls-5" x="459.18" y="341.74" width="3.59" height="3.59"/><rect class="cls-5" x="506.26" y="359.76" width="3.59" height="3.59" transform="translate(-106.86 462.74) rotate(-45)"/><rect class="cls-5" x="591.02" y="721.3" width="3.59" height="3.59" transform="translate(-337.68 628.56) rotate(-45)"/><rect class="cls-5" x="596.1" y="702.16" width="3.59" height="3.59" transform="translate(-322.65 626.54) rotate(-45)"/><rect class="cls-5" x="568.26" y="673.21" width="3.59" height="3.59"/><line class="cls-5" x1="458.75" y1="679.75" x2="682.67" y2="679.75"/><path class="cls-9" d="M602.52,656.49a10.33,10.33,0,1,1-10.32-10.32A10.32,10.32,0,0,1,602.52,656.49Z" transform="translate(0 -2.41)"/><line class="cls-8" x1="754.58" y1="686.03" x2="534.14" y2="686.03"/><rect class="cls-5" x="585.3" y="656" width="3.59" height="3.59"/><rect class="cls-5" x="580" y="700.11" width="3.59" height="3.59" transform="translate(-325.92 614.57) rotate(-45)"/><path class="cls-5" d="M526.13,157.06a2,2,0,1,1,2-2A2,2,0,0,1,526.13,157.06Z" transform="translate(0 -2.41)"/><path class="cls-5" d="M511.77,149.49a2,2,0,1,1,2-2A2,2,0,0,1,511.77,149.49Z" transform="translate(0 -2.41)"/><rect class="cls-5" x="517.6" y="95.23" width="3.59" height="3.59" transform="translate(83.52 393.28) rotate(-45)"/><rect class="cls-5" x="498.46" y="90.16" width="3.59" height="3.59" transform="translate(81.5 378.25) rotate(-45)"/><rect class="cls-5" x="496.41" y="106.25" width="3.59" height="3.59" transform="translate(69.52 381.52) rotate(-45)"/><path class="cls-9" d="M645.25,816.53a10.32,10.32,0,1,0,7.48,12.53A10.32,10.32,0,0,0,645.25,816.53Z" transform="translate(0 -2.41)"/><path class="cls-9" d="M159.82,724.12a10.32,10.32,0,1,0,7.48,12.54A10.34,10.34,0,0,0,159.82,724.12Z" transform="translate(0 -2.41)"/><path class="cls-9" d="M233.27,993.17a10.32,10.32,0,1,0,7.48,12.53A10.31,10.31,0,0,0,233.27,993.17Z" transform="translate(0 -2.41)"/><path class="cls-9" d="M552,828.35a10.32,10.32,0,1,0,7.49,12.53A10.32,10.32,0,0,0,552,828.35Z" transform="translate(0 -2.41)"/><path class="cls-5" d="M611.27,756.37a2,2,0,1,1-2.77,0A2,2,0,0,1,611.27,756.37Z" transform="translate(0 -2.41)"/><path class="cls-5" d="M616.08,771.88a2,2,0,1,1-2.78,0A2,2,0,0,1,616.08,771.88Z" transform="translate(0 -2.41)"/><rect class="cls-5" x="571.79" y="799.38" width="3.59" height="3.59"/><rect class="cls-5" x="581.74" y="816.51" width="3.59" height="3.59"/><rect class="cls-5" x="594.57" y="806.58" width="3.59" height="3.59"/><path class="cls-5" d="M685.68,633.67a2,2,0,1,1,2-2A2,2,0,0,1,685.68,633.67Z" transform="translate(0 -2.41)"/><path class="cls-5" d="M671.32,626.1a2,2,0,1,1,2-2A2,2,0,0,1,671.32,626.1Z" transform="translate(0 -2.41)"/><rect class="cls-5" x="677.15" y="571.84" width="3.59" height="3.59" transform="translate(-206.77 645.69) rotate(-45)"/><rect class="cls-5" x="658" y="566.77" width="3.59" height="3.59" transform="translate(-208.78 630.67) rotate(-45)"/><path class="cls-5" d="M91.13,663.39a2,2,0,1,1-2-2A2,2,0,0,1,91.13,663.39Z" transform="translate(0 -2.41)"/><path class="cls-5" d="M83.56,677.75a2,2,0,1,1-2-2A2,2,0,0,1,83.56,677.75Z" transform="translate(0 -2.41)"/><circle class="cls-11" cx="667.11" cy="138.05" r="71.23"/><path class="cls-5" d="M603.49,169.17c-.33-.92-.64-1.85-.94-2.78" transform="translate(0 -2.41)"/><path class="cls-12" d="M601,160.92A75.17,75.17,0,0,1,629.78,83" transform="translate(0 -2.41)"/><path class="cls-5" d="M632.1,81.35q1.21-.81,2.46-1.59" transform="translate(0 -2.41)"/><line class="cls-8" x1="700.35" y1="209.57" x2="650.86" y2="160.09"/><line class="cls-5" x1="661.31" y1="143.84" x2="658.8" y2="67.28"/><line class="cls-8" x1="595.33" y1="144.35" x2="626.56" y2="113.12"/><line class="cls-8" x1="622.03" y1="87.43" x2="654.51" y2="119.92"/><path class="cls-5" d="M627.19,170.62a19.77,19.77,0,1,1-2.27,29.91" transform="translate(0 -2.41)"/><path class="cls-5" d="M614.44,166.85a10.39,10.39,0,1,1,14.88-5.21" transform="translate(0 -2.41)"/><circle class="cls-9" cx="648.72" cy="184.64" r="10.33"/><path class="cls-5" d="M600.37,171.94a3.92,3.92,0,1,1,0,5.54A3.92,3.92,0,0,1,600.37,171.94Z" transform="translate(0 -2.41)"/><circle class="cls-9" cx="599.36" cy="158.2" r="4.1"/><circle class="cls-9" cx="635.63" cy="145.98" r="4.1"/><circle class="cls-9" cx="679.95" cy="137.29" r="2.14"/><path class="cls-9" d="M710.43,123.84a2.14,2.14,0,1,1,0,3A2.12,2.12,0,0,1,710.43,123.84Z" transform="translate(0 -2.41)"/><path class="cls-13" d="M711.81,143.86a4.27,4.27,0,1,1,0,6A4.27,4.27,0,0,1,711.81,143.86Z" transform="translate(0 -2.41)"/><path class="cls-9" d="M658.8,142.73a4.27,4.27,0,1,1,0,6A4.27,4.27,0,0,1,658.8,142.73Z" transform="translate(0 -2.41)"/><line class="cls-5" x1="628.07" y1="181.11" x2="641.42" y2="167.77"/><line class="cls-5" x1="638.4" y1="124.95" x2="626.56" y2="113.12"/><line class="cls-5" x1="654.51" y1="141.07" x2="666.1" y2="152.66"/><line class="cls-5" x1="681.21" y1="146.61" x2="665.85" y2="148.37"/><path class="cls-5" d="M658.8,144.74a4.27,4.27,0,1,1,0,6A4.27,4.27,0,0,1,658.8,144.74Z" transform="translate(0 -2.41)"/><circle class="cls-5" cx="635.63" cy="145.98" r="1.42"/><circle class="cls-5" cx="615.73" cy="164.74" r="1.42"/><path class="cls-5" d="M624.92,170.55a1.43,1.43,0,1,1,2,2,1.42,1.42,0,0,1-2,0A1.44,1.44,0,0,1,624.92,170.55Z" transform="translate(0 -2.41)"/><path class="cls-5" d="M641.21,176.21a.78.78,0,1,1,1.1,1.1.78.78,0,0,1-1.1-1.1Z" transform="translate(0 -2.41)"/><path class="cls-5" d="M660.8,146.74a.78.78,0,0,1,1.1,1.1.78.78,0,1,1-1.1-1.1Z" transform="translate(0 -2.41)"/><path class="cls-5" d="M694.84,162.65a.78.78,0,0,1,1.1,0,.78.78,0,1,1-1.1,1.1A.78.78,0,0,1,694.84,162.65Z" transform="translate(0 -2.41)"/><path class="cls-5" d="M663.83,132.56a.78.78,0,0,1,1.1,1.1.78.78,0,1,1-1.1-1.1Z" transform="translate(0 -2.41)"/><path class="cls-5" d="M652,140.92a.77.77,0,0,1,1.1,0,.78.78,0,1,1-1.1,0Z" transform="translate(0 -2.41)"/><path class="cls-5" d="M640,129a.78.78,0,0,1,1.1,1.1A.78.78,0,1,1,640,129Z" transform="translate(0 -2.41)"/><path class="cls-5" d="M641.88,168.62a.77.77,0,0,1,1.1,0,.78.78,0,1,1-1.1,1.1A.77.77,0,0,1,641.88,168.62Z" transform="translate(0 -2.41)"/><path class="cls-5" d="M713.82,145.87a1.44,1.44,0,0,1,2,0,1.42,1.42,0,0,1,0,2,1.43,1.43,0,0,1-2-2Z" transform="translate(0 -2.41)"/><circle class="cls-5" cx="707.4" cy="121.43" r="1.42"/><circle class="cls-5" cx="659.05" cy="65.52" r="1.42"/><path class="cls-5" d="M652,178.74a4.27,4.27,0,1,1,0,6A4.27,4.27,0,0,1,652,178.74Z" transform="translate(0 -2.41)"/><circle class="cls-5" cx="655.02" cy="179.35" r="1.42"/><circle class="cls-5" cx="631.09" cy="161.97" r="1.42"/><path class="cls-5" d="M596.34,125.1a1.42,1.42,0,1,1,0,2A1.41,1.41,0,0,1,596.34,125.1Z" transform="translate(0 -2.41)"/><circle class="cls-5" cx="739.89" cy="139.31" r="2.14"/><line class="cls-5" x1="739.89" y1="141.57" x2="739.89" y2="137.04"/><path class="cls-5" d="M682,148.52a3.74,3.74,0,1,1,0,5.29A3.73,3.73,0,0,1,682,148.52Z" transform="translate(0 -2.41)"/><line class="cls-5" x1="684.61" y1="152.72" x2="684.61" y2="144.79"/><path class="cls-5" d="M645.07,180.38a1.2,1.2,0,1,1,0,1.7A1.2,1.2,0,0,1,645.07,180.38Z" transform="translate(0 -2.41)"/><line class="cls-5" x1="645.92" y1="180.09" x2="645.92" y2="177.54"/><path class="cls-5" d="M667.71,68.33a2.14,2.14,0,1,1,0,3A2.14,2.14,0,0,1,667.71,68.33Z" transform="translate(0 -2.41)"/><line class="cls-5" x1="669.23" y1="69.69" x2="669.23" y2="65.16"/><rect class="cls-5" x="627.33" y="116.04" width="1.56" height="5.92" transform="translate(99.88 476.67) rotate(-45.01)"/><rect class="cls-5" x="656.98" y="125.17" width="0.78" height="2.96" transform="translate(102.98 499.51) rotate(-45)"/><rect class="cls-5" x="638.34" y="176.13" width="0.78" height="2.96" transform="translate(61.49 501.26) rotate(-45)"/><rect class="cls-5" x="659.6" y="122.55" width="0.78" height="2.96" transform="translate(105.73 500.78) rotate(-45.02)"/><rect class="cls-5" x="671.63" y="160.59" width="1.42" height="1.42" transform="translate(82.86 520.24) rotate(-45)"/><rect class="cls-5" x="624.75" y="158.73" width="1.42" height="1.42" transform="translate(70.44 486.54) rotate(-45)"/><rect class="cls-5" x="619.59" y="143.32" width="1.42" height="1.42" transform="translate(79.83 478.39) rotate(-45)"/><rect class="cls-5" x="625.53" y="184.64" width="1.42" height="1.42" transform="translate(52.35 494.69) rotate(-45)"/><rect class="cls-5" x="638.14" y="172.03" width="1.42" height="1.42" transform="translate(64.96 499.91) rotate(-45)"/><rect class="cls-5" x="691.96" y="130.05" width="1.42" height="1.42" transform="translate(110.41 525.67) rotate(-45)"/><rect class="cls-5" x="708.85" y="99.31" width="1.42" height="1.42" transform="translate(137.09 528.61) rotate(-45)"/><rect class="cls-5" x="697.4" y="87.86" width="1.42" height="1.42" transform="translate(141.83 517.16) rotate(-45)"/><rect class="cls-5" x="697.91" y="86.35" width="1.42" height="1.42" transform="translate(143.05 517.08) rotate(-45)"/><rect class="cls-5" x="644.27" y="107.75" width="1.42" height="1.42" transform="translate(112.21 485.42) rotate(-45)"/><rect class="cls-5" x="653.8" y="110.53" width="1.42" height="1.42" transform="translate(113.03 492.97) rotate(-45)"/><rect class="cls-5" x="645.21" y="117.7" width="1.42" height="1.42" transform="translate(105.45 489) rotate(-45)"/><rect class="cls-5" x="649.39" y="109.15" width="1.42" height="1.42" transform="translate(112.72 489.45) rotate(-45)"/><rect class="cls-5" x="609.43" y="99.5" width="1.42" height="1.42" transform="translate(107.84 458.37) rotate(-45)"/><rect class="cls-5" x="690.17" y="154.31" width="1.42" height="1.42"/><rect class="cls-5" x="712.87" y="174.49" width="1.42" height="1.42"/><path class="cls-5" d="M654.1,220.64a.78.78,0,1,1,1.1,1.1.78.78,0,0,1-1.1-1.1Z" transform="translate(0 -2.41)"/><path class="cls-5" d="M660.26,218.73a.78.78,0,0,1,1.1,1.1.78.78,0,1,1-1.1-1.1Z" transform="translate(0 -2.41)"/><rect class="cls-5" x="649.42" y="212.29" width="1.42" height="1.42"/><rect class="cls-5" x="664" y="154.84" width="1.42" height="1.42"/><rect class="cls-5" x="650.77" y="144.31" width="1.42" height="1.42"/><rect class="cls-5" x="609.43" y="140.91" width="1.42" height="1.42"/><rect class="cls-5" x="663.78" y="167.43" width="1.42" height="1.42" transform="translate(75.72 516.69) rotate(-45)"/><path class="cls-5" d="M639.33,58.92a.78.78,0,1,1,1.1,0A.77.77,0,0,1,639.33,58.92Z" transform="translate(0 -2.41)"/><path class="cls-5" d="M637.42,52.77a.78.78,0,0,1,0-1.1.8.8,0,0,1,1.11,0,.78.78,0,0,1,0,1.1A.8.8,0,0,1,637.42,52.77Z" transform="translate(0 -2.41)"/><path class="cls-14" d="M218.68,781a83.24,83.24,0,1,1-83.24,83.24A83.23,83.23,0,0,1,218.68,781Z" transform="translate(0 -2.41)"/><path class="cls-5" d="M145.09,840.8a87.79,87.79,0,0,1,99.54-48.2" transform="translate(0 -2.41)"/><line class="cls-8" x1="187.05" y1="948.41" x2="187.05" y2="866.63"/><line class="cls-5" x1="209.1" y1="861.85" x2="270.28" y2="796.51"/><line class="cls-8" x1="154.17" y1="807.74" x2="205.77" y2="807.74"/><line class="cls-8" x1="223.25" y1="782.77" x2="223.25" y2="836.46"/><path class="cls-5" d="M160.77,856.19A23.1,23.1,0,1,1,134.19,879" transform="translate(0 -2.41)"/><path class="cls-5" d="M153.35,842.55a12.15,12.15,0,1,1,16.61,8" transform="translate(0 -2.41)"/><path class="cls-9" d="M165,875.49a12.07,12.07,0,1,1-12.07,12.07A12.08,12.08,0,0,1,165,875.49Z" transform="translate(0 -2.41)"/><circle class="cls-5" cx="137.52" cy="837.29" r="4.58"/><path class="cls-9" d="M146.05,820.14a4.79,4.79,0,1,1-4.78,4.79A4.79,4.79,0,0,1,146.05,820.14Z" transform="translate(0 -2.41)"/><path class="cls-9" d="M186.11,840a4.79,4.79,0,1,1-4.79,4.79A4.8,4.8,0,0,1,186.11,840Z" transform="translate(0 -2.41)"/><path class="cls-9" d="M229.91,871.75a2.5,2.5,0,1,1-2.49,2.5A2.5,2.5,0,0,1,229.91,871.75Z" transform="translate(0 -2.41)"/><path class="cls-9" d="M268.2,886.31a2.5,2.5,0,1,1-2.49,2.5A2.5,2.5,0,0,1,268.2,886.31Z" transform="translate(0 -2.41)"/><path class="cls-15" d="M252.8,904a5,5,0,1,1-5,5A5,5,0,0,1,252.8,904Z" transform="translate(0 -2.41)"/><circle class="cls-9" cx="209.94" cy="861.85" r="4.99"/><line class="cls-5" x1="150.84" y1="865.18" x2="172.9" y2="865.18"/><line class="cls-5" x1="205.77" y1="827.3" x2="205.77" y2="807.74"/><line class="cls-5" x1="205.77" y1="853.94" x2="205.77" y2="873.08"/><line class="cls-5" x1="223.25" y1="880.58" x2="209.1" y2="869.34"/><circle class="cls-5" cx="208.27" cy="863.51" r="4.99"/><circle class="cls-5" cx="186.11" cy="844.8" r="1.67" transform="translate(-677.59 890.77) rotate(-80.78)"/><path class="cls-5" d="M154.17,842.2a1.67,1.67,0,0,1,0,3.33,1.67,1.67,0,1,1,0-3.33Z" transform="translate(0 -2.41)"/><circle class="cls-5" cx="158.95" cy="855.93" r="1.67" transform="translate(-711.39 873.32) rotate(-80.78)"/><path class="cls-5" d="M167.75,872.4a.91.91,0,1,1-.91.91A.9.9,0,0,1,167.75,872.4Z" transform="translate(0 -2.41)"/><path class="cls-5" d="M208.27,864.24a.91.91,0,1,1-.91.91A.91.91,0,0,1,208.27,864.24Z" transform="translate(0 -2.41)"/><path class="cls-5" d="M223.25,905.51a.91.91,0,1,1-.9.91A.91.91,0,0,1,223.25,905.51Z" transform="translate(0 -2.41)"/><path class="cls-5" d="M222.49,855a.91.91,0,1,1-.91.91A.91.91,0,0,1,222.49,855Z" transform="translate(0 -2.41)"/><path class="cls-5" d="M205.77,852.11a.91.91,0,1,1-.9.91A.91.91,0,0,1,205.77,852.11Z" transform="translate(0 -2.41)"/><path class="cls-5" d="M205.77,832.34a.91.91,0,1,1-.9.91A.91.91,0,0,1,205.77,832.34Z" transform="translate(0 -2.41)"/><path class="cls-5" d="M174.56,866.68a.91.91,0,1,1-.91.91A.91.91,0,0,1,174.56,866.68Z" transform="translate(0 -2.41)"/><path class="cls-5" d="M252.8,907.33a1.67,1.67,0,1,1-1.66,1.67A1.67,1.67,0,0,1,252.8,907.33Z" transform="translate(0 -2.41)"/><path class="cls-5" d="M265.71,882.15a1.67,1.67,0,1,1-1.67,1.67A1.67,1.67,0,0,1,265.71,882.15Z" transform="translate(0 -2.41)"/><path class="cls-5" d="M272,796a1.67,1.67,0,1,1-1.67,1.67A1.66,1.66,0,0,1,272,796Z" transform="translate(0 -2.41)"/><circle class="cls-5" cx="174.56" cy="885.99" r="4.99"/><path class="cls-5" d="M174.56,886.73a1.67,1.67,0,1,1-1.67,1.67A1.67,1.67,0,0,1,174.56,886.73Z" transform="translate(0 -2.41)"/><circle class="cls-5" cx="169.15" cy="854.27" r="1.67" transform="translate(-701.18 881.99) rotate(-80.78)"/><path class="cls-5" d="M277.78,922.94a2.5,2.5,0,1,1-2.5,2.5A2.5,2.5,0,0,1,277.78,922.94Z" transform="translate(0 -2.41)"/><line class="cls-5" x1="275.9" y1="924.9" x2="279.65" y2="921.15"/><circle class="cls-5" cx="224.29" cy="887.56" r="4.37" transform="translate(-690.18 842.62) rotate(-73.15)"/><line class="cls-5" x1="221.02" y1="888.43" x2="227.57" y2="881.88"/><path class="cls-5" d="M167.49,879a1.41,1.41,0,1,1-1.41,1.41A1.41,1.41,0,0,1,167.49,879Z" transform="translate(0 -2.41)"/><line class="cls-5" x1="166.43" y1="879.08" x2="168.54" y2="876.97"/><path class="cls-5" d="M278.78,805.16a2.5,2.5,0,1,1-2.5,2.49A2.49,2.49,0,0,1,278.78,805.16Z" transform="translate(0 -2.41)"/><line class="cls-5" x1="276.91" y1="807.12" x2="280.65" y2="803.37"/><rect class="cls-5" x="203.28" y="808.43" width="1.82" height="6.92"/><rect class="cls-5" x="221.58" y="840.66" width="0.91" height="3.46"/><rect class="cls-5" x="164.08" y="867.37" width="0.91" height="3.46"/><rect class="cls-5" x="225.92" y="840.66" width="0.91" height="3.46"/><rect class="cls-5" x="204.94" y="882.56" width="1.67" height="1.67"/><rect class="cls-5" x="167.75" y="842.29" width="1.67" height="1.67"/><rect class="cls-5" x="176.22" y="825.29" width="1.67" height="1.67"/><rect class="cls-5" x="146.98" y="864.34" width="1.67" height="1.67"/><rect class="cls-5" x="167.82" y="864.34" width="1.67" height="1.67"/><rect class="cls-5" x="246.98" y="874.12" width="1.67" height="1.67"/><rect class="cls-5" x="286.34" y="862.68" width="1.67" height="1.67"/><rect class="cls-5" x="286.34" y="843.77" width="1.67" height="1.67"/><rect class="cls-5" x="288" y="842.93" width="1.67" height="1.67"/><rect class="cls-5" x="226" y="816.3" width="1.67" height="1.67"/><rect class="cls-5" x="231.58" y="826.47" width="1.67" height="1.67"/><rect class="cls-5" x="218.55" y="825.29" width="1.67" height="1.67"/><rect class="cls-5" x="229.08" y="821.68" width="1.67" height="1.67"/><rect class="cls-5" x="204.03" y="780.69" width="1.67" height="1.67"/><rect class="cls-5" x="223.46" y="897.09" width="1.66" height="1.66" transform="translate(-568.94 418.71) rotate(-44.97)"/><rect class="cls-5" x="225.54" y="932.52" width="1.66" height="1.66" transform="translate(-593.68 431.04) rotate(-45)"/><path class="cls-5" d="M141.68,919.76a.91.91,0,1,1-.91.91A.91.91,0,0,1,141.68,919.76Z" transform="translate(0 -2.41)"/><path class="cls-5" d="M148.34,923.27a.91.91,0,1,1-.91.91A.91.91,0,0,1,148.34,923.27Z" transform="translate(0 -2.41)"/><rect class="cls-5" x="141.89" y="911.33" width="1.66" height="1.66" transform="translate(-603.52 366.12) rotate(-45.03)"/><rect class="cls-5" x="201.41" y="875.91" width="1.66" height="1.66" transform="translate(-560.72 397.39) rotate(-45)"/><rect class="cls-5" x="199.17" y="856.28" width="1.66" height="1.66" transform="translate(-547.21 389.6) rotate(-44.97)"/><rect class="cls-5" x="167.83" y="819.31" width="1.66" height="1.66" transform="translate(-530.53 357.07) rotate(-45)"/><rect class="cls-5" x="192.8" y="881.73" width="1.67" height="1.67"/><path class="cls-5" d="M263.1,773.94a.91.91,0,1,1,.9.91A.9.9,0,0,1,263.1,773.94Z" transform="translate(0 -2.41)"/><path class="cls-5" d="M266.61,767.28a.91.91,0,1,1,.91.91A.91.91,0,0,1,266.61,767.28Z" transform="translate(0 -2.41)"/><rect class="cls-5" x="655.95" y="582.86" width="3.59" height="3.59" transform="translate(-220.76 633.93) rotate(-45)"/><path class="cls-9" d="M577.6,363.05a10.32,10.32,0,1,0-14.16-3.57A10.32,10.32,0,0,0,577.6,363.05Z" transform="translate(0 -2.41)"/><path class="cls-5" d="M574.15,357.27a3.59,3.59,0,1,0-4.93-1.24A3.58,3.58,0,0,0,574.15,357.27Z" transform="translate(0 -2.41)"/><path class="cls-5" d="M644.15,381.56a2,2,0,1,1,2-2A2,2,0,0,1,644.15,381.56Z" transform="translate(0 -2.41)"/><path class="cls-5" d="M629.79,374a2,2,0,1,1,2-1.95A2,2,0,0,1,629.79,374Z" transform="translate(0 -2.41)"/><rect class="cls-5" x="635.63" y="319.74" width="3.59" height="3.59" transform="translate(-40.66 542.48) rotate(-45)"/><rect class="cls-5" x="616.48" y="314.66" width="3.59" height="3.59" transform="translate(-42.68 527.46) rotate(-45)"/><rect class="cls-5" x="614.43" y="330.75" width="3.59" height="3.59" transform="translate(-54.66 530.73) rotate(-45)"/><path class="cls-9" d="M466,813.92a10.32,10.32,0,1,0-14.15-3.57A10.32,10.32,0,0,0,466,813.92Z" transform="translate(0 -2.41)"/><path class="cls-5" d="M462.56,808.14a3.59,3.59,0,1,0-4.93-1.24A3.58,3.58,0,0,0,462.56,808.14Z" transform="translate(0 -2.41)"/><path class="cls-5" d="M532.56,832.43a2,2,0,1,1,2-2A2,2,0,0,1,532.56,832.43Z" transform="translate(0 -2.41)"/><path class="cls-5" d="M518.2,824.86a2,2,0,1,1,2-2A2,2,0,0,1,518.2,824.86Z" transform="translate(0 -2.41)"/><rect class="cls-5" x="524.04" y="770.61" width="3.59" height="3.59" transform="translate(-392.16 595.64) rotate(-45)"/><rect class="cls-5" x="504.89" y="765.53" width="3.59" height="3.59" transform="translate(-394.18 580.62) rotate(-45)"/><rect class="cls-5" x="502.84" y="781.62" width="3.59" height="3.59" transform="translate(-406.16 583.88) rotate(-45)"/><path class="cls-5" d="M237.84,162.4a2,2,0,1,1,0,2.77A1.95,1.95,0,0,1,237.84,162.4Z" transform="translate(0 -2.41)"/><path class="cls-5" d="M253.34,157.6a2,2,0,1,1,0,2.77A1.95,1.95,0,0,1,253.34,157.6Z" transform="translate(0 -2.41)"/><rect class="cls-5" x="133.71" y="242.36" width="3.59" height="3.59"/><rect class="cls-5" x="300.38" y="185.94" width="3.59" height="3.59"/><rect class="cls-5" x="290.45" y="173.1" width="3.59" height="3.59"/><path class="cls-5" d="M567.49,989.7c.57-.79,1.15-1.58,1.73-2.36" transform="translate(0 -2.41)"/><path class="cls-6" d="M572.85,982.64a179.55,179.55,0,0,1,303.32,36.68" transform="translate(0 -2.41)"/><path class="cls-5" d="M877.4,1022c.39.89.78,1.79,1.16,2.69" transform="translate(0 -2.41)"/><rect class="cls-5" x="518.42" y="940.22" width="3.59" height="3.59" transform="translate(-513.74 641.35) rotate(-45)"/><rect class="cls-5" x="574.44" y="940.22" width="3.59" height="3.59" transform="translate(-497.33 680.96) rotate(-45)"/><path class="cls-5" d="M563.06,870a2,2,0,1,1,0,2.77A2,2,0,0,1,563.06,870Z" transform="translate(0 -2.41)"/><path class="cls-5" d="M578.56,865.23a2,2,0,1,1,0,2.77A2,2,0,0,1,578.56,865.23Z" transform="translate(0 -2.41)"/><rect class="cls-5" x="625.6" y="893.57" width="3.59" height="3.59"/><rect class="cls-5" x="615.67" y="880.74" width="3.59" height="3.59"/><rect class="cls-5" x="732.19" y="467.96" width="3.59" height="3.59"/><rect class="cls-5" x="742.14" y="485.09" width="3.59" height="3.59"/><rect class="cls-5" x="754.97" y="475.16" width="3.59" height="3.59"/><path class="cls-5" d="M723.45,538.61a2,2,0,1,1,0,2.77A2,2,0,0,1,723.45,538.61Z" transform="translate(0 -2.41)"/><path class="cls-5" d="M739,533.81a2,2,0,1,1,0,2.77A2,2,0,0,1,739,533.81Z" transform="translate(0 -2.41)"/><rect class="cls-5" x="776.06" y="549.32" width="3.59" height="3.59"/><rect class="cls-5" x="768.11" y="507.39" width="3.59" height="3.59"/><rect class="cls-5" x="778.06" y="524.52" width="3.59" height="3.59"/><rect class="cls-5" x="790.89" y="514.59" width="3.59" height="3.59"/><path class="cls-5" d="M759.38,578a2,2,0,1,1,0,2.78A2,2,0,0,1,759.38,578Z" transform="translate(0 -2.41)"/><path class="cls-5" d="M774.88,573.24a2,2,0,1,1,0,2.77A2,2,0,0,1,774.88,573.24Z" transform="translate(0 -2.41)"/><rect class="cls-5" x="811.99" y="588.75" width="3.59" height="3.59"/><rect class="cls-5" x="324.1" y="944.21" width="3.59" height="3.59"/><rect class="cls-5" x="334.05" y="961.33" width="3.59" height="3.59"/><rect class="cls-5" x="346.88" y="951.4" width="3.59" height="3.59"/><path class="cls-5" d="M315.37,1014.86a2,2,0,1,1,0,2.77A2,2,0,0,1,315.37,1014.86Z" transform="translate(0 -2.41)"/><path class="cls-5" d="M330.88,1010.06a2,2,0,1,1,0,2.77A1.95,1.95,0,0,1,330.88,1010.06Z" transform="translate(0 -2.41)"/><rect class="cls-5" x="367.98" y="1025.57" width="3.59" height="3.59"/><rect class="cls-5" x="360.03" y="983.64" width="3.59" height="3.59"/><rect class="cls-5" x="369.98" y="1000.77" width="3.59" height="3.59"/><rect class="cls-5" x="382.8" y="990.83" width="3.59" height="3.59"/><rect class="cls-5" x="122.76" y="949.63" width="3.59" height="3.59"/><rect class="cls-5" x="132.71" y="966.76" width="3.59" height="3.59"/><rect class="cls-5" x="145.54" y="956.83" width="3.59" height="3.59"/><path class="cls-5" d="M114,1020.29a2,2,0,1,1,0,2.77A2,2,0,0,1,114,1020.29Z" transform="translate(0 -2.41)"/><path class="cls-5" d="M129.53,1015.49a2,2,0,1,1,0,2.77A1.95,1.95,0,0,1,129.53,1015.49Z" transform="translate(0 -2.41)"/><rect class="cls-5" x="158.68" y="989.07" width="3.59" height="3.59"/><rect class="cls-5" x="168.63" y="1006.19" width="3.59" height="3.59"/><rect class="cls-5" x="181.46" y="996.26" width="3.59" height="3.59"/><path class="cls-5" d="M351.29,1054.29a2,2,0,1,1,0,2.77A2,2,0,0,1,351.29,1054.29Z" transform="translate(0 -2.41)"/><path class="cls-5" d="M366.8,1049.49a2,2,0,1,1,0,2.77A1.95,1.95,0,0,1,366.8,1049.49Z" transform="translate(0 -2.41)"/><rect class="cls-5" x="403.91" y="1065" width="3.59" height="3.59"/><rect class="cls-9" x="491" y="248.17" width="19.48" height="12.16"/><rect class="cls-8" x="361.92" y="852.67" width="153.64" height="38.31"/></g></g></g></svg>